%TF.GenerationSoftware,KiCad,Pcbnew,7.0.10*%
%TF.CreationDate,2024-01-07T18:15:16+00:00*%
%TF.ProjectId,green_storm,67726565-6e5f-4737-946f-726d2e6b6963,rev?*%
%TF.SameCoordinates,Original*%
%TF.FileFunction,Copper,L1,Top*%
%TF.FilePolarity,Positive*%
%FSLAX46Y46*%
G04 Gerber Fmt 4.6, Leading zero omitted, Abs format (unit mm)*
G04 Created by KiCad (PCBNEW 7.0.10) date 2024-01-07 18:15:16*
%MOMM*%
%LPD*%
G01*
G04 APERTURE LIST*
G04 Aperture macros list*
%AMRoundRect*
0 Rectangle with rounded corners*
0 $1 Rounding radius*
0 $2 $3 $4 $5 $6 $7 $8 $9 X,Y pos of 4 corners*
0 Add a 4 corners polygon primitive as box body*
4,1,4,$2,$3,$4,$5,$6,$7,$8,$9,$2,$3,0*
0 Add four circle primitives for the rounded corners*
1,1,$1+$1,$2,$3*
1,1,$1+$1,$4,$5*
1,1,$1+$1,$6,$7*
1,1,$1+$1,$8,$9*
0 Add four rect primitives between the rounded corners*
20,1,$1+$1,$2,$3,$4,$5,0*
20,1,$1+$1,$4,$5,$6,$7,0*
20,1,$1+$1,$6,$7,$8,$9,0*
20,1,$1+$1,$8,$9,$2,$3,0*%
G04 Aperture macros list end*
%TA.AperFunction,SMDPad,CuDef*%
%ADD10RoundRect,0.140000X-0.170000X0.140000X-0.170000X-0.140000X0.170000X-0.140000X0.170000X0.140000X0*%
%TD*%
%TA.AperFunction,SMDPad,CuDef*%
%ADD11RoundRect,0.140000X0.170000X-0.140000X0.170000X0.140000X-0.170000X0.140000X-0.170000X-0.140000X0*%
%TD*%
%TA.AperFunction,SMDPad,CuDef*%
%ADD12RoundRect,0.218750X-0.256250X0.218750X-0.256250X-0.218750X0.256250X-0.218750X0.256250X0.218750X0*%
%TD*%
%TA.AperFunction,SMDPad,CuDef*%
%ADD13RoundRect,0.250000X0.475000X-0.250000X0.475000X0.250000X-0.475000X0.250000X-0.475000X-0.250000X0*%
%TD*%
%TA.AperFunction,SMDPad,CuDef*%
%ADD14RoundRect,0.135000X-0.185000X0.135000X-0.185000X-0.135000X0.185000X-0.135000X0.185000X0.135000X0*%
%TD*%
%TA.AperFunction,SMDPad,CuDef*%
%ADD15RoundRect,0.140000X0.140000X0.170000X-0.140000X0.170000X-0.140000X-0.170000X0.140000X-0.170000X0*%
%TD*%
%TA.AperFunction,SMDPad,CuDef*%
%ADD16RoundRect,0.135000X0.185000X-0.135000X0.185000X0.135000X-0.185000X0.135000X-0.185000X-0.135000X0*%
%TD*%
%TA.AperFunction,SMDPad,CuDef*%
%ADD17RoundRect,0.225000X-0.225000X-0.250000X0.225000X-0.250000X0.225000X0.250000X-0.225000X0.250000X0*%
%TD*%
%TA.AperFunction,ComponentPad*%
%ADD18R,1.700000X1.700000*%
%TD*%
%TA.AperFunction,ComponentPad*%
%ADD19O,1.700000X1.700000*%
%TD*%
%TA.AperFunction,ComponentPad*%
%ADD20R,1.350000X1.350000*%
%TD*%
%TA.AperFunction,ComponentPad*%
%ADD21O,1.350000X1.350000*%
%TD*%
%TA.AperFunction,SMDPad,CuDef*%
%ADD22RoundRect,0.135000X-0.135000X-0.185000X0.135000X-0.185000X0.135000X0.185000X-0.135000X0.185000X0*%
%TD*%
%TA.AperFunction,SMDPad,CuDef*%
%ADD23RoundRect,0.250000X-0.250000X-0.475000X0.250000X-0.475000X0.250000X0.475000X-0.250000X0.475000X0*%
%TD*%
%TA.AperFunction,SMDPad,CuDef*%
%ADD24R,1.300000X0.450000*%
%TD*%
%TA.AperFunction,ComponentPad*%
%ADD25O,1.800000X1.150000*%
%TD*%
%TA.AperFunction,ComponentPad*%
%ADD26O,2.000000X1.450000*%
%TD*%
%TA.AperFunction,SMDPad,CuDef*%
%ADD27RoundRect,0.135000X0.135000X0.185000X-0.135000X0.185000X-0.135000X-0.185000X0.135000X-0.185000X0*%
%TD*%
%TA.AperFunction,SMDPad,CuDef*%
%ADD28RoundRect,0.075000X-0.662500X-0.075000X0.662500X-0.075000X0.662500X0.075000X-0.662500X0.075000X0*%
%TD*%
%TA.AperFunction,SMDPad,CuDef*%
%ADD29RoundRect,0.075000X-0.075000X-0.662500X0.075000X-0.662500X0.075000X0.662500X-0.075000X0.662500X0*%
%TD*%
%TA.AperFunction,SMDPad,CuDef*%
%ADD30RoundRect,0.140000X-0.140000X-0.170000X0.140000X-0.170000X0.140000X0.170000X-0.140000X0.170000X0*%
%TD*%
%TA.AperFunction,SMDPad,CuDef*%
%ADD31R,1.500000X2.000000*%
%TD*%
%TA.AperFunction,SMDPad,CuDef*%
%ADD32R,3.800000X2.000000*%
%TD*%
%TA.AperFunction,SMDPad,CuDef*%
%ADD33R,0.800000X1.000000*%
%TD*%
%TA.AperFunction,SMDPad,CuDef*%
%ADD34R,1.500000X0.700000*%
%TD*%
%TA.AperFunction,SMDPad,CuDef*%
%ADD35R,1.200000X1.400000*%
%TD*%
%TA.AperFunction,ViaPad*%
%ADD36C,0.600000*%
%TD*%
%TA.AperFunction,Conductor*%
%ADD37C,0.500000*%
%TD*%
%TA.AperFunction,Conductor*%
%ADD38C,0.300000*%
%TD*%
G04 APERTURE END LIST*
D10*
%TO.P,C11,1*%
%TO.N,Net-(U2-NRST)*%
X64643000Y-98199000D03*
%TO.P,C11,2*%
%TO.N,GND*%
X64643000Y-99159000D03*
%TD*%
D11*
%TO.P,C12,1*%
%TO.N,Net-(U2-PD0)*%
X59182000Y-89662000D03*
%TO.P,C12,2*%
%TO.N,GND*%
X59182000Y-88702000D03*
%TD*%
D12*
%TO.P,D1,1,K*%
%TO.N,Net-(D1-K)*%
X84836000Y-102692000D03*
%TO.P,D1,2,A*%
%TO.N,+3.3V*%
X84836000Y-104267000D03*
%TD*%
D13*
%TO.P,C2,1*%
%TO.N,+3.3V*%
X81407000Y-104201000D03*
%TO.P,C2,2*%
%TO.N,GND*%
X81407000Y-102301000D03*
%TD*%
D14*
%TO.P,R3,1*%
%TO.N,+3.3V*%
X78486000Y-88898000D03*
%TO.P,R3,2*%
%TO.N,Net-(J1-D+)*%
X78486000Y-89918000D03*
%TD*%
D15*
%TO.P,C5,1*%
%TO.N,+3.3V*%
X71092000Y-97663000D03*
%TO.P,C5,2*%
%TO.N,GND*%
X70132000Y-97663000D03*
%TD*%
D16*
%TO.P,R2,1*%
%TO.N,Net-(SW1-B)*%
X49022000Y-84965000D03*
%TO.P,R2,2*%
%TO.N,Net-(U2-BOOT0)*%
X49022000Y-83945000D03*
%TD*%
D17*
%TO.P,C3,1*%
%TO.N,+3.3V*%
X63868000Y-82804000D03*
%TO.P,C3,2*%
%TO.N,GND*%
X65418000Y-82804000D03*
%TD*%
D18*
%TO.P,J3,1,Pin_1*%
%TO.N,+3.3V*%
X65522000Y-77216000D03*
D19*
%TO.P,J3,2,Pin_2*%
%TO.N,Net-(J3-Pin_2)*%
X62982000Y-77216000D03*
%TO.P,J3,3,Pin_3*%
%TO.N,Net-(J3-Pin_3)*%
X60442000Y-77216000D03*
%TO.P,J3,4,Pin_4*%
%TO.N,GND*%
X57902000Y-77216000D03*
%TD*%
D20*
%TO.P,J4,1,Pin_1*%
%TO.N,+3.3V*%
X62865000Y-110363000D03*
D21*
%TO.P,J4,2,Pin_2*%
%TO.N,Net-(J4-Pin_2)*%
X64865000Y-110363000D03*
%TO.P,J4,3,Pin_3*%
%TO.N,Net-(J4-Pin_3)*%
X66865000Y-110363000D03*
%TO.P,J4,4,Pin_4*%
%TO.N,GND*%
X68865000Y-110363000D03*
%TD*%
D22*
%TO.P,R5,1*%
%TO.N,+3.3V*%
X66800000Y-102108000D03*
%TO.P,R5,2*%
%TO.N,Net-(J4-Pin_3)*%
X67820000Y-102108000D03*
%TD*%
D15*
%TO.P,C10,1*%
%TO.N,+3.3V*%
X59436000Y-99822000D03*
%TO.P,C10,2*%
%TO.N,GND*%
X58476000Y-99822000D03*
%TD*%
%TO.P,C9,1*%
%TO.N,+3.3VA*%
X59436000Y-98298000D03*
%TO.P,C9,2*%
%TO.N,GND*%
X58476000Y-98298000D03*
%TD*%
D23*
%TO.P,C1,1*%
%TO.N,VBUS*%
X76266000Y-98044000D03*
%TO.P,C1,2*%
%TO.N,GND*%
X78166000Y-98044000D03*
%TD*%
D10*
%TO.P,C6,1*%
%TO.N,+3.3V*%
X74168000Y-87912000D03*
%TO.P,C6,2*%
%TO.N,GND*%
X74168000Y-88872000D03*
%TD*%
D24*
%TO.P,J1,1,VBUS*%
%TO.N,VBUS*%
X90043000Y-91119000D03*
%TO.P,J1,2,D-*%
%TO.N,Net-(J1-D-)*%
X90043000Y-90469000D03*
%TO.P,J1,3,D+*%
%TO.N,Net-(J1-D+)*%
X90043000Y-89819000D03*
%TO.P,J1,4,ID*%
%TO.N,unconnected-(J1-ID-Pad4)*%
X90043000Y-89169000D03*
%TO.P,J1,5,GND*%
%TO.N,GND*%
X90043000Y-88519000D03*
D25*
%TO.P,J1,6,Shield*%
%TO.N,unconnected-(J1-Shield-Pad6)*%
X93893000Y-93694000D03*
D26*
X90093000Y-93544000D03*
X90093000Y-86094000D03*
D25*
X93893000Y-85944000D03*
%TD*%
D18*
%TO.P,J2,1,Pin_1*%
%TO.N,+3.3V*%
X80772000Y-77216000D03*
D19*
%TO.P,J2,2,Pin_2*%
%TO.N,Net-(J2-Pin_2)*%
X78232000Y-77216000D03*
%TO.P,J2,3,Pin_3*%
%TO.N,Net-(J2-Pin_3)*%
X75692000Y-77216000D03*
%TO.P,J2,4,Pin_4*%
%TO.N,GND*%
X73152000Y-77216000D03*
%TD*%
D27*
%TO.P,R4,1*%
%TO.N,+3.3V*%
X65407000Y-102108000D03*
%TO.P,R4,2*%
%TO.N,Net-(J4-Pin_2)*%
X64387000Y-102108000D03*
%TD*%
D28*
%TO.P,U2,1,VBAT*%
%TO.N,+3.3V*%
X62893500Y-88690000D03*
%TO.P,U2,2,PC13*%
%TO.N,unconnected-(U2-PC13-Pad2)*%
X62893500Y-89190000D03*
%TO.P,U2,3,PC14*%
%TO.N,unconnected-(U2-PC14-Pad3)*%
X62893500Y-89690000D03*
%TO.P,U2,4,PC15*%
%TO.N,unconnected-(U2-PC15-Pad4)*%
X62893500Y-90190000D03*
%TO.P,U2,5,PD0*%
%TO.N,Net-(U2-PD0)*%
X62893500Y-90690000D03*
%TO.P,U2,6,PD1*%
%TO.N,Net-(U2-PD1)*%
X62893500Y-91190000D03*
%TO.P,U2,7,NRST*%
%TO.N,Net-(U2-NRST)*%
X62893500Y-91690000D03*
%TO.P,U2,8,VSSA*%
%TO.N,GND*%
X62893500Y-92190000D03*
%TO.P,U2,9,VDDA*%
%TO.N,+3.3VA*%
X62893500Y-92690000D03*
%TO.P,U2,10,PA0*%
%TO.N,unconnected-(U2-PA0-Pad10)*%
X62893500Y-93190000D03*
%TO.P,U2,11,PA1*%
%TO.N,unconnected-(U2-PA1-Pad11)*%
X62893500Y-93690000D03*
%TO.P,U2,12,PA2*%
%TO.N,unconnected-(U2-PA2-Pad12)*%
X62893500Y-94190000D03*
D29*
%TO.P,U2,13,PA3*%
%TO.N,unconnected-(U2-PA3-Pad13)*%
X64306000Y-95602500D03*
%TO.P,U2,14,PA4*%
%TO.N,unconnected-(U2-PA4-Pad14)*%
X64806000Y-95602500D03*
%TO.P,U2,15,PA5*%
%TO.N,unconnected-(U2-PA5-Pad15)*%
X65306000Y-95602500D03*
%TO.P,U2,16,PA6*%
%TO.N,unconnected-(U2-PA6-Pad16)*%
X65806000Y-95602500D03*
%TO.P,U2,17,PA7*%
%TO.N,unconnected-(U2-PA7-Pad17)*%
X66306000Y-95602500D03*
%TO.P,U2,18,PB0*%
%TO.N,unconnected-(U2-PB0-Pad18)*%
X66806000Y-95602500D03*
%TO.P,U2,19,PB1*%
%TO.N,unconnected-(U2-PB1-Pad19)*%
X67306000Y-95602500D03*
%TO.P,U2,20,PB2*%
%TO.N,unconnected-(U2-PB2-Pad20)*%
X67806000Y-95602500D03*
%TO.P,U2,21,PB10*%
%TO.N,Net-(J4-Pin_2)*%
X68306000Y-95602500D03*
%TO.P,U2,22,PB11*%
%TO.N,Net-(J4-Pin_3)*%
X68806000Y-95602500D03*
%TO.P,U2,23,VSS*%
%TO.N,GND*%
X69306000Y-95602500D03*
%TO.P,U2,24,VDD*%
%TO.N,+3.3V*%
X69806000Y-95602500D03*
D28*
%TO.P,U2,25,PB12*%
%TO.N,unconnected-(U2-PB12-Pad25)*%
X71218500Y-94190000D03*
%TO.P,U2,26,PB13*%
%TO.N,unconnected-(U2-PB13-Pad26)*%
X71218500Y-93690000D03*
%TO.P,U2,27,PB14*%
%TO.N,unconnected-(U2-PB14-Pad27)*%
X71218500Y-93190000D03*
%TO.P,U2,28,PB15*%
%TO.N,unconnected-(U2-PB15-Pad28)*%
X71218500Y-92690000D03*
%TO.P,U2,29,PA8*%
%TO.N,unconnected-(U2-PA8-Pad29)*%
X71218500Y-92190000D03*
%TO.P,U2,30,PA9*%
%TO.N,unconnected-(U2-PA9-Pad30)*%
X71218500Y-91690000D03*
%TO.P,U2,31,PA10*%
%TO.N,unconnected-(U2-PA10-Pad31)*%
X71218500Y-91190000D03*
%TO.P,U2,32,PA11*%
%TO.N,Net-(J1-D-)*%
X71218500Y-90690000D03*
%TO.P,U2,33,PA12*%
%TO.N,Net-(J1-D+)*%
X71218500Y-90190000D03*
%TO.P,U2,34,PA13*%
%TO.N,Net-(J2-Pin_2)*%
X71218500Y-89690000D03*
%TO.P,U2,35,VSS*%
%TO.N,GND*%
X71218500Y-89190000D03*
%TO.P,U2,36,VDD*%
%TO.N,+3.3V*%
X71218500Y-88690000D03*
D29*
%TO.P,U2,37,PA14*%
%TO.N,Net-(J2-Pin_3)*%
X69806000Y-87277500D03*
%TO.P,U2,38,PA15*%
%TO.N,unconnected-(U2-PA15-Pad38)*%
X69306000Y-87277500D03*
%TO.P,U2,39,PB3*%
%TO.N,unconnected-(U2-PB3-Pad39)*%
X68806000Y-87277500D03*
%TO.P,U2,40,PB4*%
%TO.N,unconnected-(U2-PB4-Pad40)*%
X68306000Y-87277500D03*
%TO.P,U2,41,PB5*%
%TO.N,unconnected-(U2-PB5-Pad41)*%
X67806000Y-87277500D03*
%TO.P,U2,42,PB6*%
%TO.N,Net-(J3-Pin_2)*%
X67306000Y-87277500D03*
%TO.P,U2,43,PB7*%
%TO.N,Net-(J3-Pin_3)*%
X66806000Y-87277500D03*
%TO.P,U2,44,BOOT0*%
%TO.N,Net-(U2-BOOT0)*%
X66306000Y-87277500D03*
%TO.P,U2,45,PB8*%
%TO.N,unconnected-(U2-PB8-Pad45)*%
X65806000Y-87277500D03*
%TO.P,U2,46,PB9*%
%TO.N,unconnected-(U2-PB9-Pad46)*%
X65306000Y-87277500D03*
%TO.P,U2,47,VSS*%
%TO.N,GND*%
X64806000Y-87277500D03*
%TO.P,U2,48,VDD*%
%TO.N,+3.3V*%
X64306000Y-87277500D03*
%TD*%
D11*
%TO.P,C13,1*%
%TO.N,Net-(U2-PD1)*%
X59182000Y-91892000D03*
%TO.P,C13,2*%
%TO.N,GND*%
X59182000Y-90932000D03*
%TD*%
D30*
%TO.P,C7,1*%
%TO.N,+3.3V*%
X64262000Y-84836000D03*
%TO.P,C7,2*%
%TO.N,GND*%
X65222000Y-84836000D03*
%TD*%
D31*
%TO.P,U1,1,GND*%
%TO.N,GND*%
X78627000Y-100609000D03*
%TO.P,U1,2,VO*%
%TO.N,+3.3V*%
X76327000Y-100609000D03*
D32*
X76327000Y-106909000D03*
D31*
%TO.P,U1,3,VI*%
%TO.N,VBUS*%
X74027000Y-100609000D03*
%TD*%
D12*
%TO.P,FB1,1*%
%TO.N,+3.3VA*%
X61468000Y-98272500D03*
%TO.P,FB1,2*%
%TO.N,+3.3V*%
X61468000Y-99847500D03*
%TD*%
D11*
%TO.P,C8,1*%
%TO.N,+3.3VA*%
X60960000Y-93162000D03*
%TO.P,C8,2*%
%TO.N,GND*%
X60960000Y-92202000D03*
%TD*%
D33*
%TO.P,SW1,*%
%TO.N,*%
X45197000Y-83853000D03*
X42987000Y-83853000D03*
X45197000Y-91153000D03*
X42987000Y-91153000D03*
D34*
%TO.P,SW1,1,A*%
%TO.N,GND*%
X45847000Y-85253000D03*
%TO.P,SW1,2,B*%
%TO.N,Net-(SW1-B)*%
X45847000Y-88253000D03*
%TO.P,SW1,3,C*%
%TO.N,+3.3V*%
X45847000Y-89753000D03*
%TD*%
D35*
%TO.P,Y1,1,1*%
%TO.N,Net-(U2-PD0)*%
X55538000Y-89324000D03*
%TO.P,Y1,2,2*%
%TO.N,GND*%
X55538000Y-91524000D03*
%TO.P,Y1,3,3*%
%TO.N,Net-(U2-PD1)*%
X57238000Y-91524000D03*
%TO.P,Y1,4,4*%
%TO.N,GND*%
X57238000Y-89324000D03*
%TD*%
D16*
%TO.P,R1,1*%
%TO.N,Net-(D1-K)*%
X85090000Y-100078000D03*
%TO.P,R1,2*%
%TO.N,GND*%
X85090000Y-99058000D03*
%TD*%
D11*
%TO.P,C4,1*%
%TO.N,+3.3V*%
X60960000Y-89126000D03*
%TO.P,C4,2*%
%TO.N,GND*%
X60960000Y-88166000D03*
%TD*%
D36*
%TO.N,GND*%
X59944000Y-90566000D03*
X59309000Y-87884000D03*
X46355000Y-84328000D03*
X79502000Y-97790000D03*
X64389000Y-100076000D03*
X61087000Y-87376000D03*
X78105000Y-102235000D03*
X74676000Y-89535000D03*
X57404000Y-87757000D03*
X85344000Y-98044000D03*
X54864000Y-93091000D03*
X54864000Y-93091000D03*
X58039000Y-100584000D03*
X64643000Y-92456000D03*
X57912000Y-97536000D03*
X82931000Y-102235000D03*
X78994000Y-102235000D03*
%TO.N,+3.3V*%
X65407000Y-106551000D03*
X63500000Y-106553000D03*
X68580000Y-100711000D03*
X67056000Y-100711000D03*
%TD*%
D37*
%TO.N,GND*%
X55538000Y-91524000D02*
X55538000Y-92417000D01*
D38*
X65222000Y-83000000D02*
X65418000Y-82804000D01*
D37*
X59578000Y-90932000D02*
X59944000Y-90566000D01*
X60960000Y-87503000D02*
X61087000Y-87376000D01*
D38*
X64806000Y-86212000D02*
X65222000Y-85796000D01*
X69306000Y-97246000D02*
X69306000Y-95602500D01*
X73180000Y-88872000D02*
X74168000Y-88872000D01*
X61468000Y-91694000D02*
X60960000Y-91694000D01*
X58476000Y-98298000D02*
X58476000Y-98100000D01*
X65418000Y-83452000D02*
X65418000Y-82804000D01*
X74168000Y-88872000D02*
X74168000Y-89027000D01*
X72862000Y-89190000D02*
X73180000Y-88872000D01*
X60960000Y-91694000D02*
X60960000Y-92202000D01*
D37*
X60960000Y-88166000D02*
X60960000Y-87503000D01*
X64643000Y-99159000D02*
X64643000Y-99822000D01*
X85090000Y-98931000D02*
X85090000Y-98298000D01*
D38*
X58476000Y-99822000D02*
X58476000Y-100147000D01*
D37*
X57404000Y-89158000D02*
X57238000Y-89324000D01*
X59182000Y-88702000D02*
X59182000Y-88011000D01*
D38*
X65222000Y-84836000D02*
X65222000Y-84384000D01*
D37*
X55538000Y-92417000D02*
X54864000Y-93091000D01*
X45847000Y-85253000D02*
X46010000Y-85253000D01*
D38*
X61964000Y-92190000D02*
X61468000Y-91694000D01*
X65222000Y-84384000D02*
X65532000Y-84074000D01*
X65532000Y-84074000D02*
X65532000Y-83566000D01*
X64262000Y-92456000D02*
X64643000Y-92456000D01*
D37*
X59182000Y-88011000D02*
X59309000Y-87884000D01*
X85090000Y-98298000D02*
X85344000Y-98044000D01*
X57404000Y-87757000D02*
X57404000Y-89158000D01*
D38*
X58476000Y-98100000D02*
X57912000Y-97536000D01*
X74168000Y-89027000D02*
X74676000Y-89535000D01*
D37*
X45847000Y-84836000D02*
X46355000Y-84328000D01*
D38*
X69723000Y-97663000D02*
X69306000Y-97246000D01*
D37*
X45847000Y-85598000D02*
X45847000Y-85253000D01*
D38*
X64806000Y-87277500D02*
X64806000Y-86212000D01*
X65532000Y-83566000D02*
X65418000Y-83452000D01*
X70132000Y-97663000D02*
X69723000Y-97663000D01*
D37*
X59182000Y-90932000D02*
X59578000Y-90932000D01*
D38*
X62893500Y-92190000D02*
X63996000Y-92190000D01*
X71218500Y-89190000D02*
X72862000Y-89190000D01*
D37*
X45847000Y-85253000D02*
X45847000Y-84836000D01*
D38*
X58476000Y-100147000D02*
X58039000Y-100584000D01*
X65222000Y-85796000D02*
X65222000Y-84836000D01*
X63996000Y-92190000D02*
X64262000Y-92456000D01*
D37*
X64643000Y-99822000D02*
X64389000Y-100076000D01*
D38*
X62893500Y-92190000D02*
X61964000Y-92190000D01*
D37*
%TO.N,+3.3V*%
X84455000Y-83693000D02*
X80772000Y-80010000D01*
D38*
X73180000Y-87912000D02*
X74168000Y-87912000D01*
X69806000Y-95602500D02*
X69806000Y-96476000D01*
X62230000Y-84963000D02*
X61087000Y-84963000D01*
D37*
X84770000Y-104201000D02*
X84836000Y-104267000D01*
X80772000Y-77216000D02*
X80772000Y-75692000D01*
X49058000Y-89753000D02*
X47462000Y-89753000D01*
X86487000Y-105918000D02*
X86487000Y-101600000D01*
D38*
X62052880Y-88690000D02*
X61616880Y-89126000D01*
D37*
X71092000Y-97663000D02*
X71092000Y-100711000D01*
X65522000Y-74940000D02*
X65522000Y-77216000D01*
D38*
X64262000Y-84328000D02*
X63868000Y-83934000D01*
X61616880Y-89126000D02*
X60960000Y-89126000D01*
D37*
X72898000Y-110109000D02*
X80137000Y-110109000D01*
D38*
X62893500Y-88690000D02*
X62230000Y-88026500D01*
D37*
X61468000Y-105156000D02*
X62865000Y-106553000D01*
X47498000Y-89789000D02*
X47462000Y-89753000D01*
D38*
X63754000Y-85344000D02*
X63754000Y-84836000D01*
D37*
X62865000Y-106553000D02*
X63500000Y-106553000D01*
X66800000Y-100967000D02*
X66800000Y-102108000D01*
X83312000Y-104201000D02*
X84770000Y-104201000D01*
X51181000Y-104140000D02*
X51181000Y-101219000D01*
D38*
X73152000Y-87884000D02*
X73180000Y-87912000D01*
X64306000Y-87277500D02*
X64306000Y-85896000D01*
D37*
X50292000Y-88519000D02*
X49058000Y-89753000D01*
X65407000Y-102108000D02*
X65407000Y-106551000D01*
D38*
X61087000Y-84963000D02*
X60198000Y-84074000D01*
D37*
X63233000Y-82169000D02*
X60198000Y-82169000D01*
D38*
X63868000Y-83934000D02*
X63868000Y-82804000D01*
D37*
X62865000Y-106553000D02*
X53594000Y-106553000D01*
D38*
X71092000Y-97663000D02*
X71092000Y-97381000D01*
X70231000Y-96901000D02*
X69806000Y-96476000D01*
X71218500Y-88690000D02*
X72346000Y-88690000D01*
D37*
X83312000Y-105918000D02*
X86487000Y-105918000D01*
D38*
X64262000Y-84836000D02*
X64262000Y-84328000D01*
D37*
X51181000Y-101219000D02*
X47498000Y-97536000D01*
X53594000Y-82169000D02*
X50292000Y-85471000D01*
X80137000Y-110109000D02*
X83312000Y-106934000D01*
D38*
X62893500Y-88690000D02*
X62052880Y-88690000D01*
D37*
X61468000Y-99847500D02*
X61468000Y-105156000D01*
X59436000Y-99822000D02*
X61442500Y-99822000D01*
X50292000Y-85471000D02*
X50292000Y-88519000D01*
D38*
X64306000Y-85896000D02*
X63754000Y-85344000D01*
D37*
X65405000Y-106553000D02*
X65407000Y-106551000D01*
X63868000Y-82804000D02*
X63233000Y-82169000D01*
X92075000Y-83693000D02*
X84455000Y-83693000D01*
X66800000Y-102108000D02*
X65407000Y-102108000D01*
X61442500Y-99822000D02*
X61468000Y-99847500D01*
X71092000Y-100711000D02*
X68580000Y-100711000D01*
X62865000Y-110363000D02*
X62865000Y-106553000D01*
X65532000Y-74930000D02*
X65522000Y-74940000D01*
D38*
X63754000Y-84836000D02*
X64262000Y-84836000D01*
D37*
X67056000Y-100711000D02*
X66800000Y-100967000D01*
X80772000Y-80010000D02*
X80772000Y-77216000D01*
X80010000Y-74930000D02*
X65532000Y-74930000D01*
X80772000Y-75692000D02*
X80010000Y-74930000D01*
X81407000Y-104201000D02*
X83312000Y-104201000D01*
X47498000Y-97536000D02*
X47498000Y-89789000D01*
D38*
X62230000Y-88026500D02*
X62230000Y-84963000D01*
X70612000Y-96901000D02*
X70231000Y-96901000D01*
D37*
X92075000Y-96012000D02*
X92075000Y-83693000D01*
X83312000Y-106934000D02*
X83312000Y-105918000D01*
X47462000Y-89753000D02*
X45847000Y-89753000D01*
D38*
X71092000Y-97381000D02*
X70612000Y-96901000D01*
D37*
X71092000Y-108303000D02*
X72898000Y-110109000D01*
X83312000Y-105918000D02*
X83312000Y-104201000D01*
X86487000Y-101600000D02*
X92075000Y-96012000D01*
X60198000Y-82169000D02*
X53594000Y-82169000D01*
D38*
X72346000Y-88690000D02*
X73152000Y-87884000D01*
D37*
X71092000Y-100711000D02*
X71092000Y-108303000D01*
X53594000Y-106553000D02*
X51181000Y-104140000D01*
D38*
X60198000Y-84074000D02*
X60198000Y-82169000D01*
D37*
%TO.N,+3.3VA*%
X59436000Y-96139000D02*
X58801000Y-95504000D01*
X58801000Y-94742000D02*
X60381000Y-93162000D01*
X60381000Y-93162000D02*
X60960000Y-93162000D01*
D38*
X60960000Y-93162000D02*
X61580880Y-93162000D01*
D37*
X59436000Y-98298000D02*
X59436000Y-96139000D01*
X58801000Y-95504000D02*
X58801000Y-94742000D01*
D38*
X61580880Y-93162000D02*
X62052880Y-92690000D01*
X62052880Y-92690000D02*
X62893500Y-92690000D01*
D37*
X61442500Y-98298000D02*
X61468000Y-98272500D01*
X59436000Y-98298000D02*
X61442500Y-98298000D01*
D38*
%TO.N,Net-(U2-NRST)*%
X65655000Y-91690000D02*
X66167000Y-92202000D01*
X63246000Y-97028000D02*
X63754000Y-97536000D01*
X62893500Y-91690000D02*
X65655000Y-91690000D01*
X66167000Y-92837000D02*
X64770000Y-94234000D01*
X63246000Y-95250000D02*
X63246000Y-97028000D01*
X64643000Y-97536000D02*
X64643000Y-98199000D01*
X64262000Y-94234000D02*
X63246000Y-95250000D01*
X66167000Y-92202000D02*
X66167000Y-92837000D01*
X64770000Y-94234000D02*
X64262000Y-94234000D01*
X63754000Y-97536000D02*
X64643000Y-97536000D01*
%TO.N,Net-(U2-PD0)*%
X60960000Y-89916000D02*
X59436000Y-89916000D01*
X59436000Y-89916000D02*
X59182000Y-89662000D01*
X62893500Y-90690000D02*
X61734000Y-90690000D01*
X55538000Y-89624000D02*
X55538000Y-89324000D01*
X56338000Y-90424000D02*
X55538000Y-89624000D01*
X59182000Y-89662000D02*
X58928000Y-89662000D01*
X58928000Y-89662000D02*
X58166000Y-90424000D01*
X61734000Y-90690000D02*
X60960000Y-89916000D01*
X58166000Y-90424000D02*
X56338000Y-90424000D01*
%TO.N,Net-(U2-PD1)*%
X57606000Y-91892000D02*
X57238000Y-91524000D01*
X60202000Y-91190000D02*
X60198000Y-91186000D01*
X60198000Y-91186000D02*
X59491999Y-91892000D01*
X59491999Y-91892000D02*
X59182000Y-91892000D01*
X62893500Y-91190000D02*
X60202000Y-91190000D01*
X59182000Y-91892000D02*
X57606000Y-91892000D01*
%TO.N,Net-(D1-K)*%
X84836000Y-100332000D02*
X85090000Y-100078000D01*
X84836000Y-102692000D02*
X84836000Y-100332000D01*
%TO.N,Net-(J1-D-)*%
X72402000Y-90690000D02*
X72644000Y-90932000D01*
X88789000Y-90932000D02*
X89252000Y-90469000D01*
X89252000Y-90469000D02*
X90043000Y-90469000D01*
X72644000Y-90932000D02*
X88789000Y-90932000D01*
X71218500Y-90690000D02*
X72402000Y-90690000D01*
%TO.N,Net-(J1-D+)*%
X71218500Y-90190000D02*
X88747000Y-90190000D01*
X89118000Y-89819000D02*
X90043000Y-89819000D01*
X88747000Y-90190000D02*
X89118000Y-89819000D01*
%TO.N,Net-(J2-Pin_2)*%
X69850000Y-89535000D02*
X69850000Y-88646000D01*
X71218500Y-89690000D02*
X70005000Y-89690000D01*
X78232000Y-77216000D02*
X78232000Y-80264000D01*
X70005000Y-89690000D02*
X69850000Y-89535000D01*
X69850000Y-88646000D02*
X78232000Y-80264000D01*
%TO.N,Net-(J2-Pin_3)*%
X69806000Y-85896000D02*
X75692000Y-80010000D01*
X69806000Y-87277500D02*
X69806000Y-85896000D01*
X75692000Y-77216000D02*
X75692000Y-80010000D01*
%TO.N,Net-(J3-Pin_2)*%
X67306000Y-84967000D02*
X67306000Y-87277500D01*
X62982000Y-78603000D02*
X63754000Y-79375000D01*
X68961000Y-83312000D02*
X67306000Y-84967000D01*
X62982000Y-77216000D02*
X62982000Y-78603000D01*
X68834000Y-79375000D02*
X68961000Y-79502000D01*
X63754000Y-79375000D02*
X68834000Y-79375000D01*
X68961000Y-79502000D02*
X68961000Y-83312000D01*
%TO.N,Net-(J3-Pin_3)*%
X68072000Y-80010000D02*
X68199000Y-80137000D01*
X68199000Y-80137000D02*
X68199000Y-83058000D01*
X60960000Y-80010000D02*
X68072000Y-80010000D01*
X60442000Y-77216000D02*
X60442000Y-79492000D01*
X68199000Y-83058000D02*
X68072000Y-83058000D01*
X66806000Y-84332000D02*
X66806000Y-87277500D01*
X66802000Y-84328000D02*
X66806000Y-84332000D01*
X68072000Y-83058000D02*
X66802000Y-84328000D01*
X60442000Y-79492000D02*
X60960000Y-80010000D01*
%TO.N,Net-(J4-Pin_2)*%
X68306000Y-97302000D02*
X64387000Y-101221000D01*
X64387000Y-101221000D02*
X64387000Y-102108000D01*
X64387000Y-109885000D02*
X64865000Y-110363000D01*
X68306000Y-95602500D02*
X68306000Y-97302000D01*
X64387000Y-102108000D02*
X64387000Y-109885000D01*
%TO.N,Net-(J4-Pin_3)*%
X67820000Y-102108000D02*
X67820000Y-107440000D01*
X66865000Y-108395000D02*
X66865000Y-110363000D01*
X67820000Y-107440000D02*
X66865000Y-108395000D01*
X67820000Y-99439000D02*
X67820000Y-102108000D01*
X68806000Y-95602500D02*
X68806000Y-98453000D01*
X68806000Y-98453000D02*
X67820000Y-99439000D01*
%TO.N,Net-(SW1-B)*%
X48653000Y-88253000D02*
X45847000Y-88253000D01*
X49022000Y-87884000D02*
X48653000Y-88253000D01*
X49022000Y-84965000D02*
X49022000Y-87884000D01*
%TO.N,Net-(U2-BOOT0)*%
X66929000Y-81407000D02*
X66421000Y-80899000D01*
X66294000Y-83820000D02*
X66929000Y-83185000D01*
X66294000Y-84527106D02*
X66294000Y-83820000D01*
X50294000Y-83945000D02*
X49022000Y-83945000D01*
X66306000Y-87277500D02*
X66306000Y-84539106D01*
X66929000Y-83185000D02*
X66929000Y-81407000D01*
X53340000Y-80899000D02*
X50294000Y-83945000D01*
X66421000Y-80899000D02*
X53340000Y-80899000D01*
X66306000Y-84539106D02*
X66294000Y-84527106D01*
%TD*%
%TA.AperFunction,Conductor*%
%TO.N,GND*%
G36*
X75408539Y-98190685D02*
G01*
X75454294Y-98243489D01*
X75465500Y-98295000D01*
X75465500Y-98562102D01*
X75471126Y-98608954D01*
X75476122Y-98650561D01*
X75531639Y-98791343D01*
X75584519Y-98861075D01*
X75609342Y-98926386D01*
X75594914Y-98994750D01*
X75545816Y-99044461D01*
X75485715Y-99060000D01*
X75057000Y-99060000D01*
X75057000Y-99213841D01*
X75037315Y-99280880D01*
X74984511Y-99326635D01*
X74915353Y-99336579D01*
X74882916Y-99327276D01*
X74846996Y-99311416D01*
X74846991Y-99311415D01*
X74821865Y-99308500D01*
X73232143Y-99308500D01*
X73232117Y-99308502D01*
X73207012Y-99311413D01*
X73207008Y-99311415D01*
X73104235Y-99356793D01*
X73094755Y-99363288D01*
X73092865Y-99360529D01*
X73048358Y-99384833D01*
X72978666Y-99379849D01*
X72922733Y-99337977D01*
X72898316Y-99272513D01*
X72898000Y-99263667D01*
X72898000Y-98295000D01*
X72917685Y-98227961D01*
X72970489Y-98182206D01*
X73022000Y-98171000D01*
X75341500Y-98171000D01*
X75408539Y-98190685D01*
G37*
%TD.AperFunction*%
%TA.AperFunction,Conductor*%
G36*
X88796882Y-91402185D02*
G01*
X88842637Y-91454989D01*
X88852581Y-91524147D01*
X88823556Y-91587703D01*
X88779864Y-91619963D01*
X77089000Y-96774000D01*
X77089000Y-97062981D01*
X77069315Y-97130020D01*
X77016511Y-97175775D01*
X76947353Y-97185719D01*
X76890075Y-97161785D01*
X76788343Y-97084639D01*
X76647561Y-97029122D01*
X76601926Y-97023642D01*
X76559102Y-97018500D01*
X76331429Y-97018500D01*
X76264390Y-96998815D01*
X76218635Y-96946011D01*
X76208691Y-96876853D01*
X76237716Y-96813297D01*
X76281167Y-96781143D01*
X88432827Y-91393143D01*
X88483089Y-91382500D01*
X88729843Y-91382500D01*
X88796882Y-91402185D01*
G37*
%TD.AperFunction*%
%TD*%
%TA.AperFunction,Conductor*%
%TO.N,GND*%
G36*
X78681720Y-107973794D02*
G01*
X78728136Y-108026018D01*
X78740000Y-108078946D01*
X78740000Y-108207000D01*
X78720315Y-108274039D01*
X78667511Y-108319794D01*
X78616000Y-108331000D01*
X78529333Y-108331000D01*
X78462294Y-108311315D01*
X78416539Y-108258511D01*
X78406595Y-108189353D01*
X78435620Y-108125797D01*
X78441652Y-108119319D01*
X78479206Y-108081765D01*
X78502566Y-108028860D01*
X78547652Y-107975483D01*
X78614438Y-107954956D01*
X78681720Y-107973794D01*
G37*
%TD.AperFunction*%
%TA.AperFunction,Conductor*%
G36*
X77159039Y-101929184D02*
G01*
X77204794Y-101981988D01*
X77216000Y-102033499D01*
X77216000Y-103378000D01*
X80425981Y-103378000D01*
X80493020Y-103397685D01*
X80538775Y-103450489D01*
X80548719Y-103519647D01*
X80524785Y-103576925D01*
X80447639Y-103678656D01*
X80392122Y-103819438D01*
X80386188Y-103868853D01*
X80381500Y-103907898D01*
X80381500Y-104494102D01*
X80387126Y-104540954D01*
X80392122Y-104582561D01*
X80447639Y-104723343D01*
X80539077Y-104843922D01*
X80656803Y-104933196D01*
X80698327Y-104989388D01*
X80702878Y-105059110D01*
X80669013Y-105120224D01*
X80607483Y-105153327D01*
X80581878Y-105156000D01*
X78740000Y-105156000D01*
X78740000Y-105739054D01*
X78720315Y-105806093D01*
X78667511Y-105851848D01*
X78598353Y-105861792D01*
X78534797Y-105832767D01*
X78502566Y-105789140D01*
X78479206Y-105736235D01*
X78399765Y-105656794D01*
X78296992Y-105611415D01*
X78271868Y-105608500D01*
X75562000Y-105608500D01*
X75494961Y-105588815D01*
X75449206Y-105536011D01*
X75438000Y-105484500D01*
X75438000Y-102033499D01*
X75457685Y-101966460D01*
X75510489Y-101920705D01*
X75561995Y-101909499D01*
X77092000Y-101909499D01*
X77159039Y-101929184D01*
G37*
%TD.AperFunction*%
%TA.AperFunction,Conductor*%
G36*
X82620039Y-104771185D02*
G01*
X82665794Y-104823989D01*
X82677000Y-104875500D01*
X82677000Y-105032000D01*
X82657315Y-105099039D01*
X82604511Y-105144794D01*
X82553000Y-105156000D01*
X82232122Y-105156000D01*
X82165083Y-105136315D01*
X82119328Y-105083511D01*
X82109384Y-105014353D01*
X82138409Y-104950797D01*
X82157197Y-104933196D01*
X82274922Y-104843922D01*
X82307793Y-104800575D01*
X82363985Y-104759052D01*
X82406597Y-104751500D01*
X82553000Y-104751500D01*
X82620039Y-104771185D01*
G37*
%TD.AperFunction*%
%TA.AperFunction,Conductor*%
G36*
X82620039Y-103397685D02*
G01*
X82665794Y-103450489D01*
X82677000Y-103502000D01*
X82677000Y-103526500D01*
X82657315Y-103593539D01*
X82604511Y-103639294D01*
X82553000Y-103650500D01*
X82406597Y-103650500D01*
X82339558Y-103630815D01*
X82307793Y-103601424D01*
X82295766Y-103585565D01*
X82289213Y-103576923D01*
X82264392Y-103511611D01*
X82278821Y-103443247D01*
X82327920Y-103393537D01*
X82388019Y-103378000D01*
X82553000Y-103378000D01*
X82620039Y-103397685D01*
G37*
%TD.AperFunction*%
%TD*%
%TA.AperFunction,Conductor*%
%TO.N,GND*%
G36*
X79826039Y-97174685D02*
G01*
X79871794Y-97227489D01*
X79883000Y-97279000D01*
X79883000Y-101473000D01*
X83315000Y-101473000D01*
X83382039Y-101492685D01*
X83427794Y-101545489D01*
X83439000Y-101597000D01*
X83439000Y-102873000D01*
X83419315Y-102940039D01*
X83366511Y-102985794D01*
X83315000Y-102997000D01*
X77721000Y-102997000D01*
X77653961Y-102977315D01*
X77608206Y-102924511D01*
X77597000Y-102873000D01*
X77597000Y-97279000D01*
X77616685Y-97211961D01*
X77669489Y-97166206D01*
X77721000Y-97155000D01*
X79759000Y-97155000D01*
X79826039Y-97174685D01*
G37*
%TD.AperFunction*%
%TD*%
M02*
