%TF.GenerationSoftware,KiCad,Pcbnew,7.0.10*%
%TF.CreationDate,2024-01-07T18:15:16+00:00*%
%TF.ProjectId,green_storm,67726565-6e5f-4737-946f-726d2e6b6963,rev?*%
%TF.SameCoordinates,Original*%
%TF.FileFunction,Copper,L2,Bot*%
%TF.FilePolarity,Positive*%
%FSLAX46Y46*%
G04 Gerber Fmt 4.6, Leading zero omitted, Abs format (unit mm)*
G04 Created by KiCad (PCBNEW 7.0.10) date 2024-01-07 18:15:16*
%MOMM*%
%LPD*%
G01*
G04 APERTURE LIST*
%TA.AperFunction,ComponentPad*%
%ADD10R,1.700000X1.700000*%
%TD*%
%TA.AperFunction,ComponentPad*%
%ADD11O,1.700000X1.700000*%
%TD*%
%TA.AperFunction,ComponentPad*%
%ADD12R,1.350000X1.350000*%
%TD*%
%TA.AperFunction,ComponentPad*%
%ADD13O,1.350000X1.350000*%
%TD*%
%TA.AperFunction,ComponentPad*%
%ADD14O,1.800000X1.150000*%
%TD*%
%TA.AperFunction,ComponentPad*%
%ADD15O,2.000000X1.450000*%
%TD*%
%TA.AperFunction,ViaPad*%
%ADD16C,0.600000*%
%TD*%
%TA.AperFunction,Conductor*%
%ADD17C,0.500000*%
%TD*%
G04 APERTURE END LIST*
D10*
%TO.P,J3,1,Pin_1*%
%TO.N,+3.3V*%
X65522000Y-77216000D03*
D11*
%TO.P,J3,2,Pin_2*%
%TO.N,Net-(J3-Pin_2)*%
X62982000Y-77216000D03*
%TO.P,J3,3,Pin_3*%
%TO.N,Net-(J3-Pin_3)*%
X60442000Y-77216000D03*
%TO.P,J3,4,Pin_4*%
%TO.N,GND*%
X57902000Y-77216000D03*
%TD*%
D12*
%TO.P,J4,1,Pin_1*%
%TO.N,+3.3V*%
X62865000Y-110363000D03*
D13*
%TO.P,J4,2,Pin_2*%
%TO.N,Net-(J4-Pin_2)*%
X64865000Y-110363000D03*
%TO.P,J4,3,Pin_3*%
%TO.N,Net-(J4-Pin_3)*%
X66865000Y-110363000D03*
%TO.P,J4,4,Pin_4*%
%TO.N,GND*%
X68865000Y-110363000D03*
%TD*%
D14*
%TO.P,J1,6,Shield*%
%TO.N,unconnected-(J1-Shield-Pad6)*%
X93893000Y-93694000D03*
D15*
X90093000Y-93544000D03*
X90093000Y-86094000D03*
D14*
X93893000Y-85944000D03*
%TD*%
D10*
%TO.P,J2,1,Pin_1*%
%TO.N,+3.3V*%
X80772000Y-77216000D03*
D11*
%TO.P,J2,2,Pin_2*%
%TO.N,Net-(J2-Pin_2)*%
X78232000Y-77216000D03*
%TO.P,J2,3,Pin_3*%
%TO.N,Net-(J2-Pin_3)*%
X75692000Y-77216000D03*
%TO.P,J2,4,Pin_4*%
%TO.N,GND*%
X73152000Y-77216000D03*
%TD*%
D16*
%TO.N,GND*%
X59944000Y-90566000D03*
X59309000Y-87884000D03*
X46355000Y-84328000D03*
X79502000Y-97790000D03*
X64389000Y-100076000D03*
X61087000Y-87376000D03*
X78105000Y-102235000D03*
X74676000Y-89535000D03*
X57404000Y-87757000D03*
X85344000Y-98044000D03*
X54864000Y-93091000D03*
X54864000Y-93091000D03*
X58039000Y-100584000D03*
X64643000Y-92456000D03*
X57912000Y-97536000D03*
X82931000Y-102235000D03*
X78994000Y-102235000D03*
%TO.N,+3.3V*%
X65407000Y-106551000D03*
X63500000Y-106553000D03*
X68580000Y-100711000D03*
X67056000Y-100711000D03*
%TD*%
D17*
%TO.N,+3.3V*%
X65405000Y-106553000D02*
X65407000Y-106551000D01*
X63500000Y-106553000D02*
X65405000Y-106553000D01*
X68580000Y-100711000D02*
X67056000Y-100711000D01*
%TD*%
M02*
