%TF.GenerationSoftware,KiCad,Pcbnew,7.0.10*%
%TF.CreationDate,2024-01-08T00:56:05+00:00*%
%TF.ProjectId,green_storm,67726565-6e5f-4737-946f-726d2e6b6963,0.1*%
%TF.SameCoordinates,Original*%
%TF.FileFunction,Soldermask,Top*%
%TF.FilePolarity,Negative*%
%FSLAX46Y46*%
G04 Gerber Fmt 4.6, Leading zero omitted, Abs format (unit mm)*
G04 Created by KiCad (PCBNEW 7.0.10) date 2024-01-08 00:56:05*
%MOMM*%
%LPD*%
G01*
G04 APERTURE LIST*
G04 Aperture macros list*
%AMRoundRect*
0 Rectangle with rounded corners*
0 $1 Rounding radius*
0 $2 $3 $4 $5 $6 $7 $8 $9 X,Y pos of 4 corners*
0 Add a 4 corners polygon primitive as box body*
4,1,4,$2,$3,$4,$5,$6,$7,$8,$9,$2,$3,0*
0 Add four circle primitives for the rounded corners*
1,1,$1+$1,$2,$3*
1,1,$1+$1,$4,$5*
1,1,$1+$1,$6,$7*
1,1,$1+$1,$8,$9*
0 Add four rect primitives between the rounded corners*
20,1,$1+$1,$2,$3,$4,$5,0*
20,1,$1+$1,$4,$5,$6,$7,0*
20,1,$1+$1,$6,$7,$8,$9,0*
20,1,$1+$1,$8,$9,$2,$3,0*%
G04 Aperture macros list end*
%ADD10R,1.700000X1.700000*%
%ADD11O,1.700000X1.700000*%
%ADD12RoundRect,0.140000X-0.170000X0.140000X-0.170000X-0.140000X0.170000X-0.140000X0.170000X0.140000X0*%
%ADD13RoundRect,0.140000X0.170000X-0.140000X0.170000X0.140000X-0.170000X0.140000X-0.170000X-0.140000X0*%
%ADD14RoundRect,0.218750X-0.256250X0.218750X-0.256250X-0.218750X0.256250X-0.218750X0.256250X0.218750X0*%
%ADD15RoundRect,0.250000X0.475000X-0.250000X0.475000X0.250000X-0.475000X0.250000X-0.475000X-0.250000X0*%
%ADD16RoundRect,0.135000X-0.185000X0.135000X-0.185000X-0.135000X0.185000X-0.135000X0.185000X0.135000X0*%
%ADD17RoundRect,0.140000X0.140000X0.170000X-0.140000X0.170000X-0.140000X-0.170000X0.140000X-0.170000X0*%
%ADD18RoundRect,0.135000X0.185000X-0.135000X0.185000X0.135000X-0.185000X0.135000X-0.185000X-0.135000X0*%
%ADD19RoundRect,0.225000X-0.225000X-0.250000X0.225000X-0.250000X0.225000X0.250000X-0.225000X0.250000X0*%
%ADD20C,2.200000*%
%ADD21RoundRect,0.135000X-0.135000X-0.185000X0.135000X-0.185000X0.135000X0.185000X-0.135000X0.185000X0*%
%ADD22RoundRect,0.250000X-0.250000X-0.475000X0.250000X-0.475000X0.250000X0.475000X-0.250000X0.475000X0*%
%ADD23O,0.800000X0.800000*%
%ADD24R,1.300000X0.450000*%
%ADD25O,1.800000X1.150000*%
%ADD26O,2.000000X1.450000*%
%ADD27RoundRect,0.135000X0.135000X0.185000X-0.135000X0.185000X-0.135000X-0.185000X0.135000X-0.185000X0*%
%ADD28RoundRect,0.075000X-0.662500X-0.075000X0.662500X-0.075000X0.662500X0.075000X-0.662500X0.075000X0*%
%ADD29RoundRect,0.075000X-0.075000X-0.662500X0.075000X-0.662500X0.075000X0.662500X-0.075000X0.662500X0*%
%ADD30RoundRect,0.140000X-0.140000X-0.170000X0.140000X-0.170000X0.140000X0.170000X-0.140000X0.170000X0*%
%ADD31R,1.500000X2.000000*%
%ADD32R,3.800000X2.000000*%
%ADD33R,0.800000X1.000000*%
%ADD34C,0.900000*%
%ADD35R,1.500000X0.700000*%
%ADD36R,1.200000X1.400000*%
G04 APERTURE END LIST*
D10*
%TO.C,J4*%
X62865000Y-110363000D03*
D11*
X65405000Y-110363000D03*
X67945000Y-110363000D03*
X70485000Y-110363000D03*
%TD*%
D12*
%TO.C,C11*%
X64643000Y-98199000D03*
X64643000Y-99159000D03*
%TD*%
D13*
%TO.C,C12*%
X59182000Y-89662000D03*
X59182000Y-88702000D03*
%TD*%
D14*
%TO.C,D1*%
X84836000Y-102692000D03*
X84836000Y-104267000D03*
%TD*%
D15*
%TO.C,C2*%
X81407000Y-104201000D03*
X81407000Y-102301000D03*
%TD*%
D16*
%TO.C,R3*%
X78486000Y-88898000D03*
X78486000Y-89918000D03*
%TD*%
D17*
%TO.C,C5*%
X71092000Y-97663000D03*
X70132000Y-97663000D03*
%TD*%
D18*
%TO.C,R2*%
X49022000Y-84965000D03*
X49022000Y-83945000D03*
%TD*%
D19*
%TO.C,C3*%
X63868000Y-82804000D03*
X65418000Y-82804000D03*
%TD*%
D10*
%TO.C,J3*%
X65522000Y-77216000D03*
D11*
X62982000Y-77216000D03*
X60442000Y-77216000D03*
X57902000Y-77216000D03*
%TD*%
D20*
%TO.C,H2*%
X89916000Y-105000000D03*
%TD*%
D21*
%TO.C,R5*%
X66800000Y-102108000D03*
X67820000Y-102108000D03*
%TD*%
D17*
%TO.C,C10*%
X59436000Y-99822000D03*
X58476000Y-99822000D03*
%TD*%
D20*
%TO.C,H4*%
X48000000Y-80000000D03*
%TD*%
D17*
%TO.C,C9*%
X59436000Y-98298000D03*
X58476000Y-98298000D03*
%TD*%
D22*
%TO.C,C1*%
X76266000Y-98044000D03*
X78166000Y-98044000D03*
%TD*%
D12*
%TO.C,C6*%
X74168000Y-86797000D03*
X74168000Y-87757000D03*
%TD*%
D20*
%TO.C,H1*%
X48000000Y-105000000D03*
%TD*%
D23*
%TO.C,J1*%
X91143000Y-92319000D03*
X91143000Y-87319000D03*
D24*
X90043000Y-91119000D03*
X90043000Y-90469000D03*
X90043000Y-89819000D03*
X90043000Y-89169000D03*
X90043000Y-88519000D03*
D25*
X93893000Y-93694000D03*
D26*
X90093000Y-93544000D03*
X90093000Y-86094000D03*
D25*
X93893000Y-85944000D03*
%TD*%
D10*
%TO.C,J2*%
X80772000Y-77216000D03*
D11*
X78232000Y-77216000D03*
X75692000Y-77216000D03*
X73152000Y-77216000D03*
%TD*%
D27*
%TO.C,R4*%
X65407000Y-102108000D03*
X64387000Y-102108000D03*
%TD*%
D20*
%TO.C,H3*%
X90000000Y-80000000D03*
%TD*%
D28*
%TO.C,U2*%
X62893500Y-88690000D03*
X62893500Y-89190000D03*
X62893500Y-89690000D03*
X62893500Y-90190000D03*
X62893500Y-90690000D03*
X62893500Y-91190000D03*
X62893500Y-91690000D03*
X62893500Y-92190000D03*
X62893500Y-92690000D03*
X62893500Y-93190000D03*
X62893500Y-93690000D03*
X62893500Y-94190000D03*
D29*
X64306000Y-95602500D03*
X64806000Y-95602500D03*
X65306000Y-95602500D03*
X65806000Y-95602500D03*
X66306000Y-95602500D03*
X66806000Y-95602500D03*
X67306000Y-95602500D03*
X67806000Y-95602500D03*
X68306000Y-95602500D03*
X68806000Y-95602500D03*
X69306000Y-95602500D03*
X69806000Y-95602500D03*
D28*
X71218500Y-94190000D03*
X71218500Y-93690000D03*
X71218500Y-93190000D03*
X71218500Y-92690000D03*
X71218500Y-92190000D03*
X71218500Y-91690000D03*
X71218500Y-91190000D03*
X71218500Y-90690000D03*
X71218500Y-90190000D03*
X71218500Y-89690000D03*
X71218500Y-89190000D03*
X71218500Y-88690000D03*
D29*
X69806000Y-87277500D03*
X69306000Y-87277500D03*
X68806000Y-87277500D03*
X68306000Y-87277500D03*
X67806000Y-87277500D03*
X67306000Y-87277500D03*
X66806000Y-87277500D03*
X66306000Y-87277500D03*
X65806000Y-87277500D03*
X65306000Y-87277500D03*
X64806000Y-87277500D03*
X64306000Y-87277500D03*
%TD*%
D13*
%TO.C,C13*%
X59182000Y-91892000D03*
X59182000Y-90932000D03*
%TD*%
D30*
%TO.C,C7*%
X64262000Y-84836000D03*
X65222000Y-84836000D03*
%TD*%
D31*
%TO.C,U1*%
X78627000Y-100609000D03*
X76327000Y-100609000D03*
D32*
X76327000Y-106909000D03*
D31*
X74027000Y-100609000D03*
%TD*%
D14*
%TO.C,FB1*%
X61468000Y-98272500D03*
X61468000Y-99847500D03*
%TD*%
D13*
%TO.C,C8*%
X60960000Y-93162000D03*
X60960000Y-92202000D03*
%TD*%
D33*
%TO.C,SW1*%
X45197000Y-83853000D03*
X42987000Y-83853000D03*
D34*
X44087000Y-86003000D03*
X44087000Y-89003000D03*
D33*
X45197000Y-91153000D03*
X42987000Y-91153000D03*
D35*
X45847000Y-85253000D03*
X45847000Y-88253000D03*
X45847000Y-89753000D03*
%TD*%
D36*
%TO.C,Y1*%
X55538000Y-89324000D03*
X55538000Y-91524000D03*
X57238000Y-91524000D03*
X57238000Y-89324000D03*
%TD*%
D18*
%TO.C,R1*%
X85090000Y-100078000D03*
X85090000Y-99058000D03*
%TD*%
D13*
%TO.C,C4*%
X60960000Y-89126000D03*
X60960000Y-88166000D03*
%TD*%
M02*
