%TF.GenerationSoftware,KiCad,Pcbnew,7.0.10*%
%TF.CreationDate,2024-01-08T00:56:05+00:00*%
%TF.ProjectId,green_storm,67726565-6e5f-4737-946f-726d2e6b6963,0.1*%
%TF.SameCoordinates,Original*%
%TF.FileFunction,Copper,L2,Bot*%
%TF.FilePolarity,Positive*%
%FSLAX46Y46*%
G04 Gerber Fmt 4.6, Leading zero omitted, Abs format (unit mm)*
G04 Created by KiCad (PCBNEW 7.0.10) date 2024-01-08 00:56:05*
%MOMM*%
%LPD*%
G01*
G04 APERTURE LIST*
%TA.AperFunction,ComponentPad*%
%ADD10R,1.700000X1.700000*%
%TD*%
%TA.AperFunction,ComponentPad*%
%ADD11O,1.700000X1.700000*%
%TD*%
%TA.AperFunction,ComponentPad*%
%ADD12O,1.800000X1.150000*%
%TD*%
%TA.AperFunction,ComponentPad*%
%ADD13O,2.000000X1.450000*%
%TD*%
%TA.AperFunction,ViaPad*%
%ADD14C,0.700000*%
%TD*%
%TA.AperFunction,Conductor*%
%ADD15C,0.500000*%
%TD*%
G04 APERTURE END LIST*
D10*
%TO.P,J4,1,Pin_1*%
%TO.N,+3.3V*%
X62865000Y-110363000D03*
D11*
%TO.P,J4,2,Pin_2*%
%TO.N,Net-(J4-Pin_2)*%
X65405000Y-110363000D03*
%TO.P,J4,3,Pin_3*%
%TO.N,Net-(J4-Pin_3)*%
X67945000Y-110363000D03*
%TO.P,J4,4,Pin_4*%
%TO.N,GND*%
X70485000Y-110363000D03*
%TD*%
D10*
%TO.P,J3,1,Pin_1*%
%TO.N,+3.3V*%
X65522000Y-77216000D03*
D11*
%TO.P,J3,2,Pin_2*%
%TO.N,Net-(J3-Pin_2)*%
X62982000Y-77216000D03*
%TO.P,J3,3,Pin_3*%
%TO.N,Net-(J3-Pin_3)*%
X60442000Y-77216000D03*
%TO.P,J3,4,Pin_4*%
%TO.N,GND*%
X57902000Y-77216000D03*
%TD*%
D12*
%TO.P,J1,6,Shield*%
%TO.N,GND*%
X93893000Y-93694000D03*
D13*
X90093000Y-93544000D03*
X90093000Y-86094000D03*
D12*
X93893000Y-85944000D03*
%TD*%
D10*
%TO.P,J2,1,Pin_1*%
%TO.N,+3.3V*%
X80772000Y-77216000D03*
D11*
%TO.P,J2,2,Pin_2*%
%TO.N,Net-(J2-Pin_2)*%
X78232000Y-77216000D03*
%TO.P,J2,3,Pin_3*%
%TO.N,Net-(J2-Pin_3)*%
X75692000Y-77216000D03*
%TO.P,J2,4,Pin_4*%
%TO.N,GND*%
X73152000Y-77216000D03*
%TD*%
D14*
%TO.N,GND*%
X69596000Y-108331000D03*
X88265000Y-85598000D03*
X59944000Y-90566000D03*
X59309000Y-87884000D03*
X46355000Y-84328000D03*
X79502000Y-97790000D03*
X64389000Y-100076000D03*
X61087000Y-87376000D03*
X78105000Y-102235000D03*
X69977000Y-98425000D03*
X57404000Y-87757000D03*
X54864000Y-93091000D03*
X94361000Y-91948000D03*
X85344000Y-98044000D03*
X89027000Y-88138000D03*
X58039000Y-100584000D03*
X74930000Y-88011000D03*
X64643000Y-92456000D03*
X57912000Y-97536000D03*
X65024000Y-88646000D03*
X94107000Y-87249000D03*
X82931000Y-102235000D03*
X78994000Y-102235000D03*
X88011000Y-93980000D03*
%TO.N,+3.3V*%
X65407000Y-106551000D03*
X63500000Y-106553000D03*
X68580000Y-100711000D03*
X67056000Y-100711000D03*
%TD*%
D15*
%TO.N,+3.3V*%
X65405000Y-106553000D02*
X65407000Y-106551000D01*
X63500000Y-106553000D02*
X65405000Y-106553000D01*
X68580000Y-100711000D02*
X67056000Y-100711000D01*
%TD*%
%TA.AperFunction,Conductor*%
%TO.N,GND*%
G36*
X95954539Y-74020185D02*
G01*
X96000294Y-74072989D01*
X96011500Y-74124500D01*
X96011500Y-111889466D01*
X95991815Y-111956505D01*
X95939011Y-112002260D01*
X95887468Y-112013466D01*
X42160968Y-111999541D01*
X42093934Y-111979839D01*
X42048192Y-111927023D01*
X42037000Y-111875541D01*
X42037000Y-111257856D01*
X61714500Y-111257856D01*
X61714502Y-111257882D01*
X61717413Y-111282987D01*
X61717415Y-111282991D01*
X61762793Y-111385764D01*
X61762794Y-111385765D01*
X61842235Y-111465206D01*
X61945009Y-111510585D01*
X61970135Y-111513500D01*
X63759864Y-111513499D01*
X63759879Y-111513497D01*
X63759882Y-111513497D01*
X63784987Y-111510586D01*
X63784988Y-111510585D01*
X63784991Y-111510585D01*
X63887765Y-111465206D01*
X63967206Y-111385765D01*
X64012585Y-111282991D01*
X64015500Y-111257865D01*
X64015499Y-110519046D01*
X64035183Y-110452009D01*
X64087987Y-110406254D01*
X64157146Y-110396310D01*
X64220702Y-110425335D01*
X64258476Y-110484113D01*
X64262970Y-110507606D01*
X64269244Y-110575310D01*
X64327596Y-110780392D01*
X64327596Y-110780394D01*
X64422632Y-110971253D01*
X64551127Y-111141406D01*
X64551128Y-111141407D01*
X64708698Y-111285052D01*
X64889981Y-111397298D01*
X65088802Y-111474321D01*
X65298390Y-111513500D01*
X65298392Y-111513500D01*
X65511608Y-111513500D01*
X65511610Y-111513500D01*
X65721198Y-111474321D01*
X65920019Y-111397298D01*
X66101302Y-111285052D01*
X66258872Y-111141407D01*
X66387366Y-110971255D01*
X66441270Y-110863000D01*
X66482403Y-110780394D01*
X66482403Y-110780393D01*
X66482405Y-110780389D01*
X66540756Y-110575310D01*
X66551529Y-110459047D01*
X66577315Y-110394111D01*
X66619622Y-110363804D01*
X66728130Y-110363804D01*
X66764503Y-110384668D01*
X66796693Y-110446681D01*
X66798471Y-110459048D01*
X66809244Y-110575310D01*
X66867596Y-110780392D01*
X66867596Y-110780394D01*
X66962632Y-110971253D01*
X67091127Y-111141406D01*
X67091128Y-111141407D01*
X67248698Y-111285052D01*
X67429981Y-111397298D01*
X67628802Y-111474321D01*
X67838390Y-111513500D01*
X67838392Y-111513500D01*
X68051608Y-111513500D01*
X68051610Y-111513500D01*
X68261198Y-111474321D01*
X68460019Y-111397298D01*
X68641302Y-111285052D01*
X68798872Y-111141407D01*
X68927366Y-110971255D01*
X68994325Y-110836781D01*
X69041825Y-110785548D01*
X69109488Y-110768126D01*
X69175828Y-110790051D01*
X69217705Y-110839651D01*
X69311399Y-111040578D01*
X69446894Y-111234082D01*
X69613917Y-111401105D01*
X69807421Y-111536600D01*
X70021507Y-111636429D01*
X70021516Y-111636433D01*
X70235000Y-111693634D01*
X70235000Y-110798501D01*
X70342685Y-110847680D01*
X70449237Y-110863000D01*
X70520763Y-110863000D01*
X70627315Y-110847680D01*
X70735000Y-110798501D01*
X70735000Y-111693633D01*
X70948483Y-111636433D01*
X70948492Y-111636429D01*
X71162578Y-111536600D01*
X71356082Y-111401105D01*
X71523105Y-111234082D01*
X71658600Y-111040578D01*
X71758429Y-110826492D01*
X71758432Y-110826486D01*
X71815636Y-110613000D01*
X70918686Y-110613000D01*
X70944493Y-110572844D01*
X70985000Y-110434889D01*
X70985000Y-110291111D01*
X70944493Y-110153156D01*
X70918686Y-110113000D01*
X71815636Y-110113000D01*
X71815635Y-110112999D01*
X71758432Y-109899513D01*
X71758429Y-109899507D01*
X71658600Y-109685422D01*
X71658599Y-109685420D01*
X71523113Y-109491926D01*
X71523108Y-109491920D01*
X71356082Y-109324894D01*
X71162578Y-109189399D01*
X70948492Y-109089570D01*
X70948486Y-109089567D01*
X70735000Y-109032364D01*
X70735000Y-109927498D01*
X70627315Y-109878320D01*
X70520763Y-109863000D01*
X70449237Y-109863000D01*
X70342685Y-109878320D01*
X70235000Y-109927498D01*
X70235000Y-109032364D01*
X70234999Y-109032364D01*
X70021513Y-109089567D01*
X70021507Y-109089570D01*
X69807422Y-109189399D01*
X69807420Y-109189400D01*
X69613926Y-109324886D01*
X69613920Y-109324891D01*
X69446891Y-109491920D01*
X69446886Y-109491926D01*
X69311400Y-109685420D01*
X69311399Y-109685422D01*
X69217705Y-109886348D01*
X69171532Y-109938787D01*
X69104339Y-109957939D01*
X69037457Y-109937723D01*
X68994324Y-109889216D01*
X68927366Y-109754745D01*
X68798872Y-109584593D01*
X68641302Y-109440948D01*
X68460019Y-109328702D01*
X68460017Y-109328701D01*
X68360608Y-109290190D01*
X68261198Y-109251679D01*
X68051610Y-109212500D01*
X67838390Y-109212500D01*
X67628802Y-109251679D01*
X67628799Y-109251679D01*
X67628799Y-109251680D01*
X67429982Y-109328701D01*
X67429980Y-109328702D01*
X67248699Y-109440947D01*
X67091127Y-109584593D01*
X66962632Y-109754746D01*
X66867596Y-109945605D01*
X66867596Y-109945607D01*
X66809244Y-110150689D01*
X66798471Y-110266951D01*
X66772685Y-110331888D01*
X66728130Y-110363804D01*
X66619622Y-110363804D01*
X66621869Y-110362194D01*
X66585497Y-110341331D01*
X66553307Y-110279318D01*
X66551529Y-110266951D01*
X66548175Y-110230759D01*
X66540756Y-110150690D01*
X66482405Y-109945611D01*
X66482403Y-109945606D01*
X66482403Y-109945605D01*
X66387367Y-109754746D01*
X66258872Y-109584593D01*
X66101302Y-109440948D01*
X65920019Y-109328702D01*
X65920017Y-109328701D01*
X65820608Y-109290190D01*
X65721198Y-109251679D01*
X65511610Y-109212500D01*
X65298390Y-109212500D01*
X65088802Y-109251679D01*
X65088799Y-109251679D01*
X65088799Y-109251680D01*
X64889982Y-109328701D01*
X64889980Y-109328702D01*
X64708699Y-109440947D01*
X64551127Y-109584593D01*
X64422632Y-109754746D01*
X64327596Y-109945605D01*
X64327596Y-109945607D01*
X64269244Y-110150689D01*
X64262970Y-110218394D01*
X64237183Y-110283331D01*
X64180383Y-110324018D01*
X64110602Y-110327538D01*
X64049995Y-110292772D01*
X64017806Y-110230759D01*
X64015499Y-110206952D01*
X64015499Y-109468143D01*
X64015499Y-109468136D01*
X64015497Y-109468117D01*
X64012586Y-109443012D01*
X64012585Y-109443010D01*
X64012585Y-109443009D01*
X63967206Y-109340235D01*
X63887765Y-109260794D01*
X63867124Y-109251680D01*
X63784992Y-109215415D01*
X63759865Y-109212500D01*
X61970143Y-109212500D01*
X61970117Y-109212502D01*
X61945012Y-109215413D01*
X61945008Y-109215415D01*
X61842235Y-109260793D01*
X61762794Y-109340234D01*
X61717415Y-109443006D01*
X61717415Y-109443008D01*
X61714500Y-109468131D01*
X61714500Y-111257856D01*
X42037000Y-111257856D01*
X42037000Y-106553000D01*
X62844722Y-106553000D01*
X62863762Y-106709818D01*
X62919022Y-106855524D01*
X62919780Y-106857523D01*
X63009517Y-106987530D01*
X63127760Y-107092283D01*
X63127762Y-107092284D01*
X63267634Y-107165696D01*
X63421014Y-107203500D01*
X63421015Y-107203500D01*
X63578985Y-107203500D01*
X63732365Y-107165696D01*
X63823805Y-107117703D01*
X63881431Y-107103500D01*
X65029380Y-107103500D01*
X65087005Y-107117703D01*
X65174635Y-107163696D01*
X65251325Y-107182598D01*
X65328014Y-107201500D01*
X65328015Y-107201500D01*
X65485985Y-107201500D01*
X65639365Y-107163696D01*
X65754057Y-107103500D01*
X65779240Y-107090283D01*
X65897483Y-106985530D01*
X65987220Y-106855523D01*
X66043237Y-106707818D01*
X66062278Y-106551000D01*
X66043237Y-106394182D01*
X65987220Y-106246477D01*
X65897483Y-106116470D01*
X65779240Y-106011717D01*
X65779238Y-106011716D01*
X65779237Y-106011715D01*
X65639365Y-105938303D01*
X65485986Y-105900500D01*
X65485985Y-105900500D01*
X65328015Y-105900500D01*
X65328014Y-105900500D01*
X65174636Y-105938303D01*
X65174635Y-105938303D01*
X65079384Y-105988296D01*
X65021758Y-106002500D01*
X63881431Y-106002500D01*
X63823805Y-105988296D01*
X63732365Y-105940304D01*
X63732364Y-105940303D01*
X63732363Y-105940303D01*
X63578986Y-105902500D01*
X63578985Y-105902500D01*
X63421015Y-105902500D01*
X63421014Y-105902500D01*
X63267634Y-105940303D01*
X63127762Y-106013715D01*
X63127760Y-106013717D01*
X63011774Y-106116471D01*
X63009516Y-106118471D01*
X62919781Y-106248475D01*
X62919780Y-106248476D01*
X62863762Y-106396181D01*
X62844722Y-106552999D01*
X62844722Y-106553000D01*
X42037000Y-106553000D01*
X42037000Y-105000000D01*
X46644341Y-105000000D01*
X46664936Y-105235403D01*
X46664938Y-105235413D01*
X46726094Y-105463655D01*
X46726096Y-105463659D01*
X46726097Y-105463663D01*
X46776031Y-105570746D01*
X46825964Y-105677828D01*
X46825965Y-105677830D01*
X46961505Y-105871402D01*
X47128597Y-106038494D01*
X47322169Y-106174034D01*
X47322171Y-106174035D01*
X47536337Y-106273903D01*
X47764592Y-106335063D01*
X47941032Y-106350499D01*
X47941033Y-106350500D01*
X47941034Y-106350500D01*
X48058967Y-106350500D01*
X48058967Y-106350499D01*
X48235408Y-106335063D01*
X48463663Y-106273903D01*
X48677829Y-106174035D01*
X48871401Y-106038495D01*
X49038495Y-105871401D01*
X49174035Y-105677830D01*
X49273903Y-105463663D01*
X49335063Y-105235408D01*
X49355659Y-105000000D01*
X88560341Y-105000000D01*
X88580936Y-105235403D01*
X88580938Y-105235413D01*
X88642094Y-105463655D01*
X88642096Y-105463659D01*
X88642097Y-105463663D01*
X88692031Y-105570746D01*
X88741964Y-105677828D01*
X88741965Y-105677830D01*
X88877505Y-105871402D01*
X89044597Y-106038494D01*
X89238169Y-106174034D01*
X89238171Y-106174035D01*
X89452337Y-106273903D01*
X89680592Y-106335063D01*
X89857032Y-106350499D01*
X89857033Y-106350500D01*
X89857034Y-106350500D01*
X89974967Y-106350500D01*
X89974967Y-106350499D01*
X90151408Y-106335063D01*
X90379663Y-106273903D01*
X90593829Y-106174035D01*
X90787401Y-106038495D01*
X90954495Y-105871401D01*
X91090035Y-105677830D01*
X91189903Y-105463663D01*
X91251063Y-105235408D01*
X91271659Y-105000000D01*
X91251063Y-104764592D01*
X91189903Y-104536337D01*
X91090035Y-104322171D01*
X91090034Y-104322169D01*
X90954494Y-104128597D01*
X90787402Y-103961505D01*
X90593830Y-103825965D01*
X90593828Y-103825964D01*
X90486746Y-103776031D01*
X90379663Y-103726097D01*
X90379659Y-103726096D01*
X90379655Y-103726094D01*
X90151413Y-103664938D01*
X90151403Y-103664936D01*
X89974967Y-103649500D01*
X89974966Y-103649500D01*
X89857034Y-103649500D01*
X89857033Y-103649500D01*
X89680596Y-103664936D01*
X89680586Y-103664938D01*
X89452344Y-103726094D01*
X89452335Y-103726098D01*
X89238171Y-103825964D01*
X89238169Y-103825965D01*
X89044597Y-103961505D01*
X88877506Y-104128597D01*
X88877501Y-104128604D01*
X88741967Y-104322165D01*
X88741965Y-104322169D01*
X88642098Y-104536335D01*
X88642094Y-104536344D01*
X88580938Y-104764586D01*
X88580936Y-104764596D01*
X88560341Y-104999999D01*
X88560341Y-105000000D01*
X49355659Y-105000000D01*
X49335063Y-104764592D01*
X49273903Y-104536337D01*
X49174035Y-104322171D01*
X49174034Y-104322169D01*
X49038494Y-104128597D01*
X48871402Y-103961505D01*
X48677830Y-103825965D01*
X48677828Y-103825964D01*
X48570746Y-103776031D01*
X48463663Y-103726097D01*
X48463659Y-103726096D01*
X48463655Y-103726094D01*
X48235413Y-103664938D01*
X48235403Y-103664936D01*
X48058967Y-103649500D01*
X48058966Y-103649500D01*
X47941034Y-103649500D01*
X47941033Y-103649500D01*
X47764596Y-103664936D01*
X47764586Y-103664938D01*
X47536344Y-103726094D01*
X47536335Y-103726098D01*
X47322171Y-103825964D01*
X47322169Y-103825965D01*
X47128597Y-103961505D01*
X46961506Y-104128597D01*
X46961501Y-104128604D01*
X46825967Y-104322165D01*
X46825965Y-104322169D01*
X46726098Y-104536335D01*
X46726094Y-104536344D01*
X46664938Y-104764586D01*
X46664936Y-104764596D01*
X46644341Y-104999999D01*
X46644341Y-105000000D01*
X42037000Y-105000000D01*
X42037000Y-100711000D01*
X66400722Y-100711000D01*
X66419762Y-100867818D01*
X66475780Y-101015523D01*
X66565517Y-101145530D01*
X66683760Y-101250283D01*
X66683762Y-101250284D01*
X66823634Y-101323696D01*
X66977014Y-101361500D01*
X66977015Y-101361500D01*
X67134985Y-101361500D01*
X67288365Y-101323696D01*
X67379805Y-101275703D01*
X67437431Y-101261500D01*
X68198569Y-101261500D01*
X68256194Y-101275703D01*
X68347635Y-101323696D01*
X68424325Y-101342598D01*
X68501014Y-101361500D01*
X68501015Y-101361500D01*
X68658985Y-101361500D01*
X68812365Y-101323696D01*
X68952240Y-101250283D01*
X69070483Y-101145530D01*
X69160220Y-101015523D01*
X69216237Y-100867818D01*
X69235278Y-100711000D01*
X69216237Y-100554182D01*
X69160220Y-100406477D01*
X69070483Y-100276470D01*
X68952240Y-100171717D01*
X68952238Y-100171716D01*
X68952237Y-100171715D01*
X68812365Y-100098303D01*
X68658986Y-100060500D01*
X68658985Y-100060500D01*
X68501015Y-100060500D01*
X68501014Y-100060500D01*
X68347636Y-100098303D01*
X68301763Y-100122379D01*
X68256194Y-100146296D01*
X68198569Y-100160500D01*
X67437431Y-100160500D01*
X67379805Y-100146296D01*
X67288365Y-100098304D01*
X67288364Y-100098303D01*
X67288363Y-100098303D01*
X67134986Y-100060500D01*
X67134985Y-100060500D01*
X66977015Y-100060500D01*
X66977014Y-100060500D01*
X66823634Y-100098303D01*
X66683762Y-100171715D01*
X66565516Y-100276471D01*
X66475781Y-100406475D01*
X66475780Y-100406476D01*
X66419762Y-100554181D01*
X66400722Y-100710999D01*
X66400722Y-100711000D01*
X42037000Y-100711000D01*
X42037000Y-93794000D01*
X88615678Y-93794000D01*
X88618887Y-93817693D01*
X88687025Y-94027401D01*
X88791514Y-94221573D01*
X88791516Y-94221576D01*
X88928995Y-94393970D01*
X89095052Y-94539050D01*
X89095054Y-94539052D01*
X89284337Y-94652144D01*
X89284345Y-94652148D01*
X89490787Y-94729627D01*
X89707744Y-94769000D01*
X89843000Y-94769000D01*
X89843000Y-93969000D01*
X90343000Y-93969000D01*
X90343000Y-94769000D01*
X90423004Y-94769000D01*
X90423006Y-94768999D01*
X90587617Y-94754185D01*
X90800162Y-94695527D01*
X90800177Y-94695521D01*
X90998834Y-94599853D01*
X90998841Y-94599849D01*
X91177226Y-94470245D01*
X91177234Y-94470239D01*
X91329612Y-94310863D01*
X91451090Y-94126833D01*
X91537750Y-93924083D01*
X91537753Y-93924072D01*
X91567442Y-93794000D01*
X90717607Y-93794000D01*
X90777238Y-93676969D01*
X90798298Y-93544000D01*
X90782460Y-93444000D01*
X92517889Y-93444000D01*
X93447163Y-93444000D01*
X93369736Y-93495736D01*
X93308955Y-93586700D01*
X93287612Y-93694000D01*
X93308955Y-93801300D01*
X93369736Y-93892264D01*
X93447163Y-93944000D01*
X92522468Y-93944000D01*
X92547503Y-94047195D01*
X92632787Y-94233943D01*
X92632789Y-94233947D01*
X92751870Y-94401173D01*
X92751875Y-94401179D01*
X92900456Y-94542851D01*
X93073165Y-94653844D01*
X93263761Y-94730147D01*
X93465349Y-94769000D01*
X93643000Y-94769000D01*
X93643000Y-93969000D01*
X94143000Y-93969000D01*
X94143000Y-94769000D01*
X94269205Y-94769000D01*
X94422370Y-94754374D01*
X94422374Y-94754373D01*
X94619351Y-94696536D01*
X94801837Y-94602458D01*
X94963206Y-94475555D01*
X94963209Y-94475551D01*
X95097654Y-94320395D01*
X95200300Y-94142606D01*
X95267449Y-93948595D01*
X95268111Y-93944000D01*
X94338837Y-93944000D01*
X94416264Y-93892264D01*
X94477045Y-93801300D01*
X94498388Y-93694000D01*
X94477045Y-93586700D01*
X94416264Y-93495736D01*
X94338837Y-93444000D01*
X95263532Y-93444000D01*
X95263531Y-93443999D01*
X95238496Y-93340804D01*
X95153212Y-93154056D01*
X95153210Y-93154052D01*
X95034129Y-92986826D01*
X95034124Y-92986820D01*
X94885543Y-92845148D01*
X94712834Y-92734155D01*
X94522238Y-92657852D01*
X94320651Y-92619000D01*
X94143000Y-92619000D01*
X94143000Y-93419000D01*
X93643000Y-93419000D01*
X93643000Y-92619000D01*
X93516795Y-92619000D01*
X93363629Y-92633625D01*
X93363625Y-92633626D01*
X93166648Y-92691463D01*
X92984162Y-92785541D01*
X92822793Y-92912444D01*
X92822790Y-92912448D01*
X92688345Y-93067604D01*
X92585699Y-93245393D01*
X92518550Y-93439404D01*
X92517889Y-93444000D01*
X90782460Y-93444000D01*
X90777238Y-93411031D01*
X90717607Y-93294000D01*
X91570322Y-93294000D01*
X91570322Y-93293999D01*
X91567112Y-93270306D01*
X91498975Y-93060601D01*
X91496788Y-93055485D01*
X91498720Y-93054659D01*
X91486174Y-92995307D01*
X91510976Y-92929987D01*
X91539369Y-92902828D01*
X91543845Y-92899737D01*
X91543852Y-92899734D01*
X91570195Y-92876395D01*
X91581960Y-92867178D01*
X91610929Y-92847183D01*
X91634264Y-92820841D01*
X91644841Y-92810264D01*
X91671183Y-92786929D01*
X91691178Y-92757960D01*
X91700395Y-92746195D01*
X91723734Y-92719852D01*
X91740087Y-92688692D01*
X91747827Y-92675890D01*
X91767818Y-92646930D01*
X91780297Y-92614022D01*
X91786437Y-92600380D01*
X91802790Y-92569225D01*
X91811209Y-92535065D01*
X91815664Y-92520767D01*
X91828140Y-92487872D01*
X91832380Y-92452942D01*
X91835077Y-92438223D01*
X91843500Y-92404056D01*
X91843500Y-92368873D01*
X91844404Y-92353926D01*
X91846846Y-92333814D01*
X91848645Y-92319000D01*
X91844404Y-92284071D01*
X91843500Y-92269125D01*
X91843500Y-92233943D01*
X91835080Y-92199786D01*
X91832380Y-92185052D01*
X91828140Y-92150130D01*
X91828140Y-92150128D01*
X91815659Y-92117218D01*
X91811209Y-92102934D01*
X91802791Y-92068778D01*
X91802790Y-92068777D01*
X91802790Y-92068775D01*
X91786432Y-92037609D01*
X91780299Y-92023982D01*
X91767818Y-91991070D01*
X91747819Y-91962098D01*
X91740081Y-91949295D01*
X91723736Y-91918151D01*
X91723731Y-91918144D01*
X91700405Y-91891814D01*
X91691171Y-91880028D01*
X91671185Y-91851073D01*
X91671183Y-91851071D01*
X91644842Y-91827735D01*
X91634258Y-91817150D01*
X91610933Y-91790821D01*
X91610927Y-91790816D01*
X91610926Y-91790815D01*
X91610924Y-91790813D01*
X91581964Y-91770822D01*
X91570182Y-91761592D01*
X91543852Y-91738266D01*
X91543849Y-91738264D01*
X91543847Y-91738263D01*
X91512705Y-91721918D01*
X91499890Y-91714171D01*
X91470934Y-91694183D01*
X91470931Y-91694182D01*
X91438026Y-91681702D01*
X91424377Y-91675559D01*
X91393225Y-91659210D01*
X91393221Y-91659208D01*
X91359066Y-91650790D01*
X91344774Y-91646337D01*
X91311876Y-91633861D01*
X91311869Y-91633859D01*
X91276942Y-91629618D01*
X91262218Y-91626919D01*
X91228059Y-91618500D01*
X91228056Y-91618500D01*
X91057944Y-91618500D01*
X91034962Y-91624164D01*
X91023780Y-91626920D01*
X91009058Y-91629618D01*
X90974126Y-91633860D01*
X90941226Y-91646336D01*
X90926941Y-91650788D01*
X90892774Y-91659210D01*
X90892771Y-91659211D01*
X90861611Y-91675564D01*
X90847966Y-91681704D01*
X90815072Y-91694180D01*
X90815069Y-91694181D01*
X90786109Y-91714171D01*
X90773301Y-91721914D01*
X90742149Y-91738264D01*
X90715808Y-91761599D01*
X90704029Y-91770827D01*
X90675072Y-91790815D01*
X90675071Y-91790816D01*
X90651737Y-91817154D01*
X90641154Y-91827737D01*
X90614816Y-91851071D01*
X90614815Y-91851072D01*
X90594827Y-91880029D01*
X90585599Y-91891808D01*
X90562264Y-91918149D01*
X90545914Y-91949301D01*
X90538171Y-91962109D01*
X90518181Y-91991069D01*
X90518180Y-91991072D01*
X90505704Y-92023966D01*
X90499564Y-92037611D01*
X90483211Y-92068771D01*
X90483210Y-92068774D01*
X90474788Y-92102941D01*
X90470336Y-92117226D01*
X90457860Y-92150126D01*
X90453618Y-92185058D01*
X90450920Y-92199777D01*
X90444786Y-92224669D01*
X90409633Y-92285051D01*
X90347415Y-92316843D01*
X90344923Y-92317076D01*
X90343000Y-92319000D01*
X90343000Y-93119000D01*
X89843000Y-93119000D01*
X89843000Y-92319000D01*
X89762993Y-92319000D01*
X89598382Y-92333814D01*
X89385837Y-92392472D01*
X89385822Y-92392478D01*
X89187165Y-92488146D01*
X89187158Y-92488150D01*
X89008773Y-92617754D01*
X89008765Y-92617760D01*
X88856387Y-92777136D01*
X88734909Y-92961166D01*
X88648249Y-93163916D01*
X88648246Y-93163927D01*
X88618557Y-93293999D01*
X88618558Y-93294000D01*
X89468393Y-93294000D01*
X89408762Y-93411031D01*
X89387702Y-93544000D01*
X89408762Y-93676969D01*
X89468393Y-93794000D01*
X88615678Y-93794000D01*
X42037000Y-93794000D01*
X42037000Y-89088055D01*
X43386500Y-89088055D01*
X43427210Y-89253226D01*
X43506263Y-89403849D01*
X43506266Y-89403852D01*
X43619071Y-89531183D01*
X43709318Y-89593476D01*
X43759068Y-89627817D01*
X43759069Y-89627817D01*
X43759070Y-89627818D01*
X43918128Y-89688140D01*
X43994028Y-89697356D01*
X44044626Y-89703500D01*
X44044628Y-89703500D01*
X44129374Y-89703500D01*
X44171538Y-89698380D01*
X44255872Y-89688140D01*
X44414930Y-89627818D01*
X44554929Y-89531183D01*
X44667734Y-89403852D01*
X44746790Y-89253225D01*
X44787500Y-89088056D01*
X44787500Y-88917944D01*
X44746790Y-88752775D01*
X44746789Y-88752773D01*
X44667736Y-88602150D01*
X44648560Y-88580505D01*
X44554929Y-88474817D01*
X44505177Y-88440475D01*
X44414931Y-88378182D01*
X44255874Y-88317860D01*
X44255868Y-88317859D01*
X44129374Y-88302500D01*
X44129372Y-88302500D01*
X44044628Y-88302500D01*
X44044626Y-88302500D01*
X43918131Y-88317859D01*
X43918125Y-88317860D01*
X43759068Y-88378182D01*
X43619072Y-88474816D01*
X43506263Y-88602150D01*
X43427210Y-88752773D01*
X43386500Y-88917944D01*
X43386500Y-89088055D01*
X42037000Y-89088055D01*
X42037000Y-86088055D01*
X43386500Y-86088055D01*
X43427210Y-86253226D01*
X43506263Y-86403849D01*
X43506266Y-86403852D01*
X43619071Y-86531183D01*
X43709318Y-86593476D01*
X43759068Y-86627817D01*
X43759069Y-86627817D01*
X43759070Y-86627818D01*
X43918128Y-86688140D01*
X43994028Y-86697356D01*
X44044626Y-86703500D01*
X44044628Y-86703500D01*
X44129374Y-86703500D01*
X44171538Y-86698380D01*
X44255872Y-86688140D01*
X44414930Y-86627818D01*
X44554929Y-86531183D01*
X44667734Y-86403852D01*
X44673637Y-86392606D01*
X44699146Y-86344000D01*
X88615678Y-86344000D01*
X88618887Y-86367693D01*
X88687025Y-86577401D01*
X88791514Y-86771573D01*
X88791516Y-86771576D01*
X88928995Y-86943970D01*
X89095052Y-87089050D01*
X89095054Y-87089052D01*
X89284337Y-87202144D01*
X89284345Y-87202148D01*
X89490787Y-87279627D01*
X89707744Y-87319000D01*
X89843000Y-87319000D01*
X89843000Y-86519000D01*
X90343000Y-86519000D01*
X90343000Y-87319000D01*
X90350736Y-87326736D01*
X90391427Y-87338685D01*
X90437182Y-87391489D01*
X90444786Y-87413330D01*
X90450920Y-87438221D01*
X90453618Y-87452942D01*
X90457859Y-87487869D01*
X90457861Y-87487876D01*
X90470337Y-87520774D01*
X90474790Y-87535066D01*
X90483208Y-87569221D01*
X90483210Y-87569225D01*
X90499559Y-87600377D01*
X90505702Y-87614026D01*
X90518182Y-87646931D01*
X90518183Y-87646934D01*
X90538171Y-87675890D01*
X90545918Y-87688705D01*
X90545919Y-87688706D01*
X90562266Y-87719852D01*
X90585592Y-87746182D01*
X90594822Y-87757964D01*
X90614813Y-87786924D01*
X90614821Y-87786933D01*
X90641150Y-87810258D01*
X90651735Y-87820842D01*
X90675069Y-87847181D01*
X90675073Y-87847185D01*
X90704028Y-87867171D01*
X90715814Y-87876405D01*
X90742144Y-87899731D01*
X90742151Y-87899736D01*
X90773295Y-87916081D01*
X90786098Y-87923819D01*
X90815070Y-87943818D01*
X90847982Y-87956299D01*
X90861609Y-87962432D01*
X90892775Y-87978790D01*
X90892779Y-87978791D01*
X90892777Y-87978791D01*
X90916909Y-87984738D01*
X90926937Y-87987210D01*
X90941218Y-87991659D01*
X90974128Y-88004140D01*
X91009052Y-88008380D01*
X91023779Y-88011078D01*
X91045211Y-88016361D01*
X91057943Y-88019500D01*
X91057944Y-88019500D01*
X91228058Y-88019500D01*
X91242117Y-88016034D01*
X91262223Y-88011077D01*
X91276942Y-88008380D01*
X91311872Y-88004140D01*
X91344772Y-87991662D01*
X91359066Y-87987209D01*
X91393225Y-87978790D01*
X91424380Y-87962437D01*
X91438022Y-87956297D01*
X91470930Y-87943818D01*
X91499890Y-87923827D01*
X91512692Y-87916087D01*
X91543852Y-87899734D01*
X91570195Y-87876395D01*
X91581960Y-87867178D01*
X91610929Y-87847183D01*
X91634264Y-87820841D01*
X91644841Y-87810264D01*
X91671183Y-87786929D01*
X91691178Y-87757960D01*
X91700395Y-87746195D01*
X91723734Y-87719852D01*
X91740087Y-87688692D01*
X91747827Y-87675890D01*
X91767818Y-87646930D01*
X91780297Y-87614022D01*
X91786437Y-87600380D01*
X91802790Y-87569225D01*
X91811209Y-87535065D01*
X91815664Y-87520767D01*
X91828138Y-87487876D01*
X91828140Y-87487872D01*
X91832380Y-87452942D01*
X91835078Y-87438221D01*
X91843500Y-87404056D01*
X91843500Y-87368873D01*
X91844404Y-87353926D01*
X91848645Y-87319000D01*
X91844404Y-87284071D01*
X91843500Y-87269125D01*
X91843500Y-87233943D01*
X91840361Y-87221211D01*
X91835078Y-87199779D01*
X91832380Y-87185052D01*
X91828140Y-87150130D01*
X91828140Y-87150128D01*
X91815659Y-87117218D01*
X91811209Y-87102934D01*
X91802791Y-87068778D01*
X91802790Y-87068777D01*
X91802790Y-87068775D01*
X91786432Y-87037609D01*
X91780299Y-87023982D01*
X91767818Y-86991070D01*
X91747819Y-86962098D01*
X91740081Y-86949295D01*
X91723736Y-86918151D01*
X91723731Y-86918144D01*
X91700405Y-86891814D01*
X91691171Y-86880028D01*
X91671185Y-86851073D01*
X91671183Y-86851071D01*
X91644842Y-86827735D01*
X91634258Y-86817150D01*
X91610933Y-86790821D01*
X91610924Y-86790813D01*
X91581964Y-86770822D01*
X91570182Y-86761592D01*
X91543852Y-86738266D01*
X91543849Y-86738264D01*
X91537680Y-86734006D01*
X91539157Y-86731864D01*
X91497839Y-86691893D01*
X91481858Y-86623875D01*
X91491651Y-86581935D01*
X91537751Y-86474078D01*
X91537753Y-86474072D01*
X91567442Y-86344000D01*
X90717607Y-86344000D01*
X90777238Y-86226969D01*
X90798298Y-86094000D01*
X90777238Y-85961031D01*
X90717607Y-85844000D01*
X91570322Y-85844000D01*
X91570322Y-85843999D01*
X91567112Y-85820306D01*
X91526073Y-85694000D01*
X92517889Y-85694000D01*
X93447163Y-85694000D01*
X93369736Y-85745736D01*
X93308955Y-85836700D01*
X93287612Y-85944000D01*
X93308955Y-86051300D01*
X93369736Y-86142264D01*
X93447163Y-86194000D01*
X92522468Y-86194000D01*
X92547503Y-86297195D01*
X92632787Y-86483943D01*
X92632789Y-86483947D01*
X92751870Y-86651173D01*
X92751875Y-86651179D01*
X92900456Y-86792851D01*
X93073165Y-86903844D01*
X93263761Y-86980147D01*
X93465349Y-87019000D01*
X93643000Y-87019000D01*
X93643000Y-86219000D01*
X94143000Y-86219000D01*
X94143000Y-87019000D01*
X94269205Y-87019000D01*
X94422370Y-87004374D01*
X94422374Y-87004373D01*
X94619351Y-86946536D01*
X94801837Y-86852458D01*
X94963206Y-86725555D01*
X94963209Y-86725551D01*
X95097654Y-86570395D01*
X95200300Y-86392606D01*
X95267449Y-86198595D01*
X95268111Y-86194000D01*
X94338837Y-86194000D01*
X94416264Y-86142264D01*
X94477045Y-86051300D01*
X94498388Y-85944000D01*
X94477045Y-85836700D01*
X94416264Y-85745736D01*
X94338837Y-85694000D01*
X95263532Y-85694000D01*
X95263531Y-85693999D01*
X95238496Y-85590804D01*
X95153212Y-85404056D01*
X95153210Y-85404052D01*
X95034129Y-85236826D01*
X95034124Y-85236820D01*
X94885543Y-85095148D01*
X94712834Y-84984155D01*
X94522238Y-84907852D01*
X94320651Y-84869000D01*
X94143000Y-84869000D01*
X94143000Y-85669000D01*
X93643000Y-85669000D01*
X93643000Y-84869000D01*
X93516795Y-84869000D01*
X93363629Y-84883625D01*
X93363625Y-84883626D01*
X93166648Y-84941463D01*
X92984162Y-85035541D01*
X92822793Y-85162444D01*
X92822790Y-85162448D01*
X92688345Y-85317604D01*
X92585699Y-85495393D01*
X92518550Y-85689404D01*
X92517889Y-85694000D01*
X91526073Y-85694000D01*
X91498974Y-85610598D01*
X91394485Y-85416426D01*
X91394483Y-85416423D01*
X91257004Y-85244029D01*
X91090947Y-85098949D01*
X91090945Y-85098947D01*
X90901662Y-84985855D01*
X90901654Y-84985851D01*
X90695212Y-84908372D01*
X90478256Y-84869000D01*
X90343000Y-84869000D01*
X90343000Y-85669000D01*
X89843000Y-85669000D01*
X89843000Y-84869000D01*
X89762993Y-84869000D01*
X89598382Y-84883814D01*
X89385837Y-84942472D01*
X89385822Y-84942478D01*
X89187165Y-85038146D01*
X89187158Y-85038150D01*
X89008773Y-85167754D01*
X89008765Y-85167760D01*
X88856387Y-85327136D01*
X88734909Y-85511166D01*
X88648249Y-85713916D01*
X88648246Y-85713927D01*
X88618557Y-85843999D01*
X88618558Y-85844000D01*
X89468393Y-85844000D01*
X89408762Y-85961031D01*
X89387702Y-86094000D01*
X89408762Y-86226969D01*
X89468393Y-86344000D01*
X88615678Y-86344000D01*
X44699146Y-86344000D01*
X44705081Y-86332692D01*
X44746790Y-86253225D01*
X44787500Y-86088056D01*
X44787500Y-85917944D01*
X44746790Y-85752775D01*
X44726395Y-85713916D01*
X44667736Y-85602150D01*
X44587131Y-85511166D01*
X44554929Y-85474817D01*
X44470336Y-85416426D01*
X44414931Y-85378182D01*
X44255874Y-85317860D01*
X44255868Y-85317859D01*
X44129374Y-85302500D01*
X44129372Y-85302500D01*
X44044628Y-85302500D01*
X44044626Y-85302500D01*
X43918131Y-85317859D01*
X43918125Y-85317860D01*
X43759068Y-85378182D01*
X43619072Y-85474816D01*
X43506263Y-85602150D01*
X43427210Y-85752773D01*
X43386500Y-85917944D01*
X43386500Y-86088055D01*
X42037000Y-86088055D01*
X42037000Y-80000000D01*
X46644341Y-80000000D01*
X46664936Y-80235403D01*
X46664938Y-80235413D01*
X46726094Y-80463655D01*
X46726096Y-80463659D01*
X46726097Y-80463663D01*
X46776031Y-80570746D01*
X46825964Y-80677828D01*
X46825965Y-80677830D01*
X46961505Y-80871402D01*
X47128597Y-81038494D01*
X47322169Y-81174034D01*
X47322171Y-81174035D01*
X47536337Y-81273903D01*
X47764592Y-81335063D01*
X47941032Y-81350499D01*
X47941033Y-81350500D01*
X47941034Y-81350500D01*
X48058967Y-81350500D01*
X48058967Y-81350499D01*
X48235408Y-81335063D01*
X48463663Y-81273903D01*
X48677829Y-81174035D01*
X48871401Y-81038495D01*
X49038495Y-80871401D01*
X49174035Y-80677830D01*
X49273903Y-80463663D01*
X49335063Y-80235408D01*
X49355659Y-80000000D01*
X88644341Y-80000000D01*
X88664936Y-80235403D01*
X88664938Y-80235413D01*
X88726094Y-80463655D01*
X88726096Y-80463659D01*
X88726097Y-80463663D01*
X88776031Y-80570746D01*
X88825964Y-80677828D01*
X88825965Y-80677830D01*
X88961505Y-80871402D01*
X89128597Y-81038494D01*
X89322169Y-81174034D01*
X89322171Y-81174035D01*
X89536337Y-81273903D01*
X89764592Y-81335063D01*
X89941032Y-81350499D01*
X89941033Y-81350500D01*
X89941034Y-81350500D01*
X90058967Y-81350500D01*
X90058967Y-81350499D01*
X90235408Y-81335063D01*
X90463663Y-81273903D01*
X90677829Y-81174035D01*
X90871401Y-81038495D01*
X91038495Y-80871401D01*
X91174035Y-80677830D01*
X91273903Y-80463663D01*
X91335063Y-80235408D01*
X91355659Y-80000000D01*
X91335063Y-79764592D01*
X91273903Y-79536337D01*
X91174035Y-79322171D01*
X91174034Y-79322169D01*
X91038494Y-79128597D01*
X90871402Y-78961505D01*
X90677830Y-78825965D01*
X90677828Y-78825964D01*
X90570746Y-78776031D01*
X90463663Y-78726097D01*
X90463659Y-78726096D01*
X90463655Y-78726094D01*
X90235413Y-78664938D01*
X90235403Y-78664936D01*
X90058967Y-78649500D01*
X90058966Y-78649500D01*
X89941034Y-78649500D01*
X89941033Y-78649500D01*
X89764596Y-78664936D01*
X89764586Y-78664938D01*
X89536344Y-78726094D01*
X89536335Y-78726098D01*
X89322171Y-78825964D01*
X89322169Y-78825965D01*
X89128597Y-78961505D01*
X88961506Y-79128597D01*
X88961501Y-79128604D01*
X88825967Y-79322165D01*
X88825965Y-79322169D01*
X88726098Y-79536335D01*
X88726094Y-79536344D01*
X88664938Y-79764586D01*
X88664936Y-79764596D01*
X88644341Y-79999999D01*
X88644341Y-80000000D01*
X49355659Y-80000000D01*
X49335063Y-79764592D01*
X49273903Y-79536337D01*
X49174035Y-79322171D01*
X49174034Y-79322169D01*
X49038494Y-79128597D01*
X48871402Y-78961505D01*
X48677830Y-78825965D01*
X48677828Y-78825964D01*
X48570746Y-78776031D01*
X48463663Y-78726097D01*
X48463659Y-78726096D01*
X48463655Y-78726094D01*
X48235413Y-78664938D01*
X48235403Y-78664936D01*
X48058967Y-78649500D01*
X48058966Y-78649500D01*
X47941034Y-78649500D01*
X47941033Y-78649500D01*
X47764596Y-78664936D01*
X47764586Y-78664938D01*
X47536344Y-78726094D01*
X47536335Y-78726098D01*
X47322171Y-78825964D01*
X47322169Y-78825965D01*
X47128597Y-78961505D01*
X46961506Y-79128597D01*
X46961501Y-79128604D01*
X46825967Y-79322165D01*
X46825965Y-79322169D01*
X46726098Y-79536335D01*
X46726094Y-79536344D01*
X46664938Y-79764586D01*
X46664936Y-79764596D01*
X46644341Y-79999999D01*
X46644341Y-80000000D01*
X42037000Y-80000000D01*
X42037000Y-77466000D01*
X56571364Y-77466000D01*
X56628567Y-77679486D01*
X56628570Y-77679492D01*
X56728399Y-77893578D01*
X56863894Y-78087082D01*
X57030917Y-78254105D01*
X57224421Y-78389600D01*
X57438507Y-78489429D01*
X57438516Y-78489433D01*
X57652000Y-78546634D01*
X57652000Y-77651501D01*
X57759685Y-77700680D01*
X57866237Y-77716000D01*
X57937763Y-77716000D01*
X58044315Y-77700680D01*
X58152000Y-77651501D01*
X58152000Y-78546633D01*
X58365483Y-78489433D01*
X58365492Y-78489429D01*
X58579578Y-78389600D01*
X58773082Y-78254105D01*
X58940105Y-78087082D01*
X59075600Y-77893578D01*
X59169294Y-77692651D01*
X59215466Y-77640212D01*
X59282660Y-77621060D01*
X59349541Y-77641276D01*
X59392676Y-77689785D01*
X59459632Y-77824253D01*
X59588127Y-77994406D01*
X59588128Y-77994407D01*
X59745698Y-78138052D01*
X59926981Y-78250298D01*
X60125802Y-78327321D01*
X60335390Y-78366500D01*
X60335392Y-78366500D01*
X60548608Y-78366500D01*
X60548610Y-78366500D01*
X60758198Y-78327321D01*
X60957019Y-78250298D01*
X61138302Y-78138052D01*
X61295872Y-77994407D01*
X61424366Y-77824255D01*
X61478270Y-77716000D01*
X61519403Y-77633394D01*
X61519403Y-77633393D01*
X61519405Y-77633389D01*
X61577756Y-77428310D01*
X61588529Y-77312047D01*
X61614315Y-77247111D01*
X61656622Y-77216804D01*
X61765130Y-77216804D01*
X61801503Y-77237668D01*
X61833693Y-77299681D01*
X61835471Y-77312048D01*
X61846244Y-77428310D01*
X61904596Y-77633392D01*
X61904596Y-77633394D01*
X61999632Y-77824253D01*
X62128127Y-77994406D01*
X62128128Y-77994407D01*
X62285698Y-78138052D01*
X62466981Y-78250298D01*
X62665802Y-78327321D01*
X62875390Y-78366500D01*
X62875392Y-78366500D01*
X63088608Y-78366500D01*
X63088610Y-78366500D01*
X63298198Y-78327321D01*
X63497019Y-78250298D01*
X63678302Y-78138052D01*
X63835872Y-77994407D01*
X63964366Y-77824255D01*
X64018270Y-77716000D01*
X64059403Y-77633394D01*
X64059403Y-77633393D01*
X64059405Y-77633389D01*
X64117756Y-77428310D01*
X64124029Y-77360605D01*
X64149814Y-77295669D01*
X64206614Y-77254981D01*
X64276395Y-77251461D01*
X64337002Y-77286225D01*
X64369193Y-77348238D01*
X64371500Y-77372047D01*
X64371500Y-78110856D01*
X64371502Y-78110882D01*
X64374413Y-78135987D01*
X64374415Y-78135991D01*
X64419793Y-78238764D01*
X64419794Y-78238765D01*
X64499235Y-78318206D01*
X64602009Y-78363585D01*
X64627135Y-78366500D01*
X66416864Y-78366499D01*
X66416879Y-78366497D01*
X66416882Y-78366497D01*
X66441987Y-78363586D01*
X66441988Y-78363585D01*
X66441991Y-78363585D01*
X66544765Y-78318206D01*
X66624206Y-78238765D01*
X66669585Y-78135991D01*
X66672500Y-78110865D01*
X66672500Y-77466000D01*
X71821364Y-77466000D01*
X71878567Y-77679486D01*
X71878570Y-77679492D01*
X71978399Y-77893578D01*
X72113894Y-78087082D01*
X72280917Y-78254105D01*
X72474421Y-78389600D01*
X72688507Y-78489429D01*
X72688516Y-78489433D01*
X72902000Y-78546634D01*
X72902000Y-77651501D01*
X73009685Y-77700680D01*
X73116237Y-77716000D01*
X73187763Y-77716000D01*
X73294315Y-77700680D01*
X73402000Y-77651501D01*
X73402000Y-78546633D01*
X73615483Y-78489433D01*
X73615492Y-78489429D01*
X73829578Y-78389600D01*
X74023082Y-78254105D01*
X74190105Y-78087082D01*
X74325600Y-77893578D01*
X74419294Y-77692651D01*
X74465466Y-77640212D01*
X74532660Y-77621060D01*
X74599541Y-77641276D01*
X74642676Y-77689785D01*
X74709632Y-77824253D01*
X74838127Y-77994406D01*
X74838128Y-77994407D01*
X74995698Y-78138052D01*
X75176981Y-78250298D01*
X75375802Y-78327321D01*
X75585390Y-78366500D01*
X75585392Y-78366500D01*
X75798608Y-78366500D01*
X75798610Y-78366500D01*
X76008198Y-78327321D01*
X76207019Y-78250298D01*
X76388302Y-78138052D01*
X76545872Y-77994407D01*
X76674366Y-77824255D01*
X76728270Y-77716000D01*
X76769403Y-77633394D01*
X76769403Y-77633393D01*
X76769405Y-77633389D01*
X76827756Y-77428310D01*
X76838529Y-77312047D01*
X76864315Y-77247111D01*
X76906622Y-77216804D01*
X77015130Y-77216804D01*
X77051503Y-77237668D01*
X77083693Y-77299681D01*
X77085471Y-77312048D01*
X77096244Y-77428310D01*
X77154596Y-77633392D01*
X77154596Y-77633394D01*
X77249632Y-77824253D01*
X77378127Y-77994406D01*
X77378128Y-77994407D01*
X77535698Y-78138052D01*
X77716981Y-78250298D01*
X77915802Y-78327321D01*
X78125390Y-78366500D01*
X78125392Y-78366500D01*
X78338608Y-78366500D01*
X78338610Y-78366500D01*
X78548198Y-78327321D01*
X78747019Y-78250298D01*
X78928302Y-78138052D01*
X79085872Y-77994407D01*
X79214366Y-77824255D01*
X79268270Y-77716000D01*
X79309403Y-77633394D01*
X79309403Y-77633393D01*
X79309405Y-77633389D01*
X79367756Y-77428310D01*
X79374029Y-77360605D01*
X79399814Y-77295669D01*
X79456614Y-77254981D01*
X79526395Y-77251461D01*
X79587002Y-77286225D01*
X79619193Y-77348238D01*
X79621500Y-77372047D01*
X79621500Y-78110856D01*
X79621502Y-78110882D01*
X79624413Y-78135987D01*
X79624415Y-78135991D01*
X79669793Y-78238764D01*
X79669794Y-78238765D01*
X79749235Y-78318206D01*
X79852009Y-78363585D01*
X79877135Y-78366500D01*
X81666864Y-78366499D01*
X81666879Y-78366497D01*
X81666882Y-78366497D01*
X81691987Y-78363586D01*
X81691988Y-78363585D01*
X81691991Y-78363585D01*
X81794765Y-78318206D01*
X81874206Y-78238765D01*
X81919585Y-78135991D01*
X81922500Y-78110865D01*
X81922499Y-76321136D01*
X81922497Y-76321117D01*
X81919586Y-76296012D01*
X81919585Y-76296010D01*
X81919585Y-76296009D01*
X81874206Y-76193235D01*
X81794765Y-76113794D01*
X81774124Y-76104680D01*
X81691992Y-76068415D01*
X81666865Y-76065500D01*
X79877143Y-76065500D01*
X79877117Y-76065502D01*
X79852012Y-76068413D01*
X79852008Y-76068415D01*
X79749235Y-76113793D01*
X79669794Y-76193234D01*
X79624415Y-76296006D01*
X79624415Y-76296008D01*
X79621500Y-76321131D01*
X79621500Y-77059951D01*
X79601815Y-77126990D01*
X79549011Y-77172745D01*
X79479853Y-77182689D01*
X79416297Y-77153664D01*
X79378523Y-77094886D01*
X79374029Y-77071391D01*
X79367756Y-77003689D01*
X79353273Y-76952789D01*
X79309405Y-76798611D01*
X79309403Y-76798606D01*
X79309403Y-76798605D01*
X79214367Y-76607746D01*
X79085872Y-76437593D01*
X78928302Y-76293948D01*
X78747019Y-76181702D01*
X78747017Y-76181701D01*
X78647608Y-76143190D01*
X78548198Y-76104679D01*
X78338610Y-76065500D01*
X78125390Y-76065500D01*
X77915802Y-76104679D01*
X77915799Y-76104679D01*
X77915799Y-76104680D01*
X77716982Y-76181701D01*
X77716980Y-76181702D01*
X77535699Y-76293947D01*
X77378127Y-76437593D01*
X77249632Y-76607746D01*
X77154596Y-76798605D01*
X77154596Y-76798607D01*
X77096244Y-77003689D01*
X77085471Y-77119951D01*
X77059685Y-77184888D01*
X77015130Y-77216804D01*
X76906622Y-77216804D01*
X76908869Y-77215194D01*
X76872497Y-77194331D01*
X76840307Y-77132318D01*
X76838529Y-77119951D01*
X76832969Y-77059951D01*
X76827756Y-77003690D01*
X76769405Y-76798611D01*
X76769403Y-76798606D01*
X76769403Y-76798605D01*
X76674367Y-76607746D01*
X76545872Y-76437593D01*
X76388302Y-76293948D01*
X76207019Y-76181702D01*
X76207017Y-76181701D01*
X76107608Y-76143190D01*
X76008198Y-76104679D01*
X75798610Y-76065500D01*
X75585390Y-76065500D01*
X75375802Y-76104679D01*
X75375799Y-76104679D01*
X75375799Y-76104680D01*
X75176982Y-76181701D01*
X75176980Y-76181702D01*
X74995699Y-76293947D01*
X74838127Y-76437593D01*
X74709634Y-76607744D01*
X74642676Y-76742215D01*
X74595173Y-76793452D01*
X74527510Y-76810873D01*
X74461170Y-76788947D01*
X74419294Y-76739348D01*
X74325600Y-76538422D01*
X74325599Y-76538420D01*
X74190113Y-76344926D01*
X74190108Y-76344920D01*
X74023082Y-76177894D01*
X73829578Y-76042399D01*
X73615492Y-75942570D01*
X73615486Y-75942567D01*
X73402000Y-75885364D01*
X73402000Y-76780498D01*
X73294315Y-76731320D01*
X73187763Y-76716000D01*
X73116237Y-76716000D01*
X73009685Y-76731320D01*
X72902000Y-76780498D01*
X72902000Y-75885364D01*
X72901999Y-75885364D01*
X72688513Y-75942567D01*
X72688507Y-75942570D01*
X72474422Y-76042399D01*
X72474420Y-76042400D01*
X72280926Y-76177886D01*
X72280920Y-76177891D01*
X72113891Y-76344920D01*
X72113886Y-76344926D01*
X71978400Y-76538420D01*
X71978399Y-76538422D01*
X71878570Y-76752507D01*
X71878567Y-76752513D01*
X71821364Y-76965999D01*
X71821364Y-76966000D01*
X72718314Y-76966000D01*
X72692507Y-77006156D01*
X72652000Y-77144111D01*
X72652000Y-77287889D01*
X72692507Y-77425844D01*
X72718314Y-77466000D01*
X71821364Y-77466000D01*
X66672500Y-77466000D01*
X66672499Y-76321136D01*
X66672497Y-76321117D01*
X66669586Y-76296012D01*
X66669585Y-76296010D01*
X66669585Y-76296009D01*
X66624206Y-76193235D01*
X66544765Y-76113794D01*
X66524124Y-76104680D01*
X66441992Y-76068415D01*
X66416865Y-76065500D01*
X64627143Y-76065500D01*
X64627117Y-76065502D01*
X64602012Y-76068413D01*
X64602008Y-76068415D01*
X64499235Y-76113793D01*
X64419794Y-76193234D01*
X64374415Y-76296006D01*
X64374415Y-76296008D01*
X64371500Y-76321131D01*
X64371500Y-77059951D01*
X64351815Y-77126990D01*
X64299011Y-77172745D01*
X64229853Y-77182689D01*
X64166297Y-77153664D01*
X64128523Y-77094886D01*
X64124029Y-77071391D01*
X64117756Y-77003689D01*
X64103273Y-76952789D01*
X64059405Y-76798611D01*
X64059403Y-76798606D01*
X64059403Y-76798605D01*
X63964367Y-76607746D01*
X63835872Y-76437593D01*
X63678302Y-76293948D01*
X63497019Y-76181702D01*
X63497017Y-76181701D01*
X63397608Y-76143190D01*
X63298198Y-76104679D01*
X63088610Y-76065500D01*
X62875390Y-76065500D01*
X62665802Y-76104679D01*
X62665799Y-76104679D01*
X62665799Y-76104680D01*
X62466982Y-76181701D01*
X62466980Y-76181702D01*
X62285699Y-76293947D01*
X62128127Y-76437593D01*
X61999632Y-76607746D01*
X61904596Y-76798605D01*
X61904596Y-76798607D01*
X61846244Y-77003689D01*
X61835471Y-77119951D01*
X61809685Y-77184888D01*
X61765130Y-77216804D01*
X61656622Y-77216804D01*
X61658869Y-77215194D01*
X61622497Y-77194331D01*
X61590307Y-77132318D01*
X61588529Y-77119951D01*
X61582969Y-77059951D01*
X61577756Y-77003690D01*
X61519405Y-76798611D01*
X61519403Y-76798606D01*
X61519403Y-76798605D01*
X61424367Y-76607746D01*
X61295872Y-76437593D01*
X61138302Y-76293948D01*
X60957019Y-76181702D01*
X60957017Y-76181701D01*
X60857608Y-76143190D01*
X60758198Y-76104679D01*
X60548610Y-76065500D01*
X60335390Y-76065500D01*
X60125802Y-76104679D01*
X60125799Y-76104679D01*
X60125799Y-76104680D01*
X59926982Y-76181701D01*
X59926980Y-76181702D01*
X59745699Y-76293947D01*
X59588127Y-76437593D01*
X59459634Y-76607744D01*
X59392676Y-76742215D01*
X59345173Y-76793452D01*
X59277510Y-76810873D01*
X59211170Y-76788947D01*
X59169294Y-76739348D01*
X59075600Y-76538422D01*
X59075599Y-76538420D01*
X58940113Y-76344926D01*
X58940108Y-76344920D01*
X58773082Y-76177894D01*
X58579578Y-76042399D01*
X58365492Y-75942570D01*
X58365486Y-75942567D01*
X58152000Y-75885364D01*
X58152000Y-76780498D01*
X58044315Y-76731320D01*
X57937763Y-76716000D01*
X57866237Y-76716000D01*
X57759685Y-76731320D01*
X57652000Y-76780498D01*
X57652000Y-75885364D01*
X57651999Y-75885364D01*
X57438513Y-75942567D01*
X57438507Y-75942570D01*
X57224422Y-76042399D01*
X57224420Y-76042400D01*
X57030926Y-76177886D01*
X57030920Y-76177891D01*
X56863891Y-76344920D01*
X56863886Y-76344926D01*
X56728400Y-76538420D01*
X56728399Y-76538422D01*
X56628570Y-76752507D01*
X56628567Y-76752513D01*
X56571364Y-76965999D01*
X56571364Y-76966000D01*
X57468314Y-76966000D01*
X57442507Y-77006156D01*
X57402000Y-77144111D01*
X57402000Y-77287889D01*
X57442507Y-77425844D01*
X57468314Y-77466000D01*
X56571364Y-77466000D01*
X42037000Y-77466000D01*
X42037000Y-74164708D01*
X42056685Y-74097669D01*
X42109489Y-74051914D01*
X42160703Y-74040708D01*
X59249500Y-74000500D01*
X95887500Y-74000500D01*
X95954539Y-74020185D01*
G37*
%TD.AperFunction*%
%TD*%
M02*
