%TF.GenerationSoftware,KiCad,Pcbnew,7.0.10*%
%TF.CreationDate,2024-01-08T00:56:05+00:00*%
%TF.ProjectId,green_storm,67726565-6e5f-4737-946f-726d2e6b6963,0.1*%
%TF.SameCoordinates,Original*%
%TF.FileFunction,Copper,L1,Top*%
%TF.FilePolarity,Positive*%
%FSLAX46Y46*%
G04 Gerber Fmt 4.6, Leading zero omitted, Abs format (unit mm)*
G04 Created by KiCad (PCBNEW 7.0.10) date 2024-01-08 00:56:05*
%MOMM*%
%LPD*%
G01*
G04 APERTURE LIST*
G04 Aperture macros list*
%AMRoundRect*
0 Rectangle with rounded corners*
0 $1 Rounding radius*
0 $2 $3 $4 $5 $6 $7 $8 $9 X,Y pos of 4 corners*
0 Add a 4 corners polygon primitive as box body*
4,1,4,$2,$3,$4,$5,$6,$7,$8,$9,$2,$3,0*
0 Add four circle primitives for the rounded corners*
1,1,$1+$1,$2,$3*
1,1,$1+$1,$4,$5*
1,1,$1+$1,$6,$7*
1,1,$1+$1,$8,$9*
0 Add four rect primitives between the rounded corners*
20,1,$1+$1,$2,$3,$4,$5,0*
20,1,$1+$1,$4,$5,$6,$7,0*
20,1,$1+$1,$6,$7,$8,$9,0*
20,1,$1+$1,$8,$9,$2,$3,0*%
G04 Aperture macros list end*
%TA.AperFunction,ComponentPad*%
%ADD10R,1.700000X1.700000*%
%TD*%
%TA.AperFunction,ComponentPad*%
%ADD11O,1.700000X1.700000*%
%TD*%
%TA.AperFunction,SMDPad,CuDef*%
%ADD12RoundRect,0.140000X-0.170000X0.140000X-0.170000X-0.140000X0.170000X-0.140000X0.170000X0.140000X0*%
%TD*%
%TA.AperFunction,SMDPad,CuDef*%
%ADD13RoundRect,0.140000X0.170000X-0.140000X0.170000X0.140000X-0.170000X0.140000X-0.170000X-0.140000X0*%
%TD*%
%TA.AperFunction,SMDPad,CuDef*%
%ADD14RoundRect,0.218750X-0.256250X0.218750X-0.256250X-0.218750X0.256250X-0.218750X0.256250X0.218750X0*%
%TD*%
%TA.AperFunction,SMDPad,CuDef*%
%ADD15RoundRect,0.250000X0.475000X-0.250000X0.475000X0.250000X-0.475000X0.250000X-0.475000X-0.250000X0*%
%TD*%
%TA.AperFunction,SMDPad,CuDef*%
%ADD16RoundRect,0.135000X-0.185000X0.135000X-0.185000X-0.135000X0.185000X-0.135000X0.185000X0.135000X0*%
%TD*%
%TA.AperFunction,SMDPad,CuDef*%
%ADD17RoundRect,0.140000X0.140000X0.170000X-0.140000X0.170000X-0.140000X-0.170000X0.140000X-0.170000X0*%
%TD*%
%TA.AperFunction,SMDPad,CuDef*%
%ADD18RoundRect,0.135000X0.185000X-0.135000X0.185000X0.135000X-0.185000X0.135000X-0.185000X-0.135000X0*%
%TD*%
%TA.AperFunction,SMDPad,CuDef*%
%ADD19RoundRect,0.225000X-0.225000X-0.250000X0.225000X-0.250000X0.225000X0.250000X-0.225000X0.250000X0*%
%TD*%
%TA.AperFunction,SMDPad,CuDef*%
%ADD20RoundRect,0.135000X-0.135000X-0.185000X0.135000X-0.185000X0.135000X0.185000X-0.135000X0.185000X0*%
%TD*%
%TA.AperFunction,SMDPad,CuDef*%
%ADD21RoundRect,0.250000X-0.250000X-0.475000X0.250000X-0.475000X0.250000X0.475000X-0.250000X0.475000X0*%
%TD*%
%TA.AperFunction,SMDPad,CuDef*%
%ADD22R,1.300000X0.450000*%
%TD*%
%TA.AperFunction,ComponentPad*%
%ADD23O,1.800000X1.150000*%
%TD*%
%TA.AperFunction,ComponentPad*%
%ADD24O,2.000000X1.450000*%
%TD*%
%TA.AperFunction,SMDPad,CuDef*%
%ADD25RoundRect,0.135000X0.135000X0.185000X-0.135000X0.185000X-0.135000X-0.185000X0.135000X-0.185000X0*%
%TD*%
%TA.AperFunction,SMDPad,CuDef*%
%ADD26RoundRect,0.075000X-0.662500X-0.075000X0.662500X-0.075000X0.662500X0.075000X-0.662500X0.075000X0*%
%TD*%
%TA.AperFunction,SMDPad,CuDef*%
%ADD27RoundRect,0.075000X-0.075000X-0.662500X0.075000X-0.662500X0.075000X0.662500X-0.075000X0.662500X0*%
%TD*%
%TA.AperFunction,SMDPad,CuDef*%
%ADD28RoundRect,0.140000X-0.140000X-0.170000X0.140000X-0.170000X0.140000X0.170000X-0.140000X0.170000X0*%
%TD*%
%TA.AperFunction,SMDPad,CuDef*%
%ADD29R,1.500000X2.000000*%
%TD*%
%TA.AperFunction,SMDPad,CuDef*%
%ADD30R,3.800000X2.000000*%
%TD*%
%TA.AperFunction,SMDPad,CuDef*%
%ADD31R,0.800000X1.000000*%
%TD*%
%TA.AperFunction,SMDPad,CuDef*%
%ADD32R,1.500000X0.700000*%
%TD*%
%TA.AperFunction,SMDPad,CuDef*%
%ADD33R,1.200000X1.400000*%
%TD*%
%TA.AperFunction,ViaPad*%
%ADD34C,0.700000*%
%TD*%
%TA.AperFunction,Conductor*%
%ADD35C,0.500000*%
%TD*%
%TA.AperFunction,Conductor*%
%ADD36C,0.300000*%
%TD*%
G04 APERTURE END LIST*
D10*
%TO.P,J4,1,Pin_1*%
%TO.N,+3.3V*%
X62865000Y-110363000D03*
D11*
%TO.P,J4,2,Pin_2*%
%TO.N,Net-(J4-Pin_2)*%
X65405000Y-110363000D03*
%TO.P,J4,3,Pin_3*%
%TO.N,Net-(J4-Pin_3)*%
X67945000Y-110363000D03*
%TO.P,J4,4,Pin_4*%
%TO.N,GND*%
X70485000Y-110363000D03*
%TD*%
D12*
%TO.P,C11,1*%
%TO.N,Net-(U2-NRST)*%
X64643000Y-98199000D03*
%TO.P,C11,2*%
%TO.N,GND*%
X64643000Y-99159000D03*
%TD*%
D13*
%TO.P,C12,1*%
%TO.N,Net-(U2-PD0)*%
X59182000Y-89662000D03*
%TO.P,C12,2*%
%TO.N,GND*%
X59182000Y-88702000D03*
%TD*%
D14*
%TO.P,D1,1,K*%
%TO.N,Net-(D1-K)*%
X84836000Y-102692000D03*
%TO.P,D1,2,A*%
%TO.N,+3.3V*%
X84836000Y-104267000D03*
%TD*%
D15*
%TO.P,C2,1*%
%TO.N,+3.3V*%
X81407000Y-104201000D03*
%TO.P,C2,2*%
%TO.N,GND*%
X81407000Y-102301000D03*
%TD*%
D16*
%TO.P,R3,1*%
%TO.N,+3.3V*%
X78486000Y-88898000D03*
%TO.P,R3,2*%
%TO.N,Net-(J1-D+)*%
X78486000Y-89918000D03*
%TD*%
D17*
%TO.P,C5,1*%
%TO.N,+3.3V*%
X71092000Y-97663000D03*
%TO.P,C5,2*%
%TO.N,GND*%
X70132000Y-97663000D03*
%TD*%
D18*
%TO.P,R2,1*%
%TO.N,Net-(SW1-B)*%
X49022000Y-84965000D03*
%TO.P,R2,2*%
%TO.N,Net-(U2-BOOT0)*%
X49022000Y-83945000D03*
%TD*%
D19*
%TO.P,C3,1*%
%TO.N,+3.3V*%
X63868000Y-82804000D03*
%TO.P,C3,2*%
%TO.N,GND*%
X65418000Y-82804000D03*
%TD*%
D10*
%TO.P,J3,1,Pin_1*%
%TO.N,+3.3V*%
X65522000Y-77216000D03*
D11*
%TO.P,J3,2,Pin_2*%
%TO.N,Net-(J3-Pin_2)*%
X62982000Y-77216000D03*
%TO.P,J3,3,Pin_3*%
%TO.N,Net-(J3-Pin_3)*%
X60442000Y-77216000D03*
%TO.P,J3,4,Pin_4*%
%TO.N,GND*%
X57902000Y-77216000D03*
%TD*%
D20*
%TO.P,R5,1*%
%TO.N,+3.3V*%
X66800000Y-102108000D03*
%TO.P,R5,2*%
%TO.N,Net-(J4-Pin_3)*%
X67820000Y-102108000D03*
%TD*%
D17*
%TO.P,C10,1*%
%TO.N,+3.3V*%
X59436000Y-99822000D03*
%TO.P,C10,2*%
%TO.N,GND*%
X58476000Y-99822000D03*
%TD*%
%TO.P,C9,1*%
%TO.N,+3.3VA*%
X59436000Y-98298000D03*
%TO.P,C9,2*%
%TO.N,GND*%
X58476000Y-98298000D03*
%TD*%
D21*
%TO.P,C1,1*%
%TO.N,VBUS*%
X76266000Y-98044000D03*
%TO.P,C1,2*%
%TO.N,GND*%
X78166000Y-98044000D03*
%TD*%
D12*
%TO.P,C6,1*%
%TO.N,+3.3V*%
X74168000Y-86797000D03*
%TO.P,C6,2*%
%TO.N,GND*%
X74168000Y-87757000D03*
%TD*%
D22*
%TO.P,J1,1,VBUS*%
%TO.N,VBUS*%
X90043000Y-91119000D03*
%TO.P,J1,2,D-*%
%TO.N,Net-(J1-D-)*%
X90043000Y-90469000D03*
%TO.P,J1,3,D+*%
%TO.N,Net-(J1-D+)*%
X90043000Y-89819000D03*
%TO.P,J1,4,ID*%
%TO.N,unconnected-(J1-ID-Pad4)*%
X90043000Y-89169000D03*
%TO.P,J1,5,GND*%
%TO.N,GND*%
X90043000Y-88519000D03*
D23*
%TO.P,J1,6,Shield*%
X93893000Y-93694000D03*
D24*
X90093000Y-93544000D03*
X90093000Y-86094000D03*
D23*
X93893000Y-85944000D03*
%TD*%
D10*
%TO.P,J2,1,Pin_1*%
%TO.N,+3.3V*%
X80772000Y-77216000D03*
D11*
%TO.P,J2,2,Pin_2*%
%TO.N,Net-(J2-Pin_2)*%
X78232000Y-77216000D03*
%TO.P,J2,3,Pin_3*%
%TO.N,Net-(J2-Pin_3)*%
X75692000Y-77216000D03*
%TO.P,J2,4,Pin_4*%
%TO.N,GND*%
X73152000Y-77216000D03*
%TD*%
D25*
%TO.P,R4,1*%
%TO.N,+3.3V*%
X65407000Y-102108000D03*
%TO.P,R4,2*%
%TO.N,Net-(J4-Pin_2)*%
X64387000Y-102108000D03*
%TD*%
D26*
%TO.P,U2,1,VBAT*%
%TO.N,+3.3V*%
X62893500Y-88690000D03*
%TO.P,U2,2,PC13*%
%TO.N,unconnected-(U2-PC13-Pad2)*%
X62893500Y-89190000D03*
%TO.P,U2,3,PC14*%
%TO.N,unconnected-(U2-PC14-Pad3)*%
X62893500Y-89690000D03*
%TO.P,U2,4,PC15*%
%TO.N,unconnected-(U2-PC15-Pad4)*%
X62893500Y-90190000D03*
%TO.P,U2,5,PD0*%
%TO.N,Net-(U2-PD0)*%
X62893500Y-90690000D03*
%TO.P,U2,6,PD1*%
%TO.N,Net-(U2-PD1)*%
X62893500Y-91190000D03*
%TO.P,U2,7,NRST*%
%TO.N,Net-(U2-NRST)*%
X62893500Y-91690000D03*
%TO.P,U2,8,VSSA*%
%TO.N,GND*%
X62893500Y-92190000D03*
%TO.P,U2,9,VDDA*%
%TO.N,+3.3VA*%
X62893500Y-92690000D03*
%TO.P,U2,10,PA0*%
%TO.N,unconnected-(U2-PA0-Pad10)*%
X62893500Y-93190000D03*
%TO.P,U2,11,PA1*%
%TO.N,unconnected-(U2-PA1-Pad11)*%
X62893500Y-93690000D03*
%TO.P,U2,12,PA2*%
%TO.N,unconnected-(U2-PA2-Pad12)*%
X62893500Y-94190000D03*
D27*
%TO.P,U2,13,PA3*%
%TO.N,unconnected-(U2-PA3-Pad13)*%
X64306000Y-95602500D03*
%TO.P,U2,14,PA4*%
%TO.N,unconnected-(U2-PA4-Pad14)*%
X64806000Y-95602500D03*
%TO.P,U2,15,PA5*%
%TO.N,unconnected-(U2-PA5-Pad15)*%
X65306000Y-95602500D03*
%TO.P,U2,16,PA6*%
%TO.N,unconnected-(U2-PA6-Pad16)*%
X65806000Y-95602500D03*
%TO.P,U2,17,PA7*%
%TO.N,unconnected-(U2-PA7-Pad17)*%
X66306000Y-95602500D03*
%TO.P,U2,18,PB0*%
%TO.N,unconnected-(U2-PB0-Pad18)*%
X66806000Y-95602500D03*
%TO.P,U2,19,PB1*%
%TO.N,unconnected-(U2-PB1-Pad19)*%
X67306000Y-95602500D03*
%TO.P,U2,20,PB2*%
%TO.N,unconnected-(U2-PB2-Pad20)*%
X67806000Y-95602500D03*
%TO.P,U2,21,PB10*%
%TO.N,Net-(J4-Pin_2)*%
X68306000Y-95602500D03*
%TO.P,U2,22,PB11*%
%TO.N,Net-(J4-Pin_3)*%
X68806000Y-95602500D03*
%TO.P,U2,23,VSS*%
%TO.N,GND*%
X69306000Y-95602500D03*
%TO.P,U2,24,VDD*%
%TO.N,+3.3V*%
X69806000Y-95602500D03*
D26*
%TO.P,U2,25,PB12*%
%TO.N,unconnected-(U2-PB12-Pad25)*%
X71218500Y-94190000D03*
%TO.P,U2,26,PB13*%
%TO.N,unconnected-(U2-PB13-Pad26)*%
X71218500Y-93690000D03*
%TO.P,U2,27,PB14*%
%TO.N,unconnected-(U2-PB14-Pad27)*%
X71218500Y-93190000D03*
%TO.P,U2,28,PB15*%
%TO.N,unconnected-(U2-PB15-Pad28)*%
X71218500Y-92690000D03*
%TO.P,U2,29,PA8*%
%TO.N,unconnected-(U2-PA8-Pad29)*%
X71218500Y-92190000D03*
%TO.P,U2,30,PA9*%
%TO.N,unconnected-(U2-PA9-Pad30)*%
X71218500Y-91690000D03*
%TO.P,U2,31,PA10*%
%TO.N,unconnected-(U2-PA10-Pad31)*%
X71218500Y-91190000D03*
%TO.P,U2,32,PA11*%
%TO.N,Net-(J1-D-)*%
X71218500Y-90690000D03*
%TO.P,U2,33,PA12*%
%TO.N,Net-(J1-D+)*%
X71218500Y-90190000D03*
%TO.P,U2,34,PA13*%
%TO.N,Net-(J2-Pin_2)*%
X71218500Y-89690000D03*
%TO.P,U2,35,VSS*%
%TO.N,GND*%
X71218500Y-89190000D03*
%TO.P,U2,36,VDD*%
%TO.N,+3.3V*%
X71218500Y-88690000D03*
D27*
%TO.P,U2,37,PA14*%
%TO.N,Net-(J2-Pin_3)*%
X69806000Y-87277500D03*
%TO.P,U2,38,PA15*%
%TO.N,unconnected-(U2-PA15-Pad38)*%
X69306000Y-87277500D03*
%TO.P,U2,39,PB3*%
%TO.N,unconnected-(U2-PB3-Pad39)*%
X68806000Y-87277500D03*
%TO.P,U2,40,PB4*%
%TO.N,unconnected-(U2-PB4-Pad40)*%
X68306000Y-87277500D03*
%TO.P,U2,41,PB5*%
%TO.N,unconnected-(U2-PB5-Pad41)*%
X67806000Y-87277500D03*
%TO.P,U2,42,PB6*%
%TO.N,Net-(J3-Pin_2)*%
X67306000Y-87277500D03*
%TO.P,U2,43,PB7*%
%TO.N,Net-(J3-Pin_3)*%
X66806000Y-87277500D03*
%TO.P,U2,44,BOOT0*%
%TO.N,Net-(U2-BOOT0)*%
X66306000Y-87277500D03*
%TO.P,U2,45,PB8*%
%TO.N,unconnected-(U2-PB8-Pad45)*%
X65806000Y-87277500D03*
%TO.P,U2,46,PB9*%
%TO.N,unconnected-(U2-PB9-Pad46)*%
X65306000Y-87277500D03*
%TO.P,U2,47,VSS*%
%TO.N,GND*%
X64806000Y-87277500D03*
%TO.P,U2,48,VDD*%
%TO.N,+3.3V*%
X64306000Y-87277500D03*
%TD*%
D13*
%TO.P,C13,1*%
%TO.N,Net-(U2-PD1)*%
X59182000Y-91892000D03*
%TO.P,C13,2*%
%TO.N,GND*%
X59182000Y-90932000D03*
%TD*%
D28*
%TO.P,C7,1*%
%TO.N,+3.3V*%
X64262000Y-84836000D03*
%TO.P,C7,2*%
%TO.N,GND*%
X65222000Y-84836000D03*
%TD*%
D29*
%TO.P,U1,1,GND*%
%TO.N,GND*%
X78627000Y-100609000D03*
%TO.P,U1,2,VO*%
%TO.N,+3.3V*%
X76327000Y-100609000D03*
D30*
X76327000Y-106909000D03*
D29*
%TO.P,U1,3,VI*%
%TO.N,VBUS*%
X74027000Y-100609000D03*
%TD*%
D14*
%TO.P,FB1,1*%
%TO.N,+3.3VA*%
X61468000Y-98272500D03*
%TO.P,FB1,2*%
%TO.N,+3.3V*%
X61468000Y-99847500D03*
%TD*%
D13*
%TO.P,C8,1*%
%TO.N,+3.3VA*%
X60960000Y-93162000D03*
%TO.P,C8,2*%
%TO.N,GND*%
X60960000Y-92202000D03*
%TD*%
D31*
%TO.P,SW1,*%
%TO.N,*%
X45197000Y-83853000D03*
X42987000Y-83853000D03*
X45197000Y-91153000D03*
X42987000Y-91153000D03*
D32*
%TO.P,SW1,1,A*%
%TO.N,GND*%
X45847000Y-85253000D03*
%TO.P,SW1,2,B*%
%TO.N,Net-(SW1-B)*%
X45847000Y-88253000D03*
%TO.P,SW1,3,C*%
%TO.N,+3.3V*%
X45847000Y-89753000D03*
%TD*%
D33*
%TO.P,Y1,1,1*%
%TO.N,Net-(U2-PD0)*%
X55538000Y-89324000D03*
%TO.P,Y1,2,2*%
%TO.N,GND*%
X55538000Y-91524000D03*
%TO.P,Y1,3,3*%
%TO.N,Net-(U2-PD1)*%
X57238000Y-91524000D03*
%TO.P,Y1,4,4*%
%TO.N,GND*%
X57238000Y-89324000D03*
%TD*%
D18*
%TO.P,R1,1*%
%TO.N,Net-(D1-K)*%
X85090000Y-100078000D03*
%TO.P,R1,2*%
%TO.N,GND*%
X85090000Y-99058000D03*
%TD*%
D13*
%TO.P,C4,1*%
%TO.N,+3.3V*%
X60960000Y-89126000D03*
%TO.P,C4,2*%
%TO.N,GND*%
X60960000Y-88166000D03*
%TD*%
D34*
%TO.N,GND*%
X69596000Y-108331000D03*
X88265000Y-85598000D03*
X59944000Y-90566000D03*
X59309000Y-87884000D03*
X46355000Y-84328000D03*
X79502000Y-97790000D03*
X64389000Y-100076000D03*
X61087000Y-87376000D03*
X78105000Y-102235000D03*
X69977000Y-98425000D03*
X57404000Y-87757000D03*
X54864000Y-93091000D03*
X94361000Y-91948000D03*
X85344000Y-98044000D03*
X89027000Y-88138000D03*
X58039000Y-100584000D03*
X74930000Y-88011000D03*
X64643000Y-92456000D03*
X57912000Y-97536000D03*
X65024000Y-88646000D03*
X94107000Y-87249000D03*
X82931000Y-102235000D03*
X78994000Y-102235000D03*
X88011000Y-93980000D03*
%TO.N,+3.3V*%
X65407000Y-106551000D03*
X63500000Y-106553000D03*
X68580000Y-100711000D03*
X67056000Y-100711000D03*
%TD*%
D35*
%TO.N,GND*%
X70485000Y-109220000D02*
X69596000Y-108331000D01*
X70485000Y-110363000D02*
X70485000Y-109220000D01*
D36*
%TO.N,Net-(J4-Pin_3)*%
X66865000Y-108395000D02*
X66865000Y-109283000D01*
X66865000Y-109283000D02*
X67945000Y-110363000D01*
%TO.N,GND*%
X65222000Y-85272893D02*
X64806000Y-85688893D01*
D35*
X55538000Y-91524000D02*
X55538000Y-92417000D01*
X93893000Y-92416000D02*
X94361000Y-91948000D01*
D36*
X65222000Y-83000000D02*
X65418000Y-82804000D01*
D35*
X59578000Y-90932000D02*
X59944000Y-90566000D01*
X60960000Y-87503000D02*
X61087000Y-87376000D01*
D36*
X69306000Y-97246000D02*
X69306000Y-95602500D01*
X72862000Y-89190000D02*
X73533000Y-88519000D01*
X61468000Y-91694000D02*
X60960000Y-91694000D01*
X58476000Y-98298000D02*
X58476000Y-98100000D01*
X73533000Y-88519000D02*
X73533000Y-88011000D01*
X65418000Y-83452000D02*
X65418000Y-82804000D01*
X60960000Y-91694000D02*
X60960000Y-92202000D01*
D35*
X60960000Y-88166000D02*
X60960000Y-87503000D01*
X64643000Y-99159000D02*
X64643000Y-99822000D01*
X85090000Y-98931000D02*
X85090000Y-98298000D01*
D36*
X74168000Y-87757000D02*
X74676000Y-87757000D01*
X58476000Y-99822000D02*
X58476000Y-100147000D01*
X73787000Y-87757000D02*
X74168000Y-87757000D01*
X64806000Y-87277500D02*
X64806000Y-88428000D01*
D35*
X57404000Y-89158000D02*
X57238000Y-89324000D01*
X59182000Y-88702000D02*
X59182000Y-88011000D01*
D36*
X65222000Y-84836000D02*
X65222000Y-84384000D01*
X64806000Y-85688893D02*
X64806000Y-87277500D01*
D35*
X88447000Y-93544000D02*
X88011000Y-93980000D01*
D36*
X89408000Y-88519000D02*
X89027000Y-88138000D01*
D35*
X93893000Y-93694000D02*
X93893000Y-92416000D01*
X45847000Y-85253000D02*
X46010000Y-85253000D01*
D36*
X61964000Y-92190000D02*
X61468000Y-91694000D01*
D35*
X90093000Y-93544000D02*
X88447000Y-93544000D01*
D36*
X70132000Y-98270000D02*
X69977000Y-98425000D01*
X65222000Y-84384000D02*
X65532000Y-84074000D01*
X65532000Y-84074000D02*
X65532000Y-83566000D01*
X64262000Y-92456000D02*
X64643000Y-92456000D01*
D35*
X93893000Y-87035000D02*
X94107000Y-87249000D01*
X59182000Y-88011000D02*
X59309000Y-87884000D01*
D36*
X64806000Y-88428000D02*
X65024000Y-88646000D01*
D35*
X85090000Y-98298000D02*
X85344000Y-98044000D01*
X90093000Y-86094000D02*
X88761000Y-86094000D01*
X55538000Y-92417000D02*
X54864000Y-93091000D01*
X57404000Y-87757000D02*
X57404000Y-89158000D01*
D36*
X90043000Y-88519000D02*
X89408000Y-88519000D01*
X58476000Y-98100000D02*
X57912000Y-97536000D01*
D35*
X93893000Y-85944000D02*
X93893000Y-87035000D01*
D36*
X74676000Y-87757000D02*
X74930000Y-88011000D01*
X73533000Y-88011000D02*
X73787000Y-87757000D01*
D35*
X45847000Y-84836000D02*
X46355000Y-84328000D01*
D36*
X69723000Y-97663000D02*
X69306000Y-97246000D01*
X71218500Y-89190000D02*
X72862000Y-89190000D01*
D35*
X45847000Y-85598000D02*
X45847000Y-85253000D01*
D36*
X65222000Y-84836000D02*
X65222000Y-85272893D01*
D35*
X88761000Y-86094000D02*
X88265000Y-85598000D01*
D36*
X65532000Y-83566000D02*
X65418000Y-83452000D01*
X70132000Y-97663000D02*
X69723000Y-97663000D01*
D35*
X59182000Y-90932000D02*
X59578000Y-90932000D01*
D36*
X62893500Y-92190000D02*
X63996000Y-92190000D01*
D35*
X45847000Y-85253000D02*
X45847000Y-84836000D01*
D36*
X70132000Y-97663000D02*
X70132000Y-98270000D01*
X58476000Y-100147000D02*
X58039000Y-100584000D01*
X63996000Y-92190000D02*
X64262000Y-92456000D01*
D35*
X64643000Y-99822000D02*
X64389000Y-100076000D01*
D36*
X62893500Y-92190000D02*
X61964000Y-92190000D01*
%TO.N,+3.3V*%
X69806000Y-95602500D02*
X69806000Y-96476000D01*
X72346000Y-88690000D02*
X72771000Y-88265000D01*
X62230000Y-84963000D02*
X61087000Y-84963000D01*
D35*
X84770000Y-104201000D02*
X84836000Y-104267000D01*
X80772000Y-77216000D02*
X80772000Y-75692000D01*
X49058000Y-89753000D02*
X47462000Y-89753000D01*
X86487000Y-105918000D02*
X86487000Y-101600000D01*
X84455000Y-83693000D02*
X82867500Y-82105500D01*
D36*
X62052880Y-88690000D02*
X61616880Y-89126000D01*
D35*
X71092000Y-97663000D02*
X71092000Y-100711000D01*
X65522000Y-74940000D02*
X65522000Y-77216000D01*
D36*
X64262000Y-84328000D02*
X63868000Y-83934000D01*
X61616880Y-89126000D02*
X60960000Y-89126000D01*
D35*
X72898000Y-110109000D02*
X80137000Y-110109000D01*
D36*
X62893500Y-88690000D02*
X62230000Y-88026500D01*
D35*
X61468000Y-105156000D02*
X62865000Y-106553000D01*
X47498000Y-89789000D02*
X47462000Y-89753000D01*
X76835000Y-87884000D02*
X77849000Y-88898000D01*
D36*
X72771000Y-87122000D02*
X73096000Y-86797000D01*
X63754000Y-85344000D02*
X63754000Y-84836000D01*
D35*
X62865000Y-106553000D02*
X63500000Y-106553000D01*
X66800000Y-100967000D02*
X66800000Y-102108000D01*
X83312000Y-104201000D02*
X84770000Y-104201000D01*
X51181000Y-104140000D02*
X51181000Y-101219000D01*
D36*
X64306000Y-87277500D02*
X64306000Y-85896000D01*
D35*
X82867500Y-82105500D02*
X82613500Y-82105500D01*
X50292000Y-88519000D02*
X49058000Y-89753000D01*
X65407000Y-102108000D02*
X65407000Y-106551000D01*
D36*
X61087000Y-84963000D02*
X60198000Y-84074000D01*
D35*
X63233000Y-82169000D02*
X60198000Y-82169000D01*
D36*
X63868000Y-83934000D02*
X63868000Y-82804000D01*
D35*
X62865000Y-106553000D02*
X53594000Y-106553000D01*
D36*
X71092000Y-97663000D02*
X71092000Y-97381000D01*
X70231000Y-96901000D02*
X69806000Y-96476000D01*
D35*
X83312000Y-105918000D02*
X86487000Y-105918000D01*
D36*
X64262000Y-84836000D02*
X64262000Y-84328000D01*
D35*
X51181000Y-101219000D02*
X47498000Y-97536000D01*
X53594000Y-82169000D02*
X50292000Y-85471000D01*
X76835000Y-87884000D02*
X75748000Y-86797000D01*
X80137000Y-110109000D02*
X83312000Y-106934000D01*
D36*
X62893500Y-88690000D02*
X62052880Y-88690000D01*
D35*
X82867500Y-82105500D02*
X80772000Y-80010000D01*
D36*
X72771000Y-88265000D02*
X72771000Y-87122000D01*
D35*
X61468000Y-99847500D02*
X61468000Y-105156000D01*
X59436000Y-99822000D02*
X61442500Y-99822000D01*
X50292000Y-85471000D02*
X50292000Y-88519000D01*
D36*
X64306000Y-85896000D02*
X63754000Y-85344000D01*
D35*
X65405000Y-106553000D02*
X65407000Y-106551000D01*
X63868000Y-82804000D02*
X63233000Y-82169000D01*
X75748000Y-86797000D02*
X74168000Y-86797000D01*
X92075000Y-83693000D02*
X84455000Y-83693000D01*
X66800000Y-102108000D02*
X65407000Y-102108000D01*
X61442500Y-99822000D02*
X61468000Y-99847500D01*
X71092000Y-100711000D02*
X68580000Y-100711000D01*
X62865000Y-110363000D02*
X62865000Y-106553000D01*
X65532000Y-74930000D02*
X65522000Y-74940000D01*
D36*
X63754000Y-84836000D02*
X64262000Y-84836000D01*
D35*
X67056000Y-100711000D02*
X66800000Y-100967000D01*
X80772000Y-80010000D02*
X80772000Y-77216000D01*
X80010000Y-74930000D02*
X65532000Y-74930000D01*
X80772000Y-75692000D02*
X80010000Y-74930000D01*
X77849000Y-88898000D02*
X78486000Y-88898000D01*
X81407000Y-104201000D02*
X83312000Y-104201000D01*
X47498000Y-97536000D02*
X47498000Y-89789000D01*
X82613500Y-82105500D02*
X76835000Y-87884000D01*
D36*
X62230000Y-88026500D02*
X62230000Y-84963000D01*
X70612000Y-96901000D02*
X70231000Y-96901000D01*
D35*
X92075000Y-96012000D02*
X92075000Y-83693000D01*
X83312000Y-106934000D02*
X83312000Y-105918000D01*
D36*
X71218500Y-88690000D02*
X72346000Y-88690000D01*
D35*
X47462000Y-89753000D02*
X45847000Y-89753000D01*
D36*
X73096000Y-86797000D02*
X74168000Y-86797000D01*
X71092000Y-97381000D02*
X70612000Y-96901000D01*
D35*
X71092000Y-108303000D02*
X72898000Y-110109000D01*
X83312000Y-105918000D02*
X83312000Y-104201000D01*
X86487000Y-101600000D02*
X92075000Y-96012000D01*
X60198000Y-82169000D02*
X53594000Y-82169000D01*
X71092000Y-100711000D02*
X71092000Y-108303000D01*
X53594000Y-106553000D02*
X51181000Y-104140000D01*
D36*
X60198000Y-84074000D02*
X60198000Y-82169000D01*
D35*
%TO.N,+3.3VA*%
X59436000Y-96139000D02*
X58801000Y-95504000D01*
X58801000Y-94742000D02*
X60381000Y-93162000D01*
X60381000Y-93162000D02*
X60960000Y-93162000D01*
D36*
X60960000Y-93162000D02*
X61580880Y-93162000D01*
D35*
X59436000Y-98298000D02*
X59436000Y-96139000D01*
X58801000Y-95504000D02*
X58801000Y-94742000D01*
D36*
X61580880Y-93162000D02*
X62052880Y-92690000D01*
X62052880Y-92690000D02*
X62893500Y-92690000D01*
D35*
X61442500Y-98298000D02*
X61468000Y-98272500D01*
X59436000Y-98298000D02*
X61442500Y-98298000D01*
D36*
%TO.N,Net-(U2-NRST)*%
X65655000Y-91690000D02*
X66167000Y-92202000D01*
X63246000Y-97028000D02*
X63754000Y-97536000D01*
X62893500Y-91690000D02*
X65655000Y-91690000D01*
X66167000Y-92837000D02*
X64770000Y-94234000D01*
X63246000Y-95250000D02*
X63246000Y-97028000D01*
X64643000Y-97536000D02*
X64643000Y-98199000D01*
X64262000Y-94234000D02*
X63246000Y-95250000D01*
X66167000Y-92202000D02*
X66167000Y-92837000D01*
X64770000Y-94234000D02*
X64262000Y-94234000D01*
X63754000Y-97536000D02*
X64643000Y-97536000D01*
%TO.N,Net-(U2-PD0)*%
X59309000Y-89789000D02*
X59182000Y-89662000D01*
X60833000Y-89789000D02*
X59309000Y-89789000D01*
X55538000Y-89624000D02*
X55538000Y-89324000D01*
X56338000Y-90424000D02*
X55538000Y-89624000D01*
X59182000Y-89662000D02*
X58928000Y-89662000D01*
X62893500Y-90690000D02*
X61734000Y-90690000D01*
X58928000Y-89662000D02*
X58166000Y-90424000D01*
X61734000Y-90690000D02*
X60833000Y-89789000D01*
X58166000Y-90424000D02*
X56338000Y-90424000D01*
%TO.N,Net-(U2-PD1)*%
X59491999Y-91892000D02*
X59182000Y-91892000D01*
X57606000Y-91892000D02*
X57238000Y-91524000D01*
X62893500Y-91190000D02*
X60575000Y-91190000D01*
X59943999Y-91440000D02*
X59491999Y-91892000D01*
X60575000Y-91190000D02*
X60325000Y-91440000D01*
X60325000Y-91440000D02*
X59943999Y-91440000D01*
X59182000Y-91892000D02*
X57606000Y-91892000D01*
%TO.N,Net-(D1-K)*%
X84836000Y-100332000D02*
X85090000Y-100078000D01*
X84836000Y-102692000D02*
X84836000Y-100332000D01*
%TO.N,Net-(J1-D-)*%
X72402000Y-90690000D02*
X72644000Y-90932000D01*
X88789000Y-90932000D02*
X89252000Y-90469000D01*
X89252000Y-90469000D02*
X90043000Y-90469000D01*
X72644000Y-90932000D02*
X88789000Y-90932000D01*
X71218500Y-90690000D02*
X72402000Y-90690000D01*
%TO.N,Net-(J1-D+)*%
X71218500Y-90190000D02*
X88747000Y-90190000D01*
X89118000Y-89819000D02*
X90043000Y-89819000D01*
X88747000Y-90190000D02*
X89118000Y-89819000D01*
%TO.N,Net-(J2-Pin_2)*%
X69850000Y-89535000D02*
X69850000Y-88646000D01*
X71218500Y-89690000D02*
X70005000Y-89690000D01*
X78232000Y-77216000D02*
X78232000Y-80264000D01*
X70005000Y-89690000D02*
X69850000Y-89535000D01*
X69850000Y-88646000D02*
X78232000Y-80264000D01*
%TO.N,Net-(J2-Pin_3)*%
X69806000Y-85896000D02*
X75692000Y-80010000D01*
X69806000Y-87277500D02*
X69806000Y-85896000D01*
X75692000Y-77216000D02*
X75692000Y-80010000D01*
%TO.N,Net-(J3-Pin_2)*%
X67306000Y-84967000D02*
X67306000Y-87277500D01*
X62982000Y-78603000D02*
X63754000Y-79375000D01*
X68961000Y-83312000D02*
X67306000Y-84967000D01*
X62982000Y-77216000D02*
X62982000Y-78603000D01*
X68834000Y-79375000D02*
X68961000Y-79502000D01*
X63754000Y-79375000D02*
X68834000Y-79375000D01*
X68961000Y-79502000D02*
X68961000Y-83312000D01*
%TO.N,Net-(J3-Pin_3)*%
X68072000Y-80010000D02*
X68199000Y-80137000D01*
X68199000Y-80137000D02*
X68199000Y-83058000D01*
X60960000Y-80010000D02*
X68072000Y-80010000D01*
X60442000Y-77216000D02*
X60442000Y-79492000D01*
X68199000Y-83058000D02*
X68072000Y-83058000D01*
X66806000Y-84332000D02*
X66806000Y-87277500D01*
X66802000Y-84328000D02*
X66806000Y-84332000D01*
X68072000Y-83058000D02*
X66802000Y-84328000D01*
X60442000Y-79492000D02*
X60960000Y-80010000D01*
%TO.N,Net-(J4-Pin_2)*%
X68306000Y-97302000D02*
X64387000Y-101221000D01*
X64387000Y-101221000D02*
X64387000Y-102108000D01*
X64387000Y-109885000D02*
X64865000Y-110363000D01*
X68306000Y-95602500D02*
X68306000Y-97302000D01*
X64387000Y-102108000D02*
X64387000Y-109885000D01*
%TO.N,Net-(J4-Pin_3)*%
X67820000Y-102108000D02*
X67820000Y-107440000D01*
X67820000Y-107440000D02*
X66865000Y-108395000D01*
X67820000Y-99439000D02*
X67820000Y-102108000D01*
X68806000Y-95602500D02*
X68806000Y-98453000D01*
X68806000Y-98453000D02*
X67820000Y-99439000D01*
%TO.N,Net-(SW1-B)*%
X48653000Y-88253000D02*
X45847000Y-88253000D01*
X49022000Y-87884000D02*
X48653000Y-88253000D01*
X49022000Y-84965000D02*
X49022000Y-87884000D01*
%TO.N,Net-(U2-BOOT0)*%
X66929000Y-81407000D02*
X66421000Y-80899000D01*
X66294000Y-83820000D02*
X66929000Y-83185000D01*
X66294000Y-84527106D02*
X66294000Y-83820000D01*
X50294000Y-83945000D02*
X49022000Y-83945000D01*
X66306000Y-87277500D02*
X66306000Y-84539106D01*
X66929000Y-83185000D02*
X66929000Y-81407000D01*
X53340000Y-80899000D02*
X50294000Y-83945000D01*
X66421000Y-80899000D02*
X53340000Y-80899000D01*
X66306000Y-84539106D02*
X66294000Y-84527106D01*
%TD*%
%TA.AperFunction,Conductor*%
%TO.N,VBUS*%
G36*
X90998937Y-90942836D02*
G01*
X91046228Y-90994269D01*
X91059000Y-91049081D01*
X91059000Y-91450507D01*
X91039315Y-91517546D01*
X90986511Y-91563301D01*
X90942735Y-91574266D01*
X89026998Y-91694000D01*
X77089001Y-96773999D01*
X77089000Y-96774001D01*
X77089000Y-98936000D01*
X77069315Y-99003039D01*
X77016511Y-99048794D01*
X76965000Y-99060000D01*
X75057000Y-99060000D01*
X75057000Y-101984000D01*
X75037315Y-102051039D01*
X74984511Y-102096794D01*
X74933000Y-102108000D01*
X73022000Y-102108000D01*
X72954961Y-102088315D01*
X72909206Y-102035511D01*
X72898000Y-101984000D01*
X72898000Y-98295000D01*
X72917685Y-98227961D01*
X72970489Y-98182206D01*
X73022000Y-98171000D01*
X75438000Y-98171000D01*
X75438000Y-97235967D01*
X75457685Y-97168928D01*
X75510489Y-97123173D01*
X75512092Y-97122454D01*
X88272204Y-91517546D01*
X88555813Y-91392970D01*
X88605681Y-91382500D01*
X88756738Y-91382500D01*
X88770620Y-91383279D01*
X88783421Y-91384722D01*
X88806033Y-91387270D01*
X88806033Y-91387269D01*
X88806035Y-91387270D01*
X88862236Y-91376635D01*
X88866726Y-91375872D01*
X88923287Y-91367348D01*
X88923291Y-91367345D01*
X88931447Y-91364830D01*
X88939469Y-91362024D01*
X88939470Y-91362023D01*
X88939472Y-91362023D01*
X88990088Y-91335270D01*
X88994093Y-91333248D01*
X89045642Y-91308425D01*
X89045643Y-91308423D01*
X89045645Y-91308423D01*
X89052695Y-91303616D01*
X89059534Y-91298567D01*
X89059538Y-91298566D01*
X89099974Y-91258128D01*
X89103260Y-91254962D01*
X89145194Y-91216055D01*
X89145196Y-91216050D01*
X89150987Y-91208790D01*
X89151643Y-91209313D01*
X89161032Y-91197070D01*
X89327284Y-91030817D01*
X89388607Y-90997333D01*
X89414965Y-90994499D01*
X90737856Y-90994499D01*
X90737864Y-90994499D01*
X90737879Y-90994497D01*
X90737882Y-90994497D01*
X90762987Y-90991586D01*
X90762988Y-90991585D01*
X90762991Y-90991585D01*
X90865765Y-90946206D01*
X90865765Y-90946205D01*
X90876276Y-90941565D01*
X90876862Y-90942892D01*
X90931347Y-90925135D01*
X90998937Y-90942836D01*
G37*
%TD.AperFunction*%
%TD*%
%TA.AperFunction,Conductor*%
%TO.N,+3.3V*%
G36*
X77135331Y-99355734D02*
G01*
X77191265Y-99397604D01*
X77215684Y-99463068D01*
X77216000Y-99471917D01*
X77216000Y-103378000D01*
X82550119Y-103253950D01*
X82617596Y-103272070D01*
X82664566Y-103323796D01*
X82677000Y-103377916D01*
X82677000Y-105413000D01*
X82657315Y-105480039D01*
X82604511Y-105525794D01*
X82553000Y-105537000D01*
X78740000Y-105537000D01*
X78740000Y-108207000D01*
X78720315Y-108274039D01*
X78667511Y-108319794D01*
X78616000Y-108331000D01*
X74165000Y-108331000D01*
X74097961Y-108311315D01*
X74052206Y-108258511D01*
X74041000Y-108207000D01*
X74041000Y-105661000D01*
X74060685Y-105593961D01*
X74113489Y-105548206D01*
X74165000Y-105537000D01*
X75184000Y-105537000D01*
X75184000Y-102384798D01*
X75203685Y-102317759D01*
X75226800Y-102291083D01*
X75237375Y-102281920D01*
X75237381Y-102281913D01*
X75237387Y-102281908D01*
X75279548Y-102237192D01*
X75279553Y-102237187D01*
X75330439Y-102137111D01*
X75350124Y-102070072D01*
X75362500Y-101984000D01*
X75362500Y-99489500D01*
X75382185Y-99422461D01*
X75434989Y-99376706D01*
X75486500Y-99365500D01*
X76964990Y-99365500D01*
X76965000Y-99365500D01*
X77029941Y-99358518D01*
X77065642Y-99350751D01*
X77135331Y-99355734D01*
G37*
%TD.AperFunction*%
%TD*%
%TA.AperFunction,Conductor*%
%TO.N,GND*%
G36*
X79826039Y-97174685D02*
G01*
X79871794Y-97227489D01*
X79883000Y-97279000D01*
X79883000Y-101473000D01*
X83315000Y-101473000D01*
X83382039Y-101492685D01*
X83427794Y-101545489D01*
X83439000Y-101597000D01*
X83439000Y-102873000D01*
X83419315Y-102940039D01*
X83366511Y-102985794D01*
X83315000Y-102997000D01*
X82766680Y-102997000D01*
X82713063Y-102984809D01*
X82696827Y-102977023D01*
X82629355Y-102958904D01*
X82629345Y-102958902D01*
X82543011Y-102948532D01*
X80460407Y-102996966D01*
X80457524Y-102997000D01*
X77721000Y-102997000D01*
X77653961Y-102977315D01*
X77608206Y-102924511D01*
X77597000Y-102873000D01*
X77597000Y-97279000D01*
X77616685Y-97211961D01*
X77669489Y-97166206D01*
X77721000Y-97155000D01*
X79759000Y-97155000D01*
X79826039Y-97174685D01*
G37*
%TD.AperFunction*%
%TD*%
M02*
