%TF.GenerationSoftware,KiCad,Pcbnew,7.0.10*%
%TF.CreationDate,2024-01-08T00:56:05+00:00*%
%TF.ProjectId,green_storm,67726565-6e5f-4737-946f-726d2e6b6963,0.1*%
%TF.SameCoordinates,Original*%
%TF.FileFunction,Legend,Top*%
%TF.FilePolarity,Positive*%
%FSLAX46Y46*%
G04 Gerber Fmt 4.6, Leading zero omitted, Abs format (unit mm)*
G04 Created by KiCad (PCBNEW 7.0.10) date 2024-01-08 00:56:05*
%MOMM*%
%LPD*%
G01*
G04 APERTURE LIST*
%ADD10C,0.200000*%
%ADD11C,0.150000*%
%ADD12C,0.125000*%
%ADD13C,0.120000*%
G04 APERTURE END LIST*
D10*
X56436197Y-110580623D02*
X56436197Y-109330623D01*
X57745720Y-110461576D02*
X57686196Y-110521100D01*
X57686196Y-110521100D02*
X57507625Y-110580623D01*
X57507625Y-110580623D02*
X57388577Y-110580623D01*
X57388577Y-110580623D02*
X57210006Y-110521100D01*
X57210006Y-110521100D02*
X57090958Y-110402052D01*
X57090958Y-110402052D02*
X57031435Y-110283004D01*
X57031435Y-110283004D02*
X56971911Y-110044909D01*
X56971911Y-110044909D02*
X56971911Y-109866338D01*
X56971911Y-109866338D02*
X57031435Y-109628242D01*
X57031435Y-109628242D02*
X57090958Y-109509195D01*
X57090958Y-109509195D02*
X57210006Y-109390147D01*
X57210006Y-109390147D02*
X57388577Y-109330623D01*
X57388577Y-109330623D02*
X57507625Y-109330623D01*
X57507625Y-109330623D02*
X57686196Y-109390147D01*
X57686196Y-109390147D02*
X57745720Y-109449671D01*
X58221911Y-109449671D02*
X58281435Y-109390147D01*
X58281435Y-109390147D02*
X58400482Y-109330623D01*
X58400482Y-109330623D02*
X58698101Y-109330623D01*
X58698101Y-109330623D02*
X58817149Y-109390147D01*
X58817149Y-109390147D02*
X58876673Y-109449671D01*
X58876673Y-109449671D02*
X58936196Y-109568719D01*
X58936196Y-109568719D02*
X58936196Y-109687766D01*
X58936196Y-109687766D02*
X58876673Y-109866338D01*
X58876673Y-109866338D02*
X58162387Y-110580623D01*
X58162387Y-110580623D02*
X58936196Y-110580623D01*
X42882863Y-93415861D02*
X43061435Y-93475385D01*
X43061435Y-93475385D02*
X43120958Y-93534909D01*
X43120958Y-93534909D02*
X43180482Y-93653957D01*
X43180482Y-93653957D02*
X43180482Y-93832528D01*
X43180482Y-93832528D02*
X43120958Y-93951576D01*
X43120958Y-93951576D02*
X43061435Y-94011100D01*
X43061435Y-94011100D02*
X42942387Y-94070623D01*
X42942387Y-94070623D02*
X42466197Y-94070623D01*
X42466197Y-94070623D02*
X42466197Y-92820623D01*
X42466197Y-92820623D02*
X42882863Y-92820623D01*
X42882863Y-92820623D02*
X43001911Y-92880147D01*
X43001911Y-92880147D02*
X43061435Y-92939671D01*
X43061435Y-92939671D02*
X43120958Y-93058719D01*
X43120958Y-93058719D02*
X43120958Y-93177766D01*
X43120958Y-93177766D02*
X43061435Y-93296814D01*
X43061435Y-93296814D02*
X43001911Y-93356338D01*
X43001911Y-93356338D02*
X42882863Y-93415861D01*
X42882863Y-93415861D02*
X42466197Y-93415861D01*
X43954292Y-92820623D02*
X44192387Y-92820623D01*
X44192387Y-92820623D02*
X44311435Y-92880147D01*
X44311435Y-92880147D02*
X44430482Y-92999195D01*
X44430482Y-92999195D02*
X44490006Y-93237290D01*
X44490006Y-93237290D02*
X44490006Y-93653957D01*
X44490006Y-93653957D02*
X44430482Y-93892052D01*
X44430482Y-93892052D02*
X44311435Y-94011100D01*
X44311435Y-94011100D02*
X44192387Y-94070623D01*
X44192387Y-94070623D02*
X43954292Y-94070623D01*
X43954292Y-94070623D02*
X43835244Y-94011100D01*
X43835244Y-94011100D02*
X43716197Y-93892052D01*
X43716197Y-93892052D02*
X43656673Y-93653957D01*
X43656673Y-93653957D02*
X43656673Y-93237290D01*
X43656673Y-93237290D02*
X43716197Y-92999195D01*
X43716197Y-92999195D02*
X43835244Y-92880147D01*
X43835244Y-92880147D02*
X43954292Y-92820623D01*
X45263816Y-92820623D02*
X45501911Y-92820623D01*
X45501911Y-92820623D02*
X45620959Y-92880147D01*
X45620959Y-92880147D02*
X45740006Y-92999195D01*
X45740006Y-92999195D02*
X45799530Y-93237290D01*
X45799530Y-93237290D02*
X45799530Y-93653957D01*
X45799530Y-93653957D02*
X45740006Y-93892052D01*
X45740006Y-93892052D02*
X45620959Y-94011100D01*
X45620959Y-94011100D02*
X45501911Y-94070623D01*
X45501911Y-94070623D02*
X45263816Y-94070623D01*
X45263816Y-94070623D02*
X45144768Y-94011100D01*
X45144768Y-94011100D02*
X45025721Y-93892052D01*
X45025721Y-93892052D02*
X44966197Y-93653957D01*
X44966197Y-93653957D02*
X44966197Y-93237290D01*
X44966197Y-93237290D02*
X45025721Y-92999195D01*
X45025721Y-92999195D02*
X45144768Y-92880147D01*
X45144768Y-92880147D02*
X45263816Y-92820623D01*
X46156673Y-92820623D02*
X46870959Y-92820623D01*
X46513816Y-94070623D02*
X46513816Y-92820623D01*
X87424197Y-95360623D02*
X87424197Y-96372528D01*
X87424197Y-96372528D02*
X87483720Y-96491576D01*
X87483720Y-96491576D02*
X87543244Y-96551100D01*
X87543244Y-96551100D02*
X87662292Y-96610623D01*
X87662292Y-96610623D02*
X87900387Y-96610623D01*
X87900387Y-96610623D02*
X88019435Y-96551100D01*
X88019435Y-96551100D02*
X88078958Y-96491576D01*
X88078958Y-96491576D02*
X88138482Y-96372528D01*
X88138482Y-96372528D02*
X88138482Y-95360623D01*
X88674197Y-96551100D02*
X88852768Y-96610623D01*
X88852768Y-96610623D02*
X89150387Y-96610623D01*
X89150387Y-96610623D02*
X89269435Y-96551100D01*
X89269435Y-96551100D02*
X89328959Y-96491576D01*
X89328959Y-96491576D02*
X89388482Y-96372528D01*
X89388482Y-96372528D02*
X89388482Y-96253480D01*
X89388482Y-96253480D02*
X89328959Y-96134433D01*
X89328959Y-96134433D02*
X89269435Y-96074909D01*
X89269435Y-96074909D02*
X89150387Y-96015385D01*
X89150387Y-96015385D02*
X88912292Y-95955861D01*
X88912292Y-95955861D02*
X88793244Y-95896338D01*
X88793244Y-95896338D02*
X88733721Y-95836814D01*
X88733721Y-95836814D02*
X88674197Y-95717766D01*
X88674197Y-95717766D02*
X88674197Y-95598719D01*
X88674197Y-95598719D02*
X88733721Y-95479671D01*
X88733721Y-95479671D02*
X88793244Y-95420147D01*
X88793244Y-95420147D02*
X88912292Y-95360623D01*
X88912292Y-95360623D02*
X89209911Y-95360623D01*
X89209911Y-95360623D02*
X89388482Y-95420147D01*
X90340863Y-95955861D02*
X90519435Y-96015385D01*
X90519435Y-96015385D02*
X90578958Y-96074909D01*
X90578958Y-96074909D02*
X90638482Y-96193957D01*
X90638482Y-96193957D02*
X90638482Y-96372528D01*
X90638482Y-96372528D02*
X90578958Y-96491576D01*
X90578958Y-96491576D02*
X90519435Y-96551100D01*
X90519435Y-96551100D02*
X90400387Y-96610623D01*
X90400387Y-96610623D02*
X89924197Y-96610623D01*
X89924197Y-96610623D02*
X89924197Y-95360623D01*
X89924197Y-95360623D02*
X90340863Y-95360623D01*
X90340863Y-95360623D02*
X90459911Y-95420147D01*
X90459911Y-95420147D02*
X90519435Y-95479671D01*
X90519435Y-95479671D02*
X90578958Y-95598719D01*
X90578958Y-95598719D02*
X90578958Y-95717766D01*
X90578958Y-95717766D02*
X90519435Y-95836814D01*
X90519435Y-95836814D02*
X90459911Y-95896338D01*
X90459911Y-95896338D02*
X90340863Y-95955861D01*
X90340863Y-95955861D02*
X89924197Y-95955861D01*
X59357197Y-79485623D02*
X59357197Y-80497528D01*
X59357197Y-80497528D02*
X59416720Y-80616576D01*
X59416720Y-80616576D02*
X59476244Y-80676100D01*
X59476244Y-80676100D02*
X59595292Y-80735623D01*
X59595292Y-80735623D02*
X59833387Y-80735623D01*
X59833387Y-80735623D02*
X59952435Y-80676100D01*
X59952435Y-80676100D02*
X60011958Y-80616576D01*
X60011958Y-80616576D02*
X60071482Y-80497528D01*
X60071482Y-80497528D02*
X60071482Y-79485623D01*
X60607197Y-80378480D02*
X61202435Y-80378480D01*
X60488149Y-80735623D02*
X60904816Y-79485623D01*
X60904816Y-79485623D02*
X61321482Y-80735623D01*
X62452435Y-80735623D02*
X62035769Y-80140385D01*
X61738150Y-80735623D02*
X61738150Y-79485623D01*
X61738150Y-79485623D02*
X62214340Y-79485623D01*
X62214340Y-79485623D02*
X62333388Y-79545147D01*
X62333388Y-79545147D02*
X62392911Y-79604671D01*
X62392911Y-79604671D02*
X62452435Y-79723719D01*
X62452435Y-79723719D02*
X62452435Y-79902290D01*
X62452435Y-79902290D02*
X62392911Y-80021338D01*
X62392911Y-80021338D02*
X62333388Y-80080861D01*
X62333388Y-80080861D02*
X62214340Y-80140385D01*
X62214340Y-80140385D02*
X61738150Y-80140385D01*
X62809578Y-79485623D02*
X63523864Y-79485623D01*
X63166721Y-80735623D02*
X63166721Y-79485623D01*
X84062673Y-76829219D02*
X84062673Y-75829219D01*
X84062673Y-76305409D02*
X84634101Y-76305409D01*
X84634101Y-76829219D02*
X84634101Y-75829219D01*
X85253149Y-76829219D02*
X85157911Y-76781600D01*
X85157911Y-76781600D02*
X85110292Y-76733980D01*
X85110292Y-76733980D02*
X85062673Y-76638742D01*
X85062673Y-76638742D02*
X85062673Y-76353028D01*
X85062673Y-76353028D02*
X85110292Y-76257790D01*
X85110292Y-76257790D02*
X85157911Y-76210171D01*
X85157911Y-76210171D02*
X85253149Y-76162552D01*
X85253149Y-76162552D02*
X85396006Y-76162552D01*
X85396006Y-76162552D02*
X85491244Y-76210171D01*
X85491244Y-76210171D02*
X85538863Y-76257790D01*
X85538863Y-76257790D02*
X85586482Y-76353028D01*
X85586482Y-76353028D02*
X85586482Y-76638742D01*
X85586482Y-76638742D02*
X85538863Y-76733980D01*
X85538863Y-76733980D02*
X85491244Y-76781600D01*
X85491244Y-76781600D02*
X85396006Y-76829219D01*
X85396006Y-76829219D02*
X85253149Y-76829219D01*
X85872197Y-76162552D02*
X86253149Y-76162552D01*
X86015054Y-75829219D02*
X86015054Y-76686361D01*
X86015054Y-76686361D02*
X86062673Y-76781600D01*
X86062673Y-76781600D02*
X86157911Y-76829219D01*
X86157911Y-76829219D02*
X86253149Y-76829219D01*
X86538864Y-76781600D02*
X86634102Y-76829219D01*
X86634102Y-76829219D02*
X86824578Y-76829219D01*
X86824578Y-76829219D02*
X86919816Y-76781600D01*
X86919816Y-76781600D02*
X86967435Y-76686361D01*
X86967435Y-76686361D02*
X86967435Y-76638742D01*
X86967435Y-76638742D02*
X86919816Y-76543504D01*
X86919816Y-76543504D02*
X86824578Y-76495885D01*
X86824578Y-76495885D02*
X86681721Y-76495885D01*
X86681721Y-76495885D02*
X86586483Y-76448266D01*
X86586483Y-76448266D02*
X86538864Y-76353028D01*
X86538864Y-76353028D02*
X86538864Y-76305409D01*
X86538864Y-76305409D02*
X86586483Y-76210171D01*
X86586483Y-76210171D02*
X86681721Y-76162552D01*
X86681721Y-76162552D02*
X86824578Y-76162552D01*
X86824578Y-76162552D02*
X86919816Y-76210171D01*
X87824578Y-76829219D02*
X87824578Y-76305409D01*
X87824578Y-76305409D02*
X87776959Y-76210171D01*
X87776959Y-76210171D02*
X87681721Y-76162552D01*
X87681721Y-76162552D02*
X87491245Y-76162552D01*
X87491245Y-76162552D02*
X87396007Y-76210171D01*
X87824578Y-76781600D02*
X87729340Y-76829219D01*
X87729340Y-76829219D02*
X87491245Y-76829219D01*
X87491245Y-76829219D02*
X87396007Y-76781600D01*
X87396007Y-76781600D02*
X87348388Y-76686361D01*
X87348388Y-76686361D02*
X87348388Y-76591123D01*
X87348388Y-76591123D02*
X87396007Y-76495885D01*
X87396007Y-76495885D02*
X87491245Y-76448266D01*
X87491245Y-76448266D02*
X87729340Y-76448266D01*
X87729340Y-76448266D02*
X87824578Y-76400647D01*
X88729340Y-76162552D02*
X88729340Y-76829219D01*
X88300769Y-76162552D02*
X88300769Y-76686361D01*
X88300769Y-76686361D02*
X88348388Y-76781600D01*
X88348388Y-76781600D02*
X88443626Y-76829219D01*
X88443626Y-76829219D02*
X88586483Y-76829219D01*
X88586483Y-76829219D02*
X88681721Y-76781600D01*
X88681721Y-76781600D02*
X88729340Y-76733980D01*
X89634102Y-76781600D02*
X89538864Y-76829219D01*
X89538864Y-76829219D02*
X89348388Y-76829219D01*
X89348388Y-76829219D02*
X89253150Y-76781600D01*
X89253150Y-76781600D02*
X89205531Y-76733980D01*
X89205531Y-76733980D02*
X89157912Y-76638742D01*
X89157912Y-76638742D02*
X89157912Y-76353028D01*
X89157912Y-76353028D02*
X89205531Y-76257790D01*
X89205531Y-76257790D02*
X89253150Y-76210171D01*
X89253150Y-76210171D02*
X89348388Y-76162552D01*
X89348388Y-76162552D02*
X89538864Y-76162552D01*
X89538864Y-76162552D02*
X89634102Y-76210171D01*
X90443626Y-76781600D02*
X90348388Y-76829219D01*
X90348388Y-76829219D02*
X90157912Y-76829219D01*
X90157912Y-76829219D02*
X90062674Y-76781600D01*
X90062674Y-76781600D02*
X90015055Y-76686361D01*
X90015055Y-76686361D02*
X90015055Y-76305409D01*
X90015055Y-76305409D02*
X90062674Y-76210171D01*
X90062674Y-76210171D02*
X90157912Y-76162552D01*
X90157912Y-76162552D02*
X90348388Y-76162552D01*
X90348388Y-76162552D02*
X90443626Y-76210171D01*
X90443626Y-76210171D02*
X90491245Y-76305409D01*
X90491245Y-76305409D02*
X90491245Y-76400647D01*
X90491245Y-76400647D02*
X90015055Y-76495885D01*
X92157912Y-76829219D02*
X91681722Y-76829219D01*
X91681722Y-76829219D02*
X91681722Y-75829219D01*
X92919817Y-76829219D02*
X92919817Y-76305409D01*
X92919817Y-76305409D02*
X92872198Y-76210171D01*
X92872198Y-76210171D02*
X92776960Y-76162552D01*
X92776960Y-76162552D02*
X92586484Y-76162552D01*
X92586484Y-76162552D02*
X92491246Y-76210171D01*
X92919817Y-76781600D02*
X92824579Y-76829219D01*
X92824579Y-76829219D02*
X92586484Y-76829219D01*
X92586484Y-76829219D02*
X92491246Y-76781600D01*
X92491246Y-76781600D02*
X92443627Y-76686361D01*
X92443627Y-76686361D02*
X92443627Y-76591123D01*
X92443627Y-76591123D02*
X92491246Y-76495885D01*
X92491246Y-76495885D02*
X92586484Y-76448266D01*
X92586484Y-76448266D02*
X92824579Y-76448266D01*
X92824579Y-76448266D02*
X92919817Y-76400647D01*
X93396008Y-76829219D02*
X93396008Y-75829219D01*
X93396008Y-76210171D02*
X93491246Y-76162552D01*
X93491246Y-76162552D02*
X93681722Y-76162552D01*
X93681722Y-76162552D02*
X93776960Y-76210171D01*
X93776960Y-76210171D02*
X93824579Y-76257790D01*
X93824579Y-76257790D02*
X93872198Y-76353028D01*
X93872198Y-76353028D02*
X93872198Y-76638742D01*
X93872198Y-76638742D02*
X93824579Y-76733980D01*
X93824579Y-76733980D02*
X93776960Y-76781600D01*
X93776960Y-76781600D02*
X93681722Y-76829219D01*
X93681722Y-76829219D02*
X93491246Y-76829219D01*
X93491246Y-76829219D02*
X93396008Y-76781600D01*
X94253151Y-76781600D02*
X94348389Y-76829219D01*
X94348389Y-76829219D02*
X94538865Y-76829219D01*
X94538865Y-76829219D02*
X94634103Y-76781600D01*
X94634103Y-76781600D02*
X94681722Y-76686361D01*
X94681722Y-76686361D02*
X94681722Y-76638742D01*
X94681722Y-76638742D02*
X94634103Y-76543504D01*
X94634103Y-76543504D02*
X94538865Y-76495885D01*
X94538865Y-76495885D02*
X94396008Y-76495885D01*
X94396008Y-76495885D02*
X94300770Y-76448266D01*
X94300770Y-76448266D02*
X94253151Y-76353028D01*
X94253151Y-76353028D02*
X94253151Y-76305409D01*
X94253151Y-76305409D02*
X94300770Y-76210171D01*
X94300770Y-76210171D02*
X94396008Y-76162552D01*
X94396008Y-76162552D02*
X94538865Y-76162552D01*
X94538865Y-76162552D02*
X94634103Y-76210171D01*
X75172673Y-80930100D02*
X75351244Y-80989623D01*
X75351244Y-80989623D02*
X75648863Y-80989623D01*
X75648863Y-80989623D02*
X75767911Y-80930100D01*
X75767911Y-80930100D02*
X75827435Y-80870576D01*
X75827435Y-80870576D02*
X75886958Y-80751528D01*
X75886958Y-80751528D02*
X75886958Y-80632480D01*
X75886958Y-80632480D02*
X75827435Y-80513433D01*
X75827435Y-80513433D02*
X75767911Y-80453909D01*
X75767911Y-80453909D02*
X75648863Y-80394385D01*
X75648863Y-80394385D02*
X75410768Y-80334861D01*
X75410768Y-80334861D02*
X75291720Y-80275338D01*
X75291720Y-80275338D02*
X75232197Y-80215814D01*
X75232197Y-80215814D02*
X75172673Y-80096766D01*
X75172673Y-80096766D02*
X75172673Y-79977719D01*
X75172673Y-79977719D02*
X75232197Y-79858671D01*
X75232197Y-79858671D02*
X75291720Y-79799147D01*
X75291720Y-79799147D02*
X75410768Y-79739623D01*
X75410768Y-79739623D02*
X75708387Y-79739623D01*
X75708387Y-79739623D02*
X75886958Y-79799147D01*
X76303625Y-79739623D02*
X76601244Y-80989623D01*
X76601244Y-80989623D02*
X76839339Y-80096766D01*
X76839339Y-80096766D02*
X77077434Y-80989623D01*
X77077434Y-80989623D02*
X77375054Y-79739623D01*
X77851244Y-80989623D02*
X77851244Y-79739623D01*
X77851244Y-79739623D02*
X78148863Y-79739623D01*
X78148863Y-79739623D02*
X78327434Y-79799147D01*
X78327434Y-79799147D02*
X78446482Y-79918195D01*
X78446482Y-79918195D02*
X78506005Y-80037242D01*
X78506005Y-80037242D02*
X78565529Y-80275338D01*
X78565529Y-80275338D02*
X78565529Y-80453909D01*
X78565529Y-80453909D02*
X78506005Y-80692004D01*
X78506005Y-80692004D02*
X78446482Y-80811052D01*
X78446482Y-80811052D02*
X78327434Y-80930100D01*
X78327434Y-80930100D02*
X78148863Y-80989623D01*
X78148863Y-80989623D02*
X77851244Y-80989623D01*
D11*
X59989819Y-110696333D02*
X60704104Y-110696333D01*
X60704104Y-110696333D02*
X60846961Y-110743952D01*
X60846961Y-110743952D02*
X60942200Y-110839190D01*
X60942200Y-110839190D02*
X60989819Y-110982047D01*
X60989819Y-110982047D02*
X60989819Y-111077285D01*
X60323152Y-109791571D02*
X60989819Y-109791571D01*
X59942200Y-110029666D02*
X60656485Y-110267761D01*
X60656485Y-110267761D02*
X60656485Y-109648714D01*
X63605580Y-99829857D02*
X63653200Y-99877476D01*
X63653200Y-99877476D02*
X63700819Y-100020333D01*
X63700819Y-100020333D02*
X63700819Y-100115571D01*
X63700819Y-100115571D02*
X63653200Y-100258428D01*
X63653200Y-100258428D02*
X63557961Y-100353666D01*
X63557961Y-100353666D02*
X63462723Y-100401285D01*
X63462723Y-100401285D02*
X63272247Y-100448904D01*
X63272247Y-100448904D02*
X63129390Y-100448904D01*
X63129390Y-100448904D02*
X62938914Y-100401285D01*
X62938914Y-100401285D02*
X62843676Y-100353666D01*
X62843676Y-100353666D02*
X62748438Y-100258428D01*
X62748438Y-100258428D02*
X62700819Y-100115571D01*
X62700819Y-100115571D02*
X62700819Y-100020333D01*
X62700819Y-100020333D02*
X62748438Y-99877476D01*
X62748438Y-99877476D02*
X62796057Y-99829857D01*
X63700819Y-98877476D02*
X63700819Y-99448904D01*
X63700819Y-99163190D02*
X62700819Y-99163190D01*
X62700819Y-99163190D02*
X62843676Y-99258428D01*
X62843676Y-99258428D02*
X62938914Y-99353666D01*
X62938914Y-99353666D02*
X62986533Y-99448904D01*
X63700819Y-97925095D02*
X63700819Y-98496523D01*
X63700819Y-98210809D02*
X62700819Y-98210809D01*
X62700819Y-98210809D02*
X62843676Y-98306047D01*
X62843676Y-98306047D02*
X62938914Y-98401285D01*
X62938914Y-98401285D02*
X62986533Y-98496523D01*
X57396142Y-87100580D02*
X57348523Y-87148200D01*
X57348523Y-87148200D02*
X57205666Y-87195819D01*
X57205666Y-87195819D02*
X57110428Y-87195819D01*
X57110428Y-87195819D02*
X56967571Y-87148200D01*
X56967571Y-87148200D02*
X56872333Y-87052961D01*
X56872333Y-87052961D02*
X56824714Y-86957723D01*
X56824714Y-86957723D02*
X56777095Y-86767247D01*
X56777095Y-86767247D02*
X56777095Y-86624390D01*
X56777095Y-86624390D02*
X56824714Y-86433914D01*
X56824714Y-86433914D02*
X56872333Y-86338676D01*
X56872333Y-86338676D02*
X56967571Y-86243438D01*
X56967571Y-86243438D02*
X57110428Y-86195819D01*
X57110428Y-86195819D02*
X57205666Y-86195819D01*
X57205666Y-86195819D02*
X57348523Y-86243438D01*
X57348523Y-86243438D02*
X57396142Y-86291057D01*
X58348523Y-87195819D02*
X57777095Y-87195819D01*
X58062809Y-87195819D02*
X58062809Y-86195819D01*
X58062809Y-86195819D02*
X57967571Y-86338676D01*
X57967571Y-86338676D02*
X57872333Y-86433914D01*
X57872333Y-86433914D02*
X57777095Y-86481533D01*
X58729476Y-86291057D02*
X58777095Y-86243438D01*
X58777095Y-86243438D02*
X58872333Y-86195819D01*
X58872333Y-86195819D02*
X59110428Y-86195819D01*
X59110428Y-86195819D02*
X59205666Y-86243438D01*
X59205666Y-86243438D02*
X59253285Y-86291057D01*
X59253285Y-86291057D02*
X59300904Y-86386295D01*
X59300904Y-86386295D02*
X59300904Y-86481533D01*
X59300904Y-86481533D02*
X59253285Y-86624390D01*
X59253285Y-86624390D02*
X58681857Y-87195819D01*
X58681857Y-87195819D02*
X59300904Y-87195819D01*
X84097905Y-108277819D02*
X84097905Y-107277819D01*
X84097905Y-107277819D02*
X84336000Y-107277819D01*
X84336000Y-107277819D02*
X84478857Y-107325438D01*
X84478857Y-107325438D02*
X84574095Y-107420676D01*
X84574095Y-107420676D02*
X84621714Y-107515914D01*
X84621714Y-107515914D02*
X84669333Y-107706390D01*
X84669333Y-107706390D02*
X84669333Y-107849247D01*
X84669333Y-107849247D02*
X84621714Y-108039723D01*
X84621714Y-108039723D02*
X84574095Y-108134961D01*
X84574095Y-108134961D02*
X84478857Y-108230200D01*
X84478857Y-108230200D02*
X84336000Y-108277819D01*
X84336000Y-108277819D02*
X84097905Y-108277819D01*
X85621714Y-108277819D02*
X85050286Y-108277819D01*
X85336000Y-108277819D02*
X85336000Y-107277819D01*
X85336000Y-107277819D02*
X85240762Y-107420676D01*
X85240762Y-107420676D02*
X85145524Y-107515914D01*
X85145524Y-107515914D02*
X85050286Y-107563533D01*
X81240333Y-101070580D02*
X81192714Y-101118200D01*
X81192714Y-101118200D02*
X81049857Y-101165819D01*
X81049857Y-101165819D02*
X80954619Y-101165819D01*
X80954619Y-101165819D02*
X80811762Y-101118200D01*
X80811762Y-101118200D02*
X80716524Y-101022961D01*
X80716524Y-101022961D02*
X80668905Y-100927723D01*
X80668905Y-100927723D02*
X80621286Y-100737247D01*
X80621286Y-100737247D02*
X80621286Y-100594390D01*
X80621286Y-100594390D02*
X80668905Y-100403914D01*
X80668905Y-100403914D02*
X80716524Y-100308676D01*
X80716524Y-100308676D02*
X80811762Y-100213438D01*
X80811762Y-100213438D02*
X80954619Y-100165819D01*
X80954619Y-100165819D02*
X81049857Y-100165819D01*
X81049857Y-100165819D02*
X81192714Y-100213438D01*
X81192714Y-100213438D02*
X81240333Y-100261057D01*
X81621286Y-100261057D02*
X81668905Y-100213438D01*
X81668905Y-100213438D02*
X81764143Y-100165819D01*
X81764143Y-100165819D02*
X82002238Y-100165819D01*
X82002238Y-100165819D02*
X82097476Y-100213438D01*
X82097476Y-100213438D02*
X82145095Y-100261057D01*
X82145095Y-100261057D02*
X82192714Y-100356295D01*
X82192714Y-100356295D02*
X82192714Y-100451533D01*
X82192714Y-100451533D02*
X82145095Y-100594390D01*
X82145095Y-100594390D02*
X81573667Y-101165819D01*
X81573667Y-101165819D02*
X82192714Y-101165819D01*
X80464819Y-89066666D02*
X79988628Y-89399999D01*
X80464819Y-89638094D02*
X79464819Y-89638094D01*
X79464819Y-89638094D02*
X79464819Y-89257142D01*
X79464819Y-89257142D02*
X79512438Y-89161904D01*
X79512438Y-89161904D02*
X79560057Y-89114285D01*
X79560057Y-89114285D02*
X79655295Y-89066666D01*
X79655295Y-89066666D02*
X79798152Y-89066666D01*
X79798152Y-89066666D02*
X79893390Y-89114285D01*
X79893390Y-89114285D02*
X79941009Y-89161904D01*
X79941009Y-89161904D02*
X79988628Y-89257142D01*
X79988628Y-89257142D02*
X79988628Y-89638094D01*
X79464819Y-88733332D02*
X79464819Y-88114285D01*
X79464819Y-88114285D02*
X79845771Y-88447618D01*
X79845771Y-88447618D02*
X79845771Y-88304761D01*
X79845771Y-88304761D02*
X79893390Y-88209523D01*
X79893390Y-88209523D02*
X79941009Y-88161904D01*
X79941009Y-88161904D02*
X80036247Y-88114285D01*
X80036247Y-88114285D02*
X80274342Y-88114285D01*
X80274342Y-88114285D02*
X80369580Y-88161904D01*
X80369580Y-88161904D02*
X80417200Y-88209523D01*
X80417200Y-88209523D02*
X80464819Y-88304761D01*
X80464819Y-88304761D02*
X80464819Y-88590475D01*
X80464819Y-88590475D02*
X80417200Y-88685713D01*
X80417200Y-88685713D02*
X80369580Y-88733332D01*
X72096333Y-96752580D02*
X72048714Y-96800200D01*
X72048714Y-96800200D02*
X71905857Y-96847819D01*
X71905857Y-96847819D02*
X71810619Y-96847819D01*
X71810619Y-96847819D02*
X71667762Y-96800200D01*
X71667762Y-96800200D02*
X71572524Y-96704961D01*
X71572524Y-96704961D02*
X71524905Y-96609723D01*
X71524905Y-96609723D02*
X71477286Y-96419247D01*
X71477286Y-96419247D02*
X71477286Y-96276390D01*
X71477286Y-96276390D02*
X71524905Y-96085914D01*
X71524905Y-96085914D02*
X71572524Y-95990676D01*
X71572524Y-95990676D02*
X71667762Y-95895438D01*
X71667762Y-95895438D02*
X71810619Y-95847819D01*
X71810619Y-95847819D02*
X71905857Y-95847819D01*
X71905857Y-95847819D02*
X72048714Y-95895438D01*
X72048714Y-95895438D02*
X72096333Y-95943057D01*
X73001095Y-95847819D02*
X72524905Y-95847819D01*
X72524905Y-95847819D02*
X72477286Y-96324009D01*
X72477286Y-96324009D02*
X72524905Y-96276390D01*
X72524905Y-96276390D02*
X72620143Y-96228771D01*
X72620143Y-96228771D02*
X72858238Y-96228771D01*
X72858238Y-96228771D02*
X72953476Y-96276390D01*
X72953476Y-96276390D02*
X73001095Y-96324009D01*
X73001095Y-96324009D02*
X73048714Y-96419247D01*
X73048714Y-96419247D02*
X73048714Y-96657342D01*
X73048714Y-96657342D02*
X73001095Y-96752580D01*
X73001095Y-96752580D02*
X72953476Y-96800200D01*
X72953476Y-96800200D02*
X72858238Y-96847819D01*
X72858238Y-96847819D02*
X72620143Y-96847819D01*
X72620143Y-96847819D02*
X72524905Y-96800200D01*
X72524905Y-96800200D02*
X72477286Y-96752580D01*
X48206819Y-84748666D02*
X47730628Y-85081999D01*
X48206819Y-85320094D02*
X47206819Y-85320094D01*
X47206819Y-85320094D02*
X47206819Y-84939142D01*
X47206819Y-84939142D02*
X47254438Y-84843904D01*
X47254438Y-84843904D02*
X47302057Y-84796285D01*
X47302057Y-84796285D02*
X47397295Y-84748666D01*
X47397295Y-84748666D02*
X47540152Y-84748666D01*
X47540152Y-84748666D02*
X47635390Y-84796285D01*
X47635390Y-84796285D02*
X47683009Y-84843904D01*
X47683009Y-84843904D02*
X47730628Y-84939142D01*
X47730628Y-84939142D02*
X47730628Y-85320094D01*
X47302057Y-84367713D02*
X47254438Y-84320094D01*
X47254438Y-84320094D02*
X47206819Y-84224856D01*
X47206819Y-84224856D02*
X47206819Y-83986761D01*
X47206819Y-83986761D02*
X47254438Y-83891523D01*
X47254438Y-83891523D02*
X47302057Y-83843904D01*
X47302057Y-83843904D02*
X47397295Y-83796285D01*
X47397295Y-83796285D02*
X47492533Y-83796285D01*
X47492533Y-83796285D02*
X47635390Y-83843904D01*
X47635390Y-83843904D02*
X48206819Y-84415332D01*
X48206819Y-84415332D02*
X48206819Y-83796285D01*
X61682333Y-84052580D02*
X61634714Y-84100200D01*
X61634714Y-84100200D02*
X61491857Y-84147819D01*
X61491857Y-84147819D02*
X61396619Y-84147819D01*
X61396619Y-84147819D02*
X61253762Y-84100200D01*
X61253762Y-84100200D02*
X61158524Y-84004961D01*
X61158524Y-84004961D02*
X61110905Y-83909723D01*
X61110905Y-83909723D02*
X61063286Y-83719247D01*
X61063286Y-83719247D02*
X61063286Y-83576390D01*
X61063286Y-83576390D02*
X61110905Y-83385914D01*
X61110905Y-83385914D02*
X61158524Y-83290676D01*
X61158524Y-83290676D02*
X61253762Y-83195438D01*
X61253762Y-83195438D02*
X61396619Y-83147819D01*
X61396619Y-83147819D02*
X61491857Y-83147819D01*
X61491857Y-83147819D02*
X61634714Y-83195438D01*
X61634714Y-83195438D02*
X61682333Y-83243057D01*
X62015667Y-83147819D02*
X62634714Y-83147819D01*
X62634714Y-83147819D02*
X62301381Y-83528771D01*
X62301381Y-83528771D02*
X62444238Y-83528771D01*
X62444238Y-83528771D02*
X62539476Y-83576390D01*
X62539476Y-83576390D02*
X62587095Y-83624009D01*
X62587095Y-83624009D02*
X62634714Y-83719247D01*
X62634714Y-83719247D02*
X62634714Y-83957342D01*
X62634714Y-83957342D02*
X62587095Y-84052580D01*
X62587095Y-84052580D02*
X62539476Y-84100200D01*
X62539476Y-84100200D02*
X62444238Y-84147819D01*
X62444238Y-84147819D02*
X62158524Y-84147819D01*
X62158524Y-84147819D02*
X62063286Y-84100200D01*
X62063286Y-84100200D02*
X62015667Y-84052580D01*
X69302333Y-102562819D02*
X68969000Y-102086628D01*
X68730905Y-102562819D02*
X68730905Y-101562819D01*
X68730905Y-101562819D02*
X69111857Y-101562819D01*
X69111857Y-101562819D02*
X69207095Y-101610438D01*
X69207095Y-101610438D02*
X69254714Y-101658057D01*
X69254714Y-101658057D02*
X69302333Y-101753295D01*
X69302333Y-101753295D02*
X69302333Y-101896152D01*
X69302333Y-101896152D02*
X69254714Y-101991390D01*
X69254714Y-101991390D02*
X69207095Y-102039009D01*
X69207095Y-102039009D02*
X69111857Y-102086628D01*
X69111857Y-102086628D02*
X68730905Y-102086628D01*
X70207095Y-101562819D02*
X69730905Y-101562819D01*
X69730905Y-101562819D02*
X69683286Y-102039009D01*
X69683286Y-102039009D02*
X69730905Y-101991390D01*
X69730905Y-101991390D02*
X69826143Y-101943771D01*
X69826143Y-101943771D02*
X70064238Y-101943771D01*
X70064238Y-101943771D02*
X70159476Y-101991390D01*
X70159476Y-101991390D02*
X70207095Y-102039009D01*
X70207095Y-102039009D02*
X70254714Y-102134247D01*
X70254714Y-102134247D02*
X70254714Y-102372342D01*
X70254714Y-102372342D02*
X70207095Y-102467580D01*
X70207095Y-102467580D02*
X70159476Y-102515200D01*
X70159476Y-102515200D02*
X70064238Y-102562819D01*
X70064238Y-102562819D02*
X69826143Y-102562819D01*
X69826143Y-102562819D02*
X69730905Y-102515200D01*
X69730905Y-102515200D02*
X69683286Y-102467580D01*
X55618142Y-100308580D02*
X55570523Y-100356200D01*
X55570523Y-100356200D02*
X55427666Y-100403819D01*
X55427666Y-100403819D02*
X55332428Y-100403819D01*
X55332428Y-100403819D02*
X55189571Y-100356200D01*
X55189571Y-100356200D02*
X55094333Y-100260961D01*
X55094333Y-100260961D02*
X55046714Y-100165723D01*
X55046714Y-100165723D02*
X54999095Y-99975247D01*
X54999095Y-99975247D02*
X54999095Y-99832390D01*
X54999095Y-99832390D02*
X55046714Y-99641914D01*
X55046714Y-99641914D02*
X55094333Y-99546676D01*
X55094333Y-99546676D02*
X55189571Y-99451438D01*
X55189571Y-99451438D02*
X55332428Y-99403819D01*
X55332428Y-99403819D02*
X55427666Y-99403819D01*
X55427666Y-99403819D02*
X55570523Y-99451438D01*
X55570523Y-99451438D02*
X55618142Y-99499057D01*
X56570523Y-100403819D02*
X55999095Y-100403819D01*
X56284809Y-100403819D02*
X56284809Y-99403819D01*
X56284809Y-99403819D02*
X56189571Y-99546676D01*
X56189571Y-99546676D02*
X56094333Y-99641914D01*
X56094333Y-99641914D02*
X55999095Y-99689533D01*
X57189571Y-99403819D02*
X57284809Y-99403819D01*
X57284809Y-99403819D02*
X57380047Y-99451438D01*
X57380047Y-99451438D02*
X57427666Y-99499057D01*
X57427666Y-99499057D02*
X57475285Y-99594295D01*
X57475285Y-99594295D02*
X57522904Y-99784771D01*
X57522904Y-99784771D02*
X57522904Y-100022866D01*
X57522904Y-100022866D02*
X57475285Y-100213342D01*
X57475285Y-100213342D02*
X57427666Y-100308580D01*
X57427666Y-100308580D02*
X57380047Y-100356200D01*
X57380047Y-100356200D02*
X57284809Y-100403819D01*
X57284809Y-100403819D02*
X57189571Y-100403819D01*
X57189571Y-100403819D02*
X57094333Y-100356200D01*
X57094333Y-100356200D02*
X57046714Y-100308580D01*
X57046714Y-100308580D02*
X56999095Y-100213342D01*
X56999095Y-100213342D02*
X56951476Y-100022866D01*
X56951476Y-100022866D02*
X56951476Y-99784771D01*
X56951476Y-99784771D02*
X56999095Y-99594295D01*
X56999095Y-99594295D02*
X57046714Y-99499057D01*
X57046714Y-99499057D02*
X57094333Y-99451438D01*
X57094333Y-99451438D02*
X57189571Y-99403819D01*
X56221333Y-98784580D02*
X56173714Y-98832200D01*
X56173714Y-98832200D02*
X56030857Y-98879819D01*
X56030857Y-98879819D02*
X55935619Y-98879819D01*
X55935619Y-98879819D02*
X55792762Y-98832200D01*
X55792762Y-98832200D02*
X55697524Y-98736961D01*
X55697524Y-98736961D02*
X55649905Y-98641723D01*
X55649905Y-98641723D02*
X55602286Y-98451247D01*
X55602286Y-98451247D02*
X55602286Y-98308390D01*
X55602286Y-98308390D02*
X55649905Y-98117914D01*
X55649905Y-98117914D02*
X55697524Y-98022676D01*
X55697524Y-98022676D02*
X55792762Y-97927438D01*
X55792762Y-97927438D02*
X55935619Y-97879819D01*
X55935619Y-97879819D02*
X56030857Y-97879819D01*
X56030857Y-97879819D02*
X56173714Y-97927438D01*
X56173714Y-97927438D02*
X56221333Y-97975057D01*
X56697524Y-98879819D02*
X56888000Y-98879819D01*
X56888000Y-98879819D02*
X56983238Y-98832200D01*
X56983238Y-98832200D02*
X57030857Y-98784580D01*
X57030857Y-98784580D02*
X57126095Y-98641723D01*
X57126095Y-98641723D02*
X57173714Y-98451247D01*
X57173714Y-98451247D02*
X57173714Y-98070295D01*
X57173714Y-98070295D02*
X57126095Y-97975057D01*
X57126095Y-97975057D02*
X57078476Y-97927438D01*
X57078476Y-97927438D02*
X56983238Y-97879819D01*
X56983238Y-97879819D02*
X56792762Y-97879819D01*
X56792762Y-97879819D02*
X56697524Y-97927438D01*
X56697524Y-97927438D02*
X56649905Y-97975057D01*
X56649905Y-97975057D02*
X56602286Y-98070295D01*
X56602286Y-98070295D02*
X56602286Y-98308390D01*
X56602286Y-98308390D02*
X56649905Y-98403628D01*
X56649905Y-98403628D02*
X56697524Y-98451247D01*
X56697524Y-98451247D02*
X56792762Y-98498866D01*
X56792762Y-98498866D02*
X56983238Y-98498866D01*
X56983238Y-98498866D02*
X57078476Y-98451247D01*
X57078476Y-98451247D02*
X57126095Y-98403628D01*
X57126095Y-98403628D02*
X57173714Y-98308390D01*
X77049333Y-96498580D02*
X77001714Y-96546200D01*
X77001714Y-96546200D02*
X76858857Y-96593819D01*
X76858857Y-96593819D02*
X76763619Y-96593819D01*
X76763619Y-96593819D02*
X76620762Y-96546200D01*
X76620762Y-96546200D02*
X76525524Y-96450961D01*
X76525524Y-96450961D02*
X76477905Y-96355723D01*
X76477905Y-96355723D02*
X76430286Y-96165247D01*
X76430286Y-96165247D02*
X76430286Y-96022390D01*
X76430286Y-96022390D02*
X76477905Y-95831914D01*
X76477905Y-95831914D02*
X76525524Y-95736676D01*
X76525524Y-95736676D02*
X76620762Y-95641438D01*
X76620762Y-95641438D02*
X76763619Y-95593819D01*
X76763619Y-95593819D02*
X76858857Y-95593819D01*
X76858857Y-95593819D02*
X77001714Y-95641438D01*
X77001714Y-95641438D02*
X77049333Y-95689057D01*
X78001714Y-96593819D02*
X77430286Y-96593819D01*
X77716000Y-96593819D02*
X77716000Y-95593819D01*
X77716000Y-95593819D02*
X77620762Y-95736676D01*
X77620762Y-95736676D02*
X77525524Y-95831914D01*
X77525524Y-95831914D02*
X77430286Y-95879533D01*
X74890333Y-85957580D02*
X74842714Y-86005200D01*
X74842714Y-86005200D02*
X74699857Y-86052819D01*
X74699857Y-86052819D02*
X74604619Y-86052819D01*
X74604619Y-86052819D02*
X74461762Y-86005200D01*
X74461762Y-86005200D02*
X74366524Y-85909961D01*
X74366524Y-85909961D02*
X74318905Y-85814723D01*
X74318905Y-85814723D02*
X74271286Y-85624247D01*
X74271286Y-85624247D02*
X74271286Y-85481390D01*
X74271286Y-85481390D02*
X74318905Y-85290914D01*
X74318905Y-85290914D02*
X74366524Y-85195676D01*
X74366524Y-85195676D02*
X74461762Y-85100438D01*
X74461762Y-85100438D02*
X74604619Y-85052819D01*
X74604619Y-85052819D02*
X74699857Y-85052819D01*
X74699857Y-85052819D02*
X74842714Y-85100438D01*
X74842714Y-85100438D02*
X74890333Y-85148057D01*
X75747476Y-85052819D02*
X75557000Y-85052819D01*
X75557000Y-85052819D02*
X75461762Y-85100438D01*
X75461762Y-85100438D02*
X75414143Y-85148057D01*
X75414143Y-85148057D02*
X75318905Y-85290914D01*
X75318905Y-85290914D02*
X75271286Y-85481390D01*
X75271286Y-85481390D02*
X75271286Y-85862342D01*
X75271286Y-85862342D02*
X75318905Y-85957580D01*
X75318905Y-85957580D02*
X75366524Y-86005200D01*
X75366524Y-86005200D02*
X75461762Y-86052819D01*
X75461762Y-86052819D02*
X75652238Y-86052819D01*
X75652238Y-86052819D02*
X75747476Y-86005200D01*
X75747476Y-86005200D02*
X75795095Y-85957580D01*
X75795095Y-85957580D02*
X75842714Y-85862342D01*
X75842714Y-85862342D02*
X75842714Y-85624247D01*
X75842714Y-85624247D02*
X75795095Y-85529009D01*
X75795095Y-85529009D02*
X75747476Y-85481390D01*
X75747476Y-85481390D02*
X75652238Y-85433771D01*
X75652238Y-85433771D02*
X75461762Y-85433771D01*
X75461762Y-85433771D02*
X75366524Y-85481390D01*
X75366524Y-85481390D02*
X75318905Y-85529009D01*
X75318905Y-85529009D02*
X75271286Y-85624247D01*
X62698333Y-102562819D02*
X62365000Y-102086628D01*
X62126905Y-102562819D02*
X62126905Y-101562819D01*
X62126905Y-101562819D02*
X62507857Y-101562819D01*
X62507857Y-101562819D02*
X62603095Y-101610438D01*
X62603095Y-101610438D02*
X62650714Y-101658057D01*
X62650714Y-101658057D02*
X62698333Y-101753295D01*
X62698333Y-101753295D02*
X62698333Y-101896152D01*
X62698333Y-101896152D02*
X62650714Y-101991390D01*
X62650714Y-101991390D02*
X62603095Y-102039009D01*
X62603095Y-102039009D02*
X62507857Y-102086628D01*
X62507857Y-102086628D02*
X62126905Y-102086628D01*
X63555476Y-101896152D02*
X63555476Y-102562819D01*
X63317381Y-101515200D02*
X63079286Y-102229485D01*
X63079286Y-102229485D02*
X63698333Y-102229485D01*
X57015142Y-93803580D02*
X56967523Y-93851200D01*
X56967523Y-93851200D02*
X56824666Y-93898819D01*
X56824666Y-93898819D02*
X56729428Y-93898819D01*
X56729428Y-93898819D02*
X56586571Y-93851200D01*
X56586571Y-93851200D02*
X56491333Y-93755961D01*
X56491333Y-93755961D02*
X56443714Y-93660723D01*
X56443714Y-93660723D02*
X56396095Y-93470247D01*
X56396095Y-93470247D02*
X56396095Y-93327390D01*
X56396095Y-93327390D02*
X56443714Y-93136914D01*
X56443714Y-93136914D02*
X56491333Y-93041676D01*
X56491333Y-93041676D02*
X56586571Y-92946438D01*
X56586571Y-92946438D02*
X56729428Y-92898819D01*
X56729428Y-92898819D02*
X56824666Y-92898819D01*
X56824666Y-92898819D02*
X56967523Y-92946438D01*
X56967523Y-92946438D02*
X57015142Y-92994057D01*
X57967523Y-93898819D02*
X57396095Y-93898819D01*
X57681809Y-93898819D02*
X57681809Y-92898819D01*
X57681809Y-92898819D02*
X57586571Y-93041676D01*
X57586571Y-93041676D02*
X57491333Y-93136914D01*
X57491333Y-93136914D02*
X57396095Y-93184533D01*
X58300857Y-92898819D02*
X58919904Y-92898819D01*
X58919904Y-92898819D02*
X58586571Y-93279771D01*
X58586571Y-93279771D02*
X58729428Y-93279771D01*
X58729428Y-93279771D02*
X58824666Y-93327390D01*
X58824666Y-93327390D02*
X58872285Y-93375009D01*
X58872285Y-93375009D02*
X58919904Y-93470247D01*
X58919904Y-93470247D02*
X58919904Y-93708342D01*
X58919904Y-93708342D02*
X58872285Y-93803580D01*
X58872285Y-93803580D02*
X58824666Y-93851200D01*
X58824666Y-93851200D02*
X58729428Y-93898819D01*
X58729428Y-93898819D02*
X58443714Y-93898819D01*
X58443714Y-93898819D02*
X58348476Y-93851200D01*
X58348476Y-93851200D02*
X58300857Y-93803580D01*
D12*
X63112667Y-86901404D02*
X63074571Y-86939500D01*
X63074571Y-86939500D02*
X62960286Y-86977595D01*
X62960286Y-86977595D02*
X62884095Y-86977595D01*
X62884095Y-86977595D02*
X62769809Y-86939500D01*
X62769809Y-86939500D02*
X62693619Y-86863309D01*
X62693619Y-86863309D02*
X62655524Y-86787119D01*
X62655524Y-86787119D02*
X62617428Y-86634738D01*
X62617428Y-86634738D02*
X62617428Y-86520452D01*
X62617428Y-86520452D02*
X62655524Y-86368071D01*
X62655524Y-86368071D02*
X62693619Y-86291880D01*
X62693619Y-86291880D02*
X62769809Y-86215690D01*
X62769809Y-86215690D02*
X62884095Y-86177595D01*
X62884095Y-86177595D02*
X62960286Y-86177595D01*
X62960286Y-86177595D02*
X63074571Y-86215690D01*
X63074571Y-86215690D02*
X63112667Y-86253785D01*
X63379333Y-86177595D02*
X63912667Y-86177595D01*
X63912667Y-86177595D02*
X63569809Y-86977595D01*
D11*
X60761666Y-96578009D02*
X60428333Y-96578009D01*
X60428333Y-97101819D02*
X60428333Y-96101819D01*
X60428333Y-96101819D02*
X60904523Y-96101819D01*
X61618809Y-96578009D02*
X61761666Y-96625628D01*
X61761666Y-96625628D02*
X61809285Y-96673247D01*
X61809285Y-96673247D02*
X61856904Y-96768485D01*
X61856904Y-96768485D02*
X61856904Y-96911342D01*
X61856904Y-96911342D02*
X61809285Y-97006580D01*
X61809285Y-97006580D02*
X61761666Y-97054200D01*
X61761666Y-97054200D02*
X61666428Y-97101819D01*
X61666428Y-97101819D02*
X61285476Y-97101819D01*
X61285476Y-97101819D02*
X61285476Y-96101819D01*
X61285476Y-96101819D02*
X61618809Y-96101819D01*
X61618809Y-96101819D02*
X61714047Y-96149438D01*
X61714047Y-96149438D02*
X61761666Y-96197057D01*
X61761666Y-96197057D02*
X61809285Y-96292295D01*
X61809285Y-96292295D02*
X61809285Y-96387533D01*
X61809285Y-96387533D02*
X61761666Y-96482771D01*
X61761666Y-96482771D02*
X61714047Y-96530390D01*
X61714047Y-96530390D02*
X61618809Y-96578009D01*
X61618809Y-96578009D02*
X61285476Y-96578009D01*
X62809285Y-97101819D02*
X62237857Y-97101819D01*
X62523571Y-97101819D02*
X62523571Y-96101819D01*
X62523571Y-96101819D02*
X62428333Y-96244676D01*
X62428333Y-96244676D02*
X62333095Y-96339914D01*
X62333095Y-96339914D02*
X62237857Y-96387533D01*
X60539333Y-95073580D02*
X60491714Y-95121200D01*
X60491714Y-95121200D02*
X60348857Y-95168819D01*
X60348857Y-95168819D02*
X60253619Y-95168819D01*
X60253619Y-95168819D02*
X60110762Y-95121200D01*
X60110762Y-95121200D02*
X60015524Y-95025961D01*
X60015524Y-95025961D02*
X59967905Y-94930723D01*
X59967905Y-94930723D02*
X59920286Y-94740247D01*
X59920286Y-94740247D02*
X59920286Y-94597390D01*
X59920286Y-94597390D02*
X59967905Y-94406914D01*
X59967905Y-94406914D02*
X60015524Y-94311676D01*
X60015524Y-94311676D02*
X60110762Y-94216438D01*
X60110762Y-94216438D02*
X60253619Y-94168819D01*
X60253619Y-94168819D02*
X60348857Y-94168819D01*
X60348857Y-94168819D02*
X60491714Y-94216438D01*
X60491714Y-94216438D02*
X60539333Y-94264057D01*
X61110762Y-94597390D02*
X61015524Y-94549771D01*
X61015524Y-94549771D02*
X60967905Y-94502152D01*
X60967905Y-94502152D02*
X60920286Y-94406914D01*
X60920286Y-94406914D02*
X60920286Y-94359295D01*
X60920286Y-94359295D02*
X60967905Y-94264057D01*
X60967905Y-94264057D02*
X61015524Y-94216438D01*
X61015524Y-94216438D02*
X61110762Y-94168819D01*
X61110762Y-94168819D02*
X61301238Y-94168819D01*
X61301238Y-94168819D02*
X61396476Y-94216438D01*
X61396476Y-94216438D02*
X61444095Y-94264057D01*
X61444095Y-94264057D02*
X61491714Y-94359295D01*
X61491714Y-94359295D02*
X61491714Y-94406914D01*
X61491714Y-94406914D02*
X61444095Y-94502152D01*
X61444095Y-94502152D02*
X61396476Y-94549771D01*
X61396476Y-94549771D02*
X61301238Y-94597390D01*
X61301238Y-94597390D02*
X61110762Y-94597390D01*
X61110762Y-94597390D02*
X61015524Y-94645009D01*
X61015524Y-94645009D02*
X60967905Y-94692628D01*
X60967905Y-94692628D02*
X60920286Y-94787866D01*
X60920286Y-94787866D02*
X60920286Y-94978342D01*
X60920286Y-94978342D02*
X60967905Y-95073580D01*
X60967905Y-95073580D02*
X61015524Y-95121200D01*
X61015524Y-95121200D02*
X61110762Y-95168819D01*
X61110762Y-95168819D02*
X61301238Y-95168819D01*
X61301238Y-95168819D02*
X61396476Y-95121200D01*
X61396476Y-95121200D02*
X61444095Y-95073580D01*
X61444095Y-95073580D02*
X61491714Y-94978342D01*
X61491714Y-94978342D02*
X61491714Y-94787866D01*
X61491714Y-94787866D02*
X61444095Y-94692628D01*
X61444095Y-94692628D02*
X61396476Y-94645009D01*
X61396476Y-94645009D02*
X61301238Y-94597390D01*
X53572628Y-90816190D02*
X54048819Y-90816190D01*
X53048819Y-91149523D02*
X53572628Y-90816190D01*
X53572628Y-90816190D02*
X53048819Y-90482857D01*
X54048819Y-89625714D02*
X54048819Y-90197142D01*
X54048819Y-89911428D02*
X53048819Y-89911428D01*
X53048819Y-89911428D02*
X53191676Y-90006666D01*
X53191676Y-90006666D02*
X53286914Y-90101904D01*
X53286914Y-90101904D02*
X53334533Y-90197142D01*
X84147819Y-99734666D02*
X83671628Y-100067999D01*
X84147819Y-100306094D02*
X83147819Y-100306094D01*
X83147819Y-100306094D02*
X83147819Y-99925142D01*
X83147819Y-99925142D02*
X83195438Y-99829904D01*
X83195438Y-99829904D02*
X83243057Y-99782285D01*
X83243057Y-99782285D02*
X83338295Y-99734666D01*
X83338295Y-99734666D02*
X83481152Y-99734666D01*
X83481152Y-99734666D02*
X83576390Y-99782285D01*
X83576390Y-99782285D02*
X83624009Y-99829904D01*
X83624009Y-99829904D02*
X83671628Y-99925142D01*
X83671628Y-99925142D02*
X83671628Y-100306094D01*
X84147819Y-98782285D02*
X84147819Y-99353713D01*
X84147819Y-99067999D02*
X83147819Y-99067999D01*
X83147819Y-99067999D02*
X83290676Y-99163237D01*
X83290676Y-99163237D02*
X83385914Y-99258475D01*
X83385914Y-99258475D02*
X83433533Y-99353713D01*
X60412333Y-86592580D02*
X60364714Y-86640200D01*
X60364714Y-86640200D02*
X60221857Y-86687819D01*
X60221857Y-86687819D02*
X60126619Y-86687819D01*
X60126619Y-86687819D02*
X59983762Y-86640200D01*
X59983762Y-86640200D02*
X59888524Y-86544961D01*
X59888524Y-86544961D02*
X59840905Y-86449723D01*
X59840905Y-86449723D02*
X59793286Y-86259247D01*
X59793286Y-86259247D02*
X59793286Y-86116390D01*
X59793286Y-86116390D02*
X59840905Y-85925914D01*
X59840905Y-85925914D02*
X59888524Y-85830676D01*
X59888524Y-85830676D02*
X59983762Y-85735438D01*
X59983762Y-85735438D02*
X60126619Y-85687819D01*
X60126619Y-85687819D02*
X60221857Y-85687819D01*
X60221857Y-85687819D02*
X60364714Y-85735438D01*
X60364714Y-85735438D02*
X60412333Y-85783057D01*
X61269476Y-86021152D02*
X61269476Y-86687819D01*
X61031381Y-85640200D02*
X60793286Y-86354485D01*
X60793286Y-86354485D02*
X61412333Y-86354485D01*
D13*
%TO.C,J4*%
X64135000Y-109033000D02*
X71815000Y-109033000D01*
X62865000Y-111693000D02*
X61535000Y-111693000D01*
X71815000Y-111693000D02*
X71815000Y-109033000D01*
X64135000Y-111693000D02*
X64135000Y-109033000D01*
X61535000Y-111693000D02*
X61535000Y-110363000D01*
X64135000Y-111693000D02*
X71815000Y-111693000D01*
%TO.C,C11*%
X65003000Y-98571164D02*
X65003000Y-98786836D01*
X64283000Y-98571164D02*
X64283000Y-98786836D01*
%TO.C,C12*%
X58822000Y-89289836D02*
X58822000Y-89074164D01*
X59542000Y-89289836D02*
X59542000Y-89074164D01*
%TO.C,D1*%
X85571000Y-101994500D02*
X84101000Y-101994500D01*
X84101000Y-101994500D02*
X84101000Y-104279500D01*
X85571000Y-104279500D02*
X85571000Y-101994500D01*
%TO.C,C2*%
X80672000Y-103512252D02*
X80672000Y-102989748D01*
X82142000Y-103512252D02*
X82142000Y-102989748D01*
%TO.C,R3*%
X78866000Y-89254359D02*
X78866000Y-89561641D01*
X78106000Y-89254359D02*
X78106000Y-89561641D01*
%TO.C,C5*%
X70719836Y-98023000D02*
X70504164Y-98023000D01*
X70719836Y-97303000D02*
X70504164Y-97303000D01*
%TO.C,R2*%
X48642000Y-84608641D02*
X48642000Y-84301359D01*
X49402000Y-84608641D02*
X49402000Y-84301359D01*
%TO.C,C3*%
X64502420Y-82294000D02*
X64783580Y-82294000D01*
X64502420Y-83314000D02*
X64783580Y-83314000D01*
%TO.C,J3*%
X66852000Y-75886000D02*
X66852000Y-77216000D01*
X65522000Y-75886000D02*
X66852000Y-75886000D01*
X64252000Y-75886000D02*
X56572000Y-75886000D01*
X64252000Y-75886000D02*
X64252000Y-78546000D01*
X56572000Y-75886000D02*
X56572000Y-78546000D01*
X64252000Y-78546000D02*
X56572000Y-78546000D01*
%TO.C,R5*%
X67156359Y-101728000D02*
X67463641Y-101728000D01*
X67156359Y-102488000D02*
X67463641Y-102488000D01*
%TO.C,C10*%
X59063836Y-100182000D02*
X58848164Y-100182000D01*
X59063836Y-99462000D02*
X58848164Y-99462000D01*
%TO.C,C9*%
X59063836Y-98658000D02*
X58848164Y-98658000D01*
X59063836Y-97938000D02*
X58848164Y-97938000D01*
%TO.C,C1*%
X76954748Y-97309000D02*
X77477252Y-97309000D01*
X76954748Y-98779000D02*
X77477252Y-98779000D01*
%TO.C,C6*%
X74528000Y-87169164D02*
X74528000Y-87384836D01*
X73808000Y-87169164D02*
X73808000Y-87384836D01*
D11*
%TO.C,J1*%
X91293000Y-93969000D02*
X92693000Y-93969000D01*
X95093000Y-93969000D02*
X95243000Y-93969000D01*
X95243000Y-93969000D02*
X95243000Y-93669000D01*
X95243000Y-93669000D02*
X95693000Y-93669000D01*
X89118000Y-91619000D02*
X89543000Y-91619000D01*
X89543000Y-91619000D02*
X89543000Y-92619000D01*
X89118000Y-90894000D02*
X89118000Y-91619000D01*
X89543000Y-88019000D02*
X89543000Y-87019000D01*
X95243000Y-85969000D02*
X95243000Y-85669000D01*
X95693000Y-85969000D02*
X95243000Y-85969000D01*
X92693000Y-85669000D02*
X91293000Y-85669000D01*
X95243000Y-85669000D02*
X95093000Y-85669000D01*
D13*
%TO.C,J2*%
X82102000Y-75886000D02*
X82102000Y-77216000D01*
X80772000Y-75886000D02*
X82102000Y-75886000D01*
X79502000Y-75886000D02*
X71822000Y-75886000D01*
X79502000Y-75886000D02*
X79502000Y-78546000D01*
X71822000Y-75886000D02*
X71822000Y-78546000D01*
X79502000Y-78546000D02*
X71822000Y-78546000D01*
%TO.C,R4*%
X65050641Y-102488000D02*
X64743359Y-102488000D01*
X65050641Y-101728000D02*
X64743359Y-101728000D01*
%TO.C,U2*%
X63446000Y-87830000D02*
X63446000Y-88280000D01*
X63446000Y-88280000D02*
X62156000Y-88280000D01*
X63446000Y-95050000D02*
X63446000Y-94600000D01*
X63896000Y-87830000D02*
X63446000Y-87830000D01*
X63896000Y-95050000D02*
X63446000Y-95050000D01*
X70216000Y-87830000D02*
X70666000Y-87830000D01*
X70216000Y-95050000D02*
X70666000Y-95050000D01*
X70666000Y-87830000D02*
X70666000Y-88280000D01*
X70666000Y-95050000D02*
X70666000Y-94600000D01*
%TO.C,C13*%
X58822000Y-91519836D02*
X58822000Y-91304164D01*
X59542000Y-91519836D02*
X59542000Y-91304164D01*
%TO.C,C7*%
X64634164Y-84476000D02*
X64849836Y-84476000D01*
X64634164Y-85196000D02*
X64849836Y-85196000D01*
%TO.C,U1*%
X79737000Y-99659000D02*
X79737000Y-105669000D01*
X72917000Y-101909000D02*
X72917000Y-105669000D01*
X79737000Y-105669000D02*
X78477000Y-105669000D01*
X72917000Y-105669000D02*
X74177000Y-105669000D01*
%TO.C,FB1*%
X61978000Y-98897221D02*
X61978000Y-99222779D01*
X60958000Y-98897221D02*
X60958000Y-99222779D01*
%TO.C,G\u002A\u002A\u002A*%
G36*
X45245000Y-98880000D02*
G01*
X45245000Y-98925000D01*
X45200000Y-98925000D01*
X45155000Y-98925000D01*
X45155000Y-98880000D01*
X45155000Y-98835000D01*
X45200000Y-98835000D01*
X45245000Y-98835000D01*
X45245000Y-98880000D01*
G37*
G36*
X45629583Y-102887052D02*
G01*
X45644810Y-102896242D01*
X45648708Y-102917124D01*
X45646770Y-102941093D01*
X45643039Y-102962142D01*
X45634390Y-102971970D01*
X45614799Y-102974840D01*
X45598905Y-102975000D01*
X45555000Y-102975000D01*
X45555000Y-102930000D01*
X45555000Y-102885000D01*
X45599166Y-102885000D01*
X45629583Y-102887052D01*
G37*
G36*
X44702500Y-102886952D02*
G01*
X44731084Y-102889459D01*
X44744828Y-102894962D01*
X44748855Y-102907691D01*
X44748560Y-102925000D01*
X44747310Y-102950574D01*
X44746166Y-102966642D01*
X44746060Y-102967500D01*
X44736439Y-102971983D01*
X44713337Y-102974664D01*
X44700000Y-102975000D01*
X44655000Y-102975000D01*
X44655000Y-102929452D01*
X44655000Y-102883904D01*
X44702500Y-102886952D01*
G37*
G36*
X45245000Y-102630000D02*
G01*
X45245000Y-102975000D01*
X45200000Y-102975000D01*
X45155000Y-102975000D01*
X45155000Y-102709519D01*
X45155000Y-102444039D01*
X45112500Y-102473113D01*
X45072528Y-102498834D01*
X45036251Y-102519251D01*
X45008206Y-102531964D01*
X44995496Y-102535000D01*
X44988750Y-102526167D01*
X44985173Y-102504266D01*
X44985000Y-102497482D01*
X44986723Y-102474178D01*
X44995006Y-102458663D01*
X45014515Y-102444597D01*
X45030304Y-102435931D01*
X45058969Y-102416868D01*
X45093910Y-102388122D01*
X45128463Y-102355260D01*
X45134962Y-102348448D01*
X45170079Y-102313305D01*
X45196453Y-102292834D01*
X45216580Y-102285165D01*
X45219657Y-102285000D01*
X45245000Y-102285000D01*
X45245000Y-102630000D01*
G37*
G36*
X44405837Y-99017340D02*
G01*
X44444041Y-99022998D01*
X44465025Y-99032727D01*
X44471530Y-99049419D01*
X44466302Y-99075964D01*
X44465077Y-99079764D01*
X44454761Y-99103723D01*
X44443689Y-99111150D01*
X44436498Y-99109550D01*
X44403134Y-99098465D01*
X44377069Y-99098001D01*
X44355650Y-99104730D01*
X44335502Y-99116354D01*
X44320178Y-99134037D01*
X44309084Y-99160281D01*
X44301627Y-99197584D01*
X44297214Y-99248447D01*
X44295250Y-99315368D01*
X44295000Y-99360202D01*
X44295000Y-99525000D01*
X44250000Y-99525000D01*
X44205000Y-99525000D01*
X44205000Y-99275000D01*
X44205000Y-99025000D01*
X44245000Y-99025000D01*
X44270663Y-99026214D01*
X44282072Y-99032623D01*
X44284945Y-99048371D01*
X44285000Y-99053999D01*
X44285000Y-99082999D01*
X44320248Y-99047751D01*
X44343101Y-99026733D01*
X44362133Y-99017172D01*
X44386579Y-99015788D01*
X44405837Y-99017340D01*
G37*
G36*
X44515837Y-100167340D02*
G01*
X44554041Y-100172998D01*
X44575025Y-100182727D01*
X44581530Y-100199419D01*
X44576302Y-100225964D01*
X44575077Y-100229764D01*
X44564761Y-100253723D01*
X44553689Y-100261150D01*
X44546498Y-100259550D01*
X44513134Y-100248465D01*
X44487069Y-100248001D01*
X44465650Y-100254730D01*
X44445502Y-100266354D01*
X44430178Y-100284037D01*
X44419084Y-100310281D01*
X44411627Y-100347584D01*
X44407214Y-100398447D01*
X44405250Y-100465368D01*
X44405000Y-100510202D01*
X44405000Y-100675000D01*
X44360000Y-100675000D01*
X44315000Y-100675000D01*
X44315000Y-100425000D01*
X44315000Y-100175000D01*
X44355000Y-100175000D01*
X44380663Y-100176214D01*
X44392072Y-100182623D01*
X44394945Y-100198371D01*
X44395000Y-100203999D01*
X44395000Y-100232999D01*
X44430248Y-100197751D01*
X44453101Y-100176733D01*
X44472133Y-100167172D01*
X44496579Y-100165788D01*
X44515837Y-100167340D01*
G37*
G36*
X45305837Y-101317340D02*
G01*
X45344041Y-101322998D01*
X45365025Y-101332727D01*
X45371530Y-101349419D01*
X45366302Y-101375964D01*
X45365077Y-101379764D01*
X45354761Y-101403723D01*
X45343689Y-101411150D01*
X45336498Y-101409550D01*
X45303134Y-101398465D01*
X45277069Y-101398001D01*
X45255650Y-101404730D01*
X45235502Y-101416354D01*
X45220178Y-101434037D01*
X45209084Y-101460281D01*
X45201627Y-101497584D01*
X45197214Y-101548447D01*
X45195250Y-101615368D01*
X45195000Y-101660202D01*
X45195000Y-101825000D01*
X45150000Y-101825000D01*
X45105000Y-101825000D01*
X45105000Y-101575000D01*
X45105000Y-101325000D01*
X45145000Y-101325000D01*
X45170663Y-101326214D01*
X45182072Y-101332623D01*
X45184945Y-101348371D01*
X45185000Y-101354000D01*
X45185000Y-101382999D01*
X45220248Y-101347751D01*
X45243101Y-101326733D01*
X45262133Y-101317172D01*
X45286579Y-101315788D01*
X45305837Y-101317340D01*
G37*
G36*
X45243033Y-99332500D02*
G01*
X45241987Y-99425523D01*
X45240653Y-99500667D01*
X45238698Y-99560055D01*
X45235787Y-99605807D01*
X45231587Y-99640045D01*
X45225764Y-99664891D01*
X45217986Y-99682467D01*
X45207917Y-99694893D01*
X45195224Y-99704291D01*
X45183549Y-99710749D01*
X45157618Y-99719359D01*
X45125247Y-99723951D01*
X45093357Y-99724325D01*
X45068868Y-99720279D01*
X45059598Y-99714351D01*
X45056836Y-99697963D01*
X45058930Y-99672317D01*
X45059400Y-99669679D01*
X45065412Y-99647057D01*
X45075540Y-99639376D01*
X45093754Y-99641250D01*
X45124522Y-99639487D01*
X45138363Y-99630208D01*
X45143190Y-99623565D01*
X45146995Y-99612919D01*
X45149897Y-99596057D01*
X45152014Y-99570771D01*
X45153463Y-99534848D01*
X45154365Y-99486079D01*
X45154836Y-99422253D01*
X45154995Y-99341160D01*
X45155000Y-99319285D01*
X45155000Y-99025000D01*
X45200533Y-99024999D01*
X45246066Y-99024999D01*
X45243033Y-99332500D01*
G37*
G36*
X43625038Y-102664937D02*
G01*
X43645001Y-102722612D01*
X43662978Y-102773236D01*
X43677925Y-102813976D01*
X43688798Y-102841997D01*
X43694553Y-102854465D01*
X43695000Y-102854843D01*
X43699761Y-102845883D01*
X43710053Y-102820948D01*
X43724761Y-102782929D01*
X43742768Y-102734714D01*
X43762958Y-102679192D01*
X43764616Y-102674571D01*
X43785117Y-102617762D01*
X43803613Y-102567213D01*
X43818947Y-102526031D01*
X43829961Y-102497325D01*
X43835497Y-102484204D01*
X43835607Y-102484016D01*
X43848742Y-102478213D01*
X43873645Y-102476420D01*
X43882231Y-102476851D01*
X43922481Y-102480000D01*
X43830527Y-102725000D01*
X43738574Y-102970000D01*
X43697704Y-102973030D01*
X43670815Y-102972887D01*
X43653443Y-102968841D01*
X43651161Y-102966879D01*
X43646185Y-102955216D01*
X43635355Y-102927570D01*
X43619731Y-102886726D01*
X43600376Y-102835468D01*
X43578349Y-102776579D01*
X43566185Y-102743849D01*
X43542764Y-102680746D01*
X43521123Y-102622550D01*
X43502419Y-102572360D01*
X43487807Y-102533275D01*
X43478444Y-102508394D01*
X43476189Y-102502500D01*
X43465495Y-102475000D01*
X43512786Y-102475000D01*
X43560077Y-102475000D01*
X43625038Y-102664937D01*
G37*
G36*
X46131312Y-100170779D02*
G01*
X46168869Y-100183469D01*
X46195143Y-100196816D01*
X46215488Y-100212501D01*
X46230648Y-100233118D01*
X46241370Y-100261262D01*
X46248399Y-100299530D01*
X46252480Y-100350515D01*
X46254360Y-100416815D01*
X46254780Y-100482500D01*
X46255000Y-100675000D01*
X46210606Y-100675000D01*
X46166212Y-100675000D01*
X46163106Y-100485253D01*
X46161887Y-100418809D01*
X46160490Y-100369407D01*
X46158578Y-100334089D01*
X46155811Y-100309900D01*
X46151851Y-100293881D01*
X46146358Y-100283076D01*
X46138995Y-100274526D01*
X46138967Y-100274499D01*
X46106573Y-100255041D01*
X46065359Y-100248220D01*
X46022531Y-100254712D01*
X46005000Y-100261976D01*
X45981335Y-100276490D01*
X45963580Y-100294274D01*
X45950922Y-100318231D01*
X45942552Y-100351266D01*
X45937657Y-100396280D01*
X45935427Y-100456179D01*
X45935015Y-100512500D01*
X45935000Y-100675000D01*
X45890000Y-100675000D01*
X45845000Y-100675000D01*
X45845000Y-100425000D01*
X45845000Y-100175000D01*
X45885000Y-100175000D01*
X45910642Y-100176171D01*
X45922041Y-100182598D01*
X45924933Y-100198651D01*
X45925000Y-100205471D01*
X45925000Y-100235942D01*
X45965257Y-100203590D01*
X46014674Y-100176155D01*
X46071581Y-100165064D01*
X46131312Y-100170779D01*
G37*
G36*
X43702500Y-98835055D02*
G01*
X43779120Y-98835627D01*
X43838837Y-98837632D01*
X43884726Y-98841583D01*
X43919864Y-98847995D01*
X43947326Y-98857383D01*
X43970189Y-98870259D01*
X43986112Y-98882470D01*
X44023302Y-98925815D01*
X44045475Y-98977664D01*
X44053016Y-99033900D01*
X44046309Y-99090404D01*
X44025741Y-99143059D01*
X43991697Y-99187745D01*
X43955000Y-99215000D01*
X43935340Y-99225044D01*
X43915804Y-99232142D01*
X43892221Y-99236926D01*
X43860420Y-99240029D01*
X43816231Y-99242084D01*
X43767500Y-99243437D01*
X43625000Y-99246875D01*
X43625000Y-99385937D01*
X43625000Y-99525000D01*
X43575000Y-99525000D01*
X43525000Y-99525000D01*
X43525000Y-99180000D01*
X43525000Y-98915000D01*
X43625000Y-98915000D01*
X43625000Y-99040000D01*
X43625000Y-99165000D01*
X43725571Y-99165000D01*
X43774268Y-99163852D01*
X43820759Y-99160777D01*
X43857928Y-99156326D01*
X43870772Y-99153762D01*
X43913543Y-99135527D01*
X43940837Y-99105498D01*
X43953671Y-99062282D01*
X43955000Y-99038181D01*
X43951161Y-98996365D01*
X43938290Y-98964624D01*
X43914352Y-98941792D01*
X43877314Y-98926701D01*
X43825142Y-98918184D01*
X43755803Y-98915075D01*
X43740321Y-98915000D01*
X43625000Y-98915000D01*
X43525000Y-98915000D01*
X43525000Y-98835000D01*
X43702500Y-98835055D01*
G37*
G36*
X44305000Y-101239360D02*
G01*
X44305000Y-101325000D01*
X44350000Y-101325000D01*
X44395000Y-101325000D01*
X44395000Y-101364425D01*
X44394020Y-101389189D01*
X44387361Y-101401032D01*
X44369441Y-101405535D01*
X44352500Y-101406925D01*
X44310000Y-101410000D01*
X44310000Y-101572876D01*
X44310232Y-101637179D01*
X44311487Y-101684194D01*
X44314604Y-101716630D01*
X44320420Y-101737200D01*
X44329773Y-101748613D01*
X44343501Y-101753581D01*
X44362442Y-101754813D01*
X44366250Y-101754846D01*
X44385875Y-101758900D01*
X44395916Y-101774636D01*
X44398750Y-101786250D01*
X44403144Y-101810768D01*
X44404999Y-101826167D01*
X44405000Y-101826250D01*
X44395909Y-101830839D01*
X44372256Y-101834007D01*
X44344230Y-101835000D01*
X44308344Y-101833831D01*
X44284916Y-101828704D01*
X44266461Y-101817188D01*
X44254230Y-101805769D01*
X44225000Y-101776538D01*
X44225000Y-101590769D01*
X44225000Y-101405000D01*
X44195833Y-101405000D01*
X44172573Y-101401404D01*
X44162182Y-101387957D01*
X44162126Y-101360663D01*
X44163101Y-101353400D01*
X44169703Y-101332633D01*
X44185615Y-101325454D01*
X44196134Y-101325000D01*
X44211808Y-101324202D01*
X44220441Y-101318745D01*
X44224133Y-101304036D01*
X44224984Y-101275478D01*
X44225000Y-101261841D01*
X44225000Y-101198682D01*
X44265000Y-101176201D01*
X44305000Y-101153720D01*
X44305000Y-101239360D01*
G37*
G36*
X46627364Y-98860697D02*
G01*
X46629326Y-98872506D01*
X46629788Y-98899101D01*
X46628701Y-98935322D01*
X46628168Y-98945507D01*
X46623654Y-99025000D01*
X46669327Y-99025000D01*
X46715000Y-99025000D01*
X46715000Y-99065000D01*
X46715000Y-99105000D01*
X46668913Y-99105000D01*
X46622827Y-99105000D01*
X46626723Y-99270556D01*
X46628478Y-99335330D01*
X46630824Y-99382799D01*
X46634631Y-99415655D01*
X46640768Y-99436591D01*
X46650106Y-99448299D01*
X46663513Y-99453473D01*
X46681861Y-99454804D01*
X46686250Y-99454846D01*
X46705937Y-99458939D01*
X46715974Y-99474792D01*
X46718705Y-99486027D01*
X46721456Y-99510451D01*
X46719417Y-99525941D01*
X46719365Y-99526027D01*
X46707062Y-99530982D01*
X46681255Y-99534241D01*
X46658640Y-99535000D01*
X46623911Y-99533424D01*
X46600754Y-99526779D01*
X46580866Y-99512189D01*
X46574230Y-99505769D01*
X46545000Y-99476538D01*
X46545000Y-99290769D01*
X46545000Y-99105000D01*
X46515000Y-99105000D01*
X46495763Y-99103420D01*
X46487212Y-99094860D01*
X46485047Y-99073589D01*
X46485000Y-99065000D01*
X46486184Y-99039351D01*
X46492604Y-99027949D01*
X46508558Y-99025063D01*
X46515000Y-99025000D01*
X46545000Y-99025000D01*
X46545000Y-98961841D01*
X46545496Y-98927246D01*
X46548858Y-98906467D01*
X46557896Y-98893320D01*
X46575417Y-98881619D01*
X46583523Y-98877031D01*
X46607863Y-98865047D01*
X46624311Y-98860079D01*
X46627364Y-98860697D01*
G37*
G36*
X44787748Y-101323921D02*
G01*
X44847626Y-101350177D01*
X44896827Y-101393008D01*
X44927668Y-101438757D01*
X44938556Y-101463102D01*
X44945194Y-101489597D01*
X44948516Y-101524089D01*
X44949458Y-101572423D01*
X44949459Y-101575000D01*
X44946620Y-101639019D01*
X44936910Y-101688768D01*
X44918545Y-101729318D01*
X44889736Y-101765740D01*
X44878274Y-101777111D01*
X44832787Y-101807820D01*
X44776418Y-101827222D01*
X44715390Y-101834372D01*
X44655928Y-101828323D01*
X44619914Y-101816350D01*
X44568849Y-101782666D01*
X44529021Y-101734870D01*
X44501530Y-101676087D01*
X44487476Y-101609446D01*
X44487639Y-101585475D01*
X44574539Y-101585475D01*
X44583264Y-101638387D01*
X44602878Y-101685743D01*
X44632820Y-101722875D01*
X44655000Y-101738045D01*
X44699232Y-101750909D01*
X44748218Y-101749761D01*
X44792920Y-101735077D01*
X44800791Y-101730401D01*
X44830093Y-101700212D01*
X44850751Y-101656932D01*
X44862201Y-101605766D01*
X44863880Y-101551916D01*
X44855223Y-101500587D01*
X44835669Y-101456982D01*
X44831087Y-101450537D01*
X44794170Y-101417158D01*
X44749427Y-101399542D01*
X44701637Y-101397925D01*
X44655581Y-101412543D01*
X44619283Y-101440072D01*
X44591989Y-101481651D01*
X44577260Y-101531674D01*
X44574539Y-101585475D01*
X44487639Y-101585475D01*
X44487960Y-101538073D01*
X44500429Y-101476674D01*
X44528251Y-101415233D01*
X44570173Y-101367047D01*
X44624044Y-101333709D01*
X44687715Y-101316814D01*
X44718478Y-101315000D01*
X44787748Y-101323921D01*
G37*
G36*
X44847748Y-99023921D02*
G01*
X44907626Y-99050177D01*
X44956827Y-99093008D01*
X44987668Y-99138757D01*
X44998556Y-99163102D01*
X45005194Y-99189597D01*
X45008516Y-99224089D01*
X45009458Y-99272423D01*
X45009459Y-99275000D01*
X45006620Y-99339019D01*
X44996910Y-99388768D01*
X44978545Y-99429318D01*
X44949736Y-99465740D01*
X44938274Y-99477111D01*
X44893934Y-99506997D01*
X44838434Y-99526472D01*
X44778304Y-99534456D01*
X44720075Y-99529867D01*
X44685000Y-99519056D01*
X44629987Y-99484868D01*
X44588295Y-99436237D01*
X44560602Y-99374219D01*
X44548059Y-99306089D01*
X44549031Y-99246504D01*
X44636779Y-99246504D01*
X44637757Y-99299965D01*
X44649034Y-99351403D01*
X44670364Y-99396185D01*
X44701500Y-99429677D01*
X44715000Y-99438045D01*
X44759232Y-99450909D01*
X44808218Y-99449761D01*
X44852920Y-99435077D01*
X44860791Y-99430401D01*
X44889995Y-99400288D01*
X44910635Y-99357064D01*
X44922135Y-99305953D01*
X44923924Y-99252176D01*
X44915427Y-99200959D01*
X44896071Y-99157522D01*
X44891460Y-99151026D01*
X44854694Y-99118167D01*
X44808973Y-99100251D01*
X44759513Y-99098106D01*
X44711530Y-99112561D01*
X44698104Y-99120322D01*
X44666706Y-99152049D01*
X44646347Y-99195654D01*
X44636779Y-99246504D01*
X44549031Y-99246504D01*
X44549319Y-99228811D01*
X44565850Y-99160839D01*
X44596318Y-99103860D01*
X44639384Y-99059565D01*
X44693712Y-99029640D01*
X44757966Y-99015775D01*
X44778478Y-99015000D01*
X44847748Y-99023921D01*
G37*
G36*
X46265176Y-99021535D02*
G01*
X46295148Y-99033284D01*
X46325320Y-99054545D01*
X46352914Y-99081702D01*
X46375151Y-99111141D01*
X46389252Y-99139247D01*
X46392438Y-99162405D01*
X46383853Y-99175920D01*
X46356325Y-99185211D01*
X46328856Y-99182319D01*
X46309154Y-99168570D01*
X46305900Y-99162500D01*
X46283176Y-99128820D01*
X46248079Y-99106503D01*
X46205627Y-99097039D01*
X46160841Y-99101918D01*
X46135686Y-99111954D01*
X46100120Y-99140031D01*
X46076919Y-99181133D01*
X46065411Y-99236784D01*
X46063825Y-99275189D01*
X46070152Y-99341690D01*
X46088359Y-99393060D01*
X46117984Y-99428763D01*
X46158567Y-99448262D01*
X46209649Y-99451021D01*
X46214269Y-99450491D01*
X46259275Y-99438258D01*
X46291159Y-99412851D01*
X46311514Y-99377500D01*
X46325290Y-99354214D01*
X46343616Y-99345638D01*
X46352634Y-99345153D01*
X46384491Y-99348786D01*
X46399372Y-99361022D01*
X46399408Y-99384553D01*
X46395308Y-99399065D01*
X46368334Y-99451084D01*
X46327583Y-99491973D01*
X46276765Y-99520305D01*
X46219594Y-99534649D01*
X46159783Y-99533576D01*
X46101043Y-99515655D01*
X46097274Y-99513835D01*
X46045915Y-99477962D01*
X46006402Y-99428995D01*
X45984740Y-99379074D01*
X45977095Y-99333080D01*
X45975627Y-99277826D01*
X45979809Y-99220503D01*
X45989111Y-99168304D01*
X46003006Y-99128419D01*
X46003181Y-99128079D01*
X46039698Y-99077916D01*
X46088973Y-99041784D01*
X46148618Y-99020655D01*
X46216244Y-99015499D01*
X46265176Y-99021535D01*
G37*
G36*
X45646111Y-99017016D02*
G01*
X45706671Y-99030787D01*
X45759145Y-99061236D01*
X45801341Y-99105933D01*
X45831066Y-99162443D01*
X45846128Y-99228334D01*
X45847055Y-99240000D01*
X45850000Y-99290000D01*
X45662364Y-99292721D01*
X45474729Y-99295442D01*
X45481268Y-99322721D01*
X45502513Y-99378053D01*
X45535663Y-99419584D01*
X45540814Y-99423854D01*
X45583885Y-99446048D01*
X45632381Y-99452519D01*
X45680563Y-99443818D01*
X45722689Y-99420498D01*
X45738617Y-99404819D01*
X45768510Y-99381666D01*
X45802532Y-99374525D01*
X45834019Y-99384182D01*
X45840650Y-99392521D01*
X45838059Y-99406901D01*
X45825164Y-99432030D01*
X45821664Y-99438062D01*
X45786302Y-99479697D01*
X45737656Y-99510783D01*
X45680177Y-99530012D01*
X45618321Y-99536074D01*
X45556539Y-99527659D01*
X45537388Y-99521651D01*
X45479775Y-99491159D01*
X45436448Y-99446712D01*
X45407472Y-99388419D01*
X45392915Y-99316390D01*
X45391108Y-99281443D01*
X45391563Y-99236334D01*
X45394023Y-99215000D01*
X45482831Y-99215000D01*
X45618915Y-99215000D01*
X45674751Y-99214663D01*
X45713432Y-99213451D01*
X45737798Y-99211061D01*
X45750685Y-99207191D01*
X45754932Y-99201536D01*
X45755000Y-99200470D01*
X45751025Y-99180798D01*
X45743458Y-99160610D01*
X45718590Y-99127596D01*
X45682786Y-99106908D01*
X45640481Y-99098076D01*
X45596108Y-99100630D01*
X45554105Y-99114100D01*
X45518904Y-99138016D01*
X45494941Y-99171909D01*
X45489657Y-99187500D01*
X45482831Y-99215000D01*
X45394023Y-99215000D01*
X45395394Y-99203110D01*
X45404152Y-99173740D01*
X45417758Y-99143498D01*
X45455132Y-99086121D01*
X45502660Y-99045896D01*
X45560660Y-99022646D01*
X45629451Y-99016195D01*
X45646111Y-99017016D01*
G37*
G36*
X46114053Y-102298428D02*
G01*
X46163292Y-102323954D01*
X46201091Y-102362025D01*
X46202684Y-102364371D01*
X46227198Y-102409146D01*
X46244261Y-102460232D01*
X46254674Y-102521448D01*
X46259241Y-102596612D01*
X46259606Y-102635000D01*
X46255822Y-102728528D01*
X46244553Y-102804935D01*
X46225165Y-102865890D01*
X46197024Y-102913061D01*
X46159498Y-102948116D01*
X46135300Y-102962500D01*
X46086345Y-102979034D01*
X46031519Y-102984721D01*
X45978997Y-102979301D01*
X45947394Y-102968472D01*
X45904073Y-102939495D01*
X45870380Y-102899085D01*
X45845546Y-102845460D01*
X45828797Y-102776838D01*
X45819362Y-102691436D01*
X45818181Y-102670000D01*
X45818312Y-102608115D01*
X45905896Y-102608115D01*
X45906639Y-102668857D01*
X45910549Y-102739253D01*
X45918211Y-102792779D01*
X45930682Y-102832380D01*
X45949017Y-102861005D01*
X45974273Y-102881599D01*
X45985000Y-102887484D01*
X46021054Y-102901777D01*
X46051741Y-102902874D01*
X46086594Y-102890916D01*
X46090546Y-102889070D01*
X46124082Y-102862554D01*
X46147057Y-102826570D01*
X46156198Y-102806247D01*
X46162546Y-102785951D01*
X46166601Y-102761520D01*
X46168862Y-102728791D01*
X46169826Y-102683600D01*
X46170000Y-102635000D01*
X46169660Y-102575778D01*
X46168332Y-102532390D01*
X46165556Y-102500674D01*
X46160870Y-102476470D01*
X46153813Y-102455619D01*
X46148849Y-102444279D01*
X46120777Y-102403350D01*
X46083825Y-102377572D01*
X46041953Y-102367769D01*
X45999121Y-102374765D01*
X45959290Y-102399384D01*
X45954591Y-102403869D01*
X45933321Y-102434119D01*
X45918334Y-102477034D01*
X45909302Y-102534429D01*
X45905896Y-102608115D01*
X45818312Y-102608115D01*
X45818400Y-102566880D01*
X45829538Y-102480257D01*
X45851713Y-102409796D01*
X45885042Y-102355164D01*
X45929641Y-102316026D01*
X45944752Y-102307500D01*
X46000076Y-102289163D01*
X46058079Y-102286485D01*
X46114053Y-102298428D01*
G37*
G36*
X44324053Y-102298428D02*
G01*
X44373292Y-102323954D01*
X44411091Y-102362025D01*
X44412684Y-102364371D01*
X44437198Y-102409146D01*
X44454261Y-102460232D01*
X44464674Y-102521448D01*
X44469241Y-102596612D01*
X44469606Y-102635000D01*
X44465822Y-102728528D01*
X44454553Y-102804935D01*
X44435165Y-102865890D01*
X44407024Y-102913061D01*
X44369498Y-102948116D01*
X44345300Y-102962500D01*
X44292706Y-102980052D01*
X44235275Y-102984538D01*
X44180687Y-102975858D01*
X44153710Y-102964940D01*
X44111974Y-102936297D01*
X44079733Y-102898322D01*
X44056021Y-102848743D01*
X44039872Y-102785288D01*
X44030318Y-102705688D01*
X44028181Y-102670000D01*
X44028255Y-102635000D01*
X44120107Y-102635000D01*
X44121103Y-102709141D01*
X44124771Y-102766221D01*
X44131958Y-102809095D01*
X44143510Y-102840617D01*
X44160276Y-102863643D01*
X44183101Y-102881027D01*
X44195000Y-102887484D01*
X44230607Y-102901674D01*
X44260986Y-102902928D01*
X44295665Y-102891311D01*
X44302338Y-102888220D01*
X44333817Y-102865198D01*
X44357985Y-102827567D01*
X44358849Y-102825720D01*
X44367380Y-102804948D01*
X44373291Y-102783073D01*
X44377042Y-102755933D01*
X44379094Y-102719369D01*
X44379911Y-102669221D01*
X44380000Y-102635000D01*
X44379660Y-102575778D01*
X44378332Y-102532390D01*
X44375556Y-102500674D01*
X44370870Y-102476470D01*
X44363813Y-102455619D01*
X44358849Y-102444279D01*
X44330330Y-102402032D01*
X44293096Y-102375767D01*
X44250432Y-102366613D01*
X44205622Y-102375698D01*
X44186898Y-102385256D01*
X44163841Y-102402119D01*
X44146633Y-102422701D01*
X44134473Y-102449992D01*
X44126560Y-102486988D01*
X44122094Y-102536680D01*
X44120275Y-102602063D01*
X44120107Y-102635000D01*
X44028255Y-102635000D01*
X44028400Y-102566880D01*
X44039538Y-102480257D01*
X44061713Y-102409796D01*
X44095042Y-102355164D01*
X44139641Y-102316026D01*
X44154752Y-102307500D01*
X44210076Y-102289163D01*
X44268079Y-102286485D01*
X44324053Y-102298428D01*
G37*
G36*
X44964788Y-100178587D02*
G01*
X44981854Y-100185897D01*
X45034427Y-100221479D01*
X45072800Y-100270641D01*
X45097208Y-100333786D01*
X45107240Y-100400000D01*
X45110000Y-100440000D01*
X44921896Y-100442722D01*
X44856156Y-100443803D01*
X44807870Y-100445052D01*
X44774494Y-100446746D01*
X44753481Y-100449163D01*
X44742288Y-100452582D01*
X44738368Y-100457282D01*
X44738921Y-100462722D01*
X44745146Y-100485600D01*
X44750582Y-100507392D01*
X44766096Y-100537493D01*
X44794717Y-100566818D01*
X44830091Y-100589979D01*
X44860750Y-100600800D01*
X44909755Y-100601292D01*
X44956892Y-100586550D01*
X44994911Y-100558991D01*
X44998617Y-100554819D01*
X45028510Y-100531666D01*
X45062532Y-100524525D01*
X45094019Y-100534182D01*
X45100650Y-100542521D01*
X45098059Y-100556901D01*
X45085164Y-100582030D01*
X45081664Y-100588062D01*
X45044037Y-100633163D01*
X44993148Y-100664833D01*
X44931663Y-100681727D01*
X44890536Y-100684210D01*
X44852049Y-100682015D01*
X44817109Y-100677200D01*
X44800000Y-100672934D01*
X44771142Y-100659499D01*
X44741004Y-100640806D01*
X44738447Y-100638938D01*
X44697011Y-100596193D01*
X44667961Y-100541342D01*
X44651746Y-100478324D01*
X44648812Y-100411076D01*
X44656176Y-100365000D01*
X44742831Y-100365000D01*
X44878915Y-100365000D01*
X44934751Y-100364663D01*
X44973432Y-100363451D01*
X44997798Y-100361061D01*
X45010685Y-100357191D01*
X45014932Y-100351536D01*
X45015000Y-100350470D01*
X45011025Y-100330798D01*
X45003458Y-100310610D01*
X44978590Y-100277596D01*
X44942786Y-100256908D01*
X44900481Y-100248076D01*
X44856108Y-100250630D01*
X44814105Y-100264100D01*
X44778904Y-100288016D01*
X44754941Y-100321909D01*
X44749657Y-100337500D01*
X44742831Y-100365000D01*
X44656176Y-100365000D01*
X44659606Y-100343538D01*
X44684574Y-100279647D01*
X44695551Y-100260741D01*
X44734447Y-100217076D01*
X44785351Y-100185844D01*
X44843729Y-100168228D01*
X44905052Y-100165415D01*
X44964788Y-100178587D01*
G37*
G36*
X45554788Y-100178587D02*
G01*
X45571854Y-100185897D01*
X45622103Y-100219071D01*
X45659214Y-100264379D01*
X45684159Y-100323487D01*
X45697911Y-100398064D01*
X45698349Y-100402500D01*
X45702376Y-100445000D01*
X45513014Y-100445000D01*
X45447076Y-100445118D01*
X45398593Y-100445634D01*
X45365018Y-100446790D01*
X45343806Y-100448828D01*
X45332412Y-100451989D01*
X45328290Y-100456515D01*
X45328851Y-100462500D01*
X45335136Y-100485577D01*
X45340582Y-100507392D01*
X45356096Y-100537493D01*
X45384717Y-100566818D01*
X45420091Y-100589979D01*
X45450750Y-100600800D01*
X45497811Y-100601666D01*
X45542776Y-100588656D01*
X45578697Y-100564128D01*
X45586877Y-100554599D01*
X45610159Y-100532024D01*
X45637855Y-100525158D01*
X45639380Y-100525153D01*
X45672578Y-100528373D01*
X45688078Y-100538815D01*
X45687438Y-100558291D01*
X45680836Y-100573382D01*
X45644274Y-100623441D01*
X45594668Y-100659121D01*
X45533845Y-100679415D01*
X45480000Y-100683920D01*
X45442072Y-100682146D01*
X45408101Y-100678257D01*
X45391849Y-100674831D01*
X45365238Y-100663053D01*
X45335612Y-100644812D01*
X45330297Y-100640905D01*
X45287506Y-100596281D01*
X45257686Y-100539930D01*
X45241291Y-100475727D01*
X45238779Y-100407544D01*
X45246147Y-100365000D01*
X45332831Y-100365000D01*
X45468915Y-100365000D01*
X45524751Y-100364663D01*
X45563432Y-100363451D01*
X45587798Y-100361061D01*
X45600685Y-100357191D01*
X45604932Y-100351536D01*
X45605000Y-100350470D01*
X45601025Y-100330798D01*
X45593458Y-100310610D01*
X45568590Y-100277596D01*
X45532786Y-100256908D01*
X45490481Y-100248076D01*
X45446108Y-100250630D01*
X45404105Y-100264100D01*
X45368904Y-100288016D01*
X45344941Y-100321909D01*
X45339657Y-100337500D01*
X45332831Y-100365000D01*
X45246147Y-100365000D01*
X45250605Y-100339256D01*
X45277226Y-100274737D01*
X45285551Y-100260741D01*
X45324447Y-100217076D01*
X45375351Y-100185844D01*
X45433729Y-100168228D01*
X45495052Y-100165415D01*
X45554788Y-100178587D01*
G37*
G36*
X46062207Y-101330051D02*
G01*
X46102103Y-101359168D01*
X46127484Y-101395199D01*
X46133657Y-101410120D01*
X46138220Y-101428832D01*
X46141403Y-101454376D01*
X46143434Y-101489793D01*
X46144543Y-101538126D01*
X46144960Y-101602415D01*
X46144984Y-101627500D01*
X46145000Y-101825000D01*
X46100000Y-101825000D01*
X46055000Y-101825000D01*
X46055000Y-101637225D01*
X46054650Y-101564099D01*
X46053148Y-101508418D01*
X46049808Y-101467632D01*
X46043949Y-101439191D01*
X46034886Y-101420545D01*
X46021937Y-101409144D01*
X46004418Y-101402438D01*
X45991329Y-101399589D01*
X45949576Y-101400511D01*
X45908151Y-101415724D01*
X45875234Y-101441843D01*
X45868925Y-101450236D01*
X45862447Y-101462393D01*
X45857849Y-101478098D01*
X45854887Y-101500544D01*
X45853316Y-101532925D01*
X45852889Y-101578434D01*
X45853362Y-101640264D01*
X45853494Y-101651071D01*
X45855693Y-101825000D01*
X45811125Y-101825000D01*
X45766558Y-101825000D01*
X45763279Y-101634116D01*
X45760000Y-101443233D01*
X45730693Y-101418042D01*
X45695012Y-101398922D01*
X45656471Y-101397185D01*
X45619167Y-101411462D01*
X45587196Y-101440383D01*
X45568619Y-101472178D01*
X45562573Y-101495191D01*
X45558378Y-101532331D01*
X45555900Y-101585476D01*
X45555007Y-101656503D01*
X45555000Y-101664678D01*
X45555000Y-101825000D01*
X45510000Y-101825000D01*
X45465000Y-101825000D01*
X45465000Y-101575000D01*
X45465000Y-101325000D01*
X45505000Y-101325000D01*
X45530605Y-101326013D01*
X45541983Y-101332635D01*
X45544905Y-101350237D01*
X45545000Y-101362225D01*
X45545481Y-101385877D01*
X45548578Y-101391884D01*
X45556771Y-101382600D01*
X45560660Y-101377091D01*
X45593828Y-101345884D01*
X45639639Y-101325040D01*
X45692484Y-101316753D01*
X45713392Y-101317365D01*
X45748294Y-101322048D01*
X45772314Y-101331763D01*
X45794560Y-101350799D01*
X45802670Y-101359429D01*
X45837046Y-101396939D01*
X45868523Y-101366583D01*
X45914500Y-101333664D01*
X45964626Y-101316881D01*
X46015122Y-101315816D01*
X46062207Y-101330051D01*
G37*
G36*
X43893896Y-99977235D02*
G01*
X43960622Y-99991390D01*
X44019852Y-100017543D01*
X44068393Y-100054976D01*
X44103050Y-100102973D01*
X44106071Y-100109292D01*
X44120559Y-100145609D01*
X44123422Y-100169077D01*
X44113812Y-100183695D01*
X44090881Y-100193461D01*
X44088062Y-100194258D01*
X44064127Y-100200257D01*
X44050636Y-100202466D01*
X44049680Y-100202228D01*
X44044958Y-100192725D01*
X44034473Y-100170878D01*
X44026617Y-100154340D01*
X43998295Y-100110949D01*
X43959926Y-100081666D01*
X43909172Y-100065285D01*
X43845000Y-100060590D01*
X43774924Y-100067407D01*
X43718249Y-100087662D01*
X43672301Y-100122890D01*
X43634406Y-100174632D01*
X43628669Y-100185000D01*
X43617239Y-100219475D01*
X43610386Y-100267324D01*
X43608041Y-100322468D01*
X43610134Y-100378828D01*
X43616596Y-100430325D01*
X43627357Y-100470880D01*
X43632061Y-100481242D01*
X43670373Y-100532991D01*
X43720866Y-100570878D01*
X43780687Y-100594226D01*
X43846980Y-100602363D01*
X43916893Y-100594612D01*
X43987570Y-100570299D01*
X43994556Y-100566937D01*
X44050000Y-100539533D01*
X44052948Y-100472621D01*
X44055897Y-100405709D01*
X43953429Y-100402854D01*
X43850961Y-100400000D01*
X43851980Y-100372500D01*
X43853084Y-100348485D01*
X43854000Y-100335000D01*
X43864118Y-100330910D01*
X43892261Y-100327792D01*
X43936472Y-100325778D01*
X43994795Y-100325004D01*
X44000000Y-100325000D01*
X44145000Y-100325000D01*
X44145000Y-100452887D01*
X44145000Y-100580774D01*
X44088818Y-100614823D01*
X44049189Y-100636602D01*
X44006647Y-100656619D01*
X43981318Y-100666610D01*
X43922270Y-100679948D01*
X43854533Y-100684210D01*
X43786930Y-100679435D01*
X43728283Y-100665664D01*
X43727678Y-100665447D01*
X43653938Y-100629195D01*
X43594216Y-100579241D01*
X43549306Y-100516890D01*
X43520001Y-100443442D01*
X43507095Y-100360201D01*
X43507671Y-100304324D01*
X43521628Y-100216441D01*
X43550364Y-100141140D01*
X43593498Y-100079062D01*
X43650648Y-100030845D01*
X43680696Y-100013911D01*
X43750739Y-99987778D01*
X43822871Y-99975792D01*
X43893896Y-99977235D01*
G37*
G36*
X43813044Y-101130782D02*
G01*
X43847208Y-101133635D01*
X43874002Y-101139792D01*
X43899728Y-101150358D01*
X43910120Y-101155546D01*
X43958876Y-101190052D01*
X43996285Y-101235590D01*
X44018410Y-101287098D01*
X44020624Y-101297500D01*
X44027225Y-101335000D01*
X43981907Y-101335000D01*
X43953661Y-101333845D01*
X43939158Y-101328038D01*
X43932172Y-101314064D01*
X43930173Y-101305790D01*
X43911625Y-101264432D01*
X43878054Y-101233423D01*
X43832137Y-101213802D01*
X43776552Y-101206605D01*
X43713976Y-101212871D01*
X43699168Y-101216252D01*
X43655691Y-101235061D01*
X43627066Y-101264755D01*
X43615212Y-101303207D01*
X43615000Y-101309605D01*
X43621304Y-101339795D01*
X43641573Y-101364433D01*
X43677836Y-101385167D01*
X43730000Y-101403051D01*
X43777325Y-101416447D01*
X43828351Y-101430882D01*
X43863325Y-101440770D01*
X43934970Y-101467784D01*
X43988902Y-101503215D01*
X44024898Y-101546836D01*
X44042735Y-101598418D01*
X44044780Y-101626361D01*
X44035166Y-101687371D01*
X44007861Y-101740480D01*
X43964193Y-101783963D01*
X43905493Y-101816097D01*
X43895556Y-101819803D01*
X43854035Y-101829197D01*
X43801998Y-101833673D01*
X43747591Y-101833179D01*
X43698958Y-101827665D01*
X43673822Y-101821194D01*
X43606902Y-101788297D01*
X43555351Y-101743246D01*
X43519848Y-101686757D01*
X43505393Y-101642939D01*
X43499285Y-101615106D01*
X43495654Y-101595961D01*
X43495244Y-101592500D01*
X43504009Y-101587961D01*
X43526388Y-101585295D01*
X43538417Y-101585000D01*
X43565634Y-101586109D01*
X43580246Y-101592977D01*
X43589236Y-101610910D01*
X43594340Y-101627500D01*
X43617967Y-101678119D01*
X43655680Y-101715225D01*
X43708726Y-101740010D01*
X43713589Y-101741473D01*
X43774294Y-101752370D01*
X43830612Y-101749926D01*
X43879691Y-101735461D01*
X43918676Y-101710296D01*
X43944713Y-101675752D01*
X43954948Y-101633151D01*
X43955000Y-101629727D01*
X43945893Y-101600056D01*
X43921595Y-101571304D01*
X43886635Y-101547704D01*
X43854080Y-101535392D01*
X43771882Y-101513750D01*
X43706746Y-101494692D01*
X43656095Y-101477023D01*
X43617352Y-101459546D01*
X43587940Y-101441066D01*
X43565280Y-101420387D01*
X43546796Y-101396313D01*
X43543597Y-101391341D01*
X43528552Y-101350654D01*
X43526371Y-101302337D01*
X43536457Y-101253551D01*
X43558212Y-101211458D01*
X43558646Y-101210885D01*
X43591831Y-101175168D01*
X43630062Y-101150965D01*
X43677498Y-101136650D01*
X43738295Y-101130598D01*
X43765212Y-101130127D01*
X43813044Y-101130782D01*
G37*
%TO.C,C8*%
X60600000Y-92789836D02*
X60600000Y-92574164D01*
X61320000Y-92789836D02*
X61320000Y-92574164D01*
%TO.C,SW1*%
X44487000Y-84053000D02*
X43697000Y-84053000D01*
X42687000Y-84653000D02*
X42687000Y-90353000D01*
X45537000Y-85903000D02*
X45537000Y-87603000D01*
X45537000Y-88903000D02*
X45537000Y-89103000D01*
X43697000Y-90953000D02*
X44487000Y-90953000D01*
%TO.C,Y1*%
X58038000Y-88424000D02*
X54738000Y-88424000D01*
X54738000Y-88424000D02*
X54738000Y-92424000D01*
%TO.C,R1*%
X84710000Y-99721641D02*
X84710000Y-99414359D01*
X85470000Y-99721641D02*
X85470000Y-99414359D01*
%TO.C,C4*%
X60600000Y-88753836D02*
X60600000Y-88538164D01*
X61320000Y-88753836D02*
X61320000Y-88538164D01*
%TD*%
M02*
